<?xml version="1.0" encoding="UTF-8"?>
<svg id="Layer_2" data-name="Layer 2" xmlns="http://www.w3.org/2000/svg" viewBox="0 0 571.11 138">
  <defs>
    <style>
      .cls-1 {
        fill: #eb1000;
      }
    </style>
  </defs>
  <g id="Sponsor_logos" data-name="Sponsor logos">
    <g id="Layer_1-2" data-name="Layer 1-2">
      <path class="cls-1" d="M88.52,136.02l-10.84-30.16h-27.2l22.87-57.57,34.7,87.73h41.2L94.23,3.94H55.4L0,136.02H88.52Zm153.18-5.91V0h-34.3V32.73c-4.34-.98-8.48-1.38-12.61-1.38-26.42,0-51.85,18.33-51.85,54.21s26.22,52.44,57.17,52.44c16.95,0,33.71-4.34,41.6-7.89h0Zm-64.46-45.15c0-17.55,10.45-26.02,21.88-26.02,3.15,0,5.91,.59,8.28,1.58v47.9c-2.36,.79-5.13,1.18-8.08,1.18-11.43,0-22.08-7.69-22.08-24.64h0Zm178.61-.4c0-33.91-24.25-53.23-53.03-53.23s-52.83,19.32-52.83,53.23,24.05,53.23,52.83,53.23,53.03-19.32,53.03-53.23h0Zm-71.76,0c0-16.76,8.67-24.64,18.73-24.64s18.93,7.89,18.93,24.64-8.87,24.64-18.93,24.64-18.73-7.89-18.73-24.64h0Zm179-1.38c0-34.3-24.84-52.05-51.85-52.05-4.14,0-8.48,.59-12.81,1.38V0h-34.3V130.31c10.65,4.93,27.6,7.69,41,7.69,31.35,0,57.96-18.53,57.96-54.81h0Zm-56.38-24.05c11.43,0,22.08,7.89,22.08,24.44,0,17.74-11.04,26.02-22.67,26.02-2.96,0-5.52-.39-7.69-1.18V60.72c2.56-.98,5.13-1.58,8.28-1.58h0Zm122.42,78.66c12.42,0,24.44-2.17,34.5-7.29v-26.22c-10.84,4.73-20.5,7.29-30.95,7.29-12.81,0-23.06-5.52-26.81-17.15h64.46c.59-4.34,.79-8.67,.79-13.21,0-33.32-23.66-49.88-49.48-49.88-27.6,0-50.67,20.11-50.67,53.03s25.43,53.43,58.15,53.43h0Zm-7.1-80.63c7.69,0,15.18,4.54,16.95,15.77h-33.51c2.56-11.04,9.27-15.77,16.56-15.77h0Z"/>
    </g>
  </g>
</svg>