<?xml version="1.0" encoding="UTF-8"?>
<svg id="Layer_2" data-name="Layer 2" xmlns="http://www.w3.org/2000/svg" viewBox="0 0 645.32 138.61">
  <defs>
    <style>
      .cls-1 {
        fill: #1a1818;
      }
    </style>
  </defs>
  <g id="Sponsor_logos" data-name="Sponsor logos">
    <g>
      <path class="cls-1" d="M11.39,138.61c-.87,0-1.78-.1-2.67-.32-6.1-1.47-9.87-7.6-8.4-13.72L27.71,10.76c1.23-5.11,5.81-8.71,11.06-8.71h31.04c5.26,0,9.83,3.6,11.05,8.71l24.8,103h17.93V13.42c0-6.28,5.1-11.37,11.37-11.37h56.9c6.29,0,11.39,5.09,11.39,11.37v51.92l26.4,48.42h10.82V13.42c0-6.28,5.11-11.37,11.39-11.37h56.88c6.28,0,11.38,5.09,11.38,11.37v51.92l26.42,48.42h78.06V47.55c0-6.27,5.1-11.38,11.38-11.38s11.38,5.11,11.38,11.38V125.14c0,6.28-5.09,11.38-11.38,11.38h-96.2c-4.16,0-7.99-2.28-9.98-5.93l-31.03-56.9c-.92-1.66-1.38-3.54-1.38-5.44V24.81h-34.13V125.14c0,6.28-5.1,11.38-11.38,11.38h-28.98c-4.15,0-7.98-2.28-9.99-5.93l-31.02-56.9c-.9-1.66-1.38-3.54-1.38-5.44V24.81h-34.14V125.14c0,6.28-5.09,11.38-11.39,11.38h-38.27c-5.25,0-9.83-3.62-11.06-8.73L60.84,24.81h-13.11l-25.29,105.09c-1.27,5.22-5.92,8.72-11.06,8.72"/>
      <path class="cls-1" d="M611.81,136.52h-24.82c-5.44,0-10.14-3.86-11.17-9.21l-19.93-102.51h-2.97l-19.93,102.51c-1.04,5.34-5.72,9.21-11.17,9.21h-24.83c-5.44,0-10.12-3.86-11.16-9.21l-19.93-102.51h-87.86V91.01c0,6.29-5.09,11.37-11.39,11.37s-11.37-5.08-11.37-11.37V13.42c0-6.28,5.1-11.37,11.37-11.37h108.62c5.45,0,10.13,3.86,11.17,9.21l19.94,102.5h6.06l19.93-102.5c1.04-5.35,5.73-9.21,11.18-9.21h21.71c5.44,0,10.12,3.86,11.17,9.21l19.93,102.5h6.08l20.33-104.56c1.2-6.17,7.18-10.18,13.34-8.99,6.17,1.21,10.2,7.18,8.99,13.34l-22.12,113.77c-1.03,5.34-5.72,9.21-11.17,9.21"/>
    </g>
  </g>
</svg>