<?xml version="1.0" encoding="UTF-8"?>
<svg id="Layer_2" data-name="Layer 2" xmlns="http://www.w3.org/2000/svg" xmlns:xlink="http://www.w3.org/1999/xlink" viewBox="0 0 403.06 262.99">
  <defs>
    <style>
      .cls-1 {
        fill: none;
      }

      .cls-2 {
        clip-path: url(#clippath);
      }

      .cls-3 {
        fill: #f90;
      }

      .cls-4 {
        fill: #232f3e;
      }
    </style>
    <clipPath id="clippath">
      <rect class="cls-1" y="0" width="403.06" height="262.99"/>
    </clipPath>
  </defs>
  <g id="Sponsor_logos" data-name="Sponsor logos">
    <g class="cls-2">
      <g>
        <g>
          <path class="cls-4" d="M321.03,142.62c-6.67,0-13.18-.74-19.55-2.22-6.37-1.48-11.26-3.18-14.66-5.11-2.08-1.18-3.37-2.37-3.89-3.55-.52-1.18-.78-2.37-.78-3.55v-6.44c0-2.66,.96-4,2.89-4,.74,0,1.52,.15,2.33,.44,.81,.3,1.89,.74,3.22,1.33,4.29,1.93,8.96,3.41,13.99,4.44,5.03,1.04,10.07,1.56,15.11,1.56,8,0,14.18-1.41,18.55-4.22,4.37-2.81,6.55-6.81,6.55-11.99,0-3.55-1.15-6.52-3.44-8.88-2.3-2.37-6.55-4.59-12.77-6.66l-18.44-5.78c-9.33-2.96-16.1-7.25-20.32-12.88-4.22-5.63-6.33-11.77-6.33-18.44,0-5.33,1.15-10.03,3.44-14.1,2.29-4.07,5.33-7.55,9.11-10.44,3.78-2.89,8.18-5.07,13.22-6.55,5.03-1.48,10.36-2.22,15.99-2.22,2.81,0,5.66,.19,8.55,.56,2.89,.37,5.62,.85,8.22,1.44,2.59,.59,5,1.26,7.22,2,2.22,.74,4,1.48,5.33,2.22,1.78,1.04,3.03,2.08,3.78,3.11,.74,1.04,1.11,2.44,1.11,4.22v6c0,2.67-.97,4-2.89,4-1.04,0-2.66-.52-4.88-1.56-7.26-3.26-15.41-4.89-24.43-4.89-7.26,0-12.88,1.19-16.88,3.55-4,2.37-6,6.15-6,11.33,0,3.55,1.26,6.55,3.78,9,2.52,2.44,7.18,4.78,13.99,7l17.99,5.77c9.18,2.96,15.73,7.04,19.66,12.22,3.92,5.19,5.89,11.11,5.89,17.77,0,5.48-1.11,10.4-3.33,14.77-2.22,4.37-5.29,8.11-9.22,11.22-3.92,3.11-8.63,5.48-14.11,7.11-5.48,1.63-11.48,2.44-17.99,2.44m-163.04-3.33c-2.22,0-3.85-.41-4.89-1.22-1.04-.81-1.93-2.48-2.67-5l-29.76-98.18c-.74-2.52-1.11-4.22-1.11-5.11,0-2.07,1.03-3.11,3.11-3.11h12.44c2.37,0,4.03,.41,5,1.22,.96,.82,1.81,2.48,2.55,5l21.33,83.97,19.77-83.97c.59-2.52,1.4-4.18,2.44-5,1.03-.81,2.74-1.22,5.11-1.22h10.22c2.37,0,4.07,.41,5.11,1.22,1.03,.82,1.85,2.48,2.44,5l19.99,85.08,21.99-85.08c.74-2.52,1.59-4.18,2.56-5,.96-.81,2.63-1.22,5-1.22h11.77c2.07,0,3.11,1.04,3.11,3.11,0,.59-.08,1.26-.22,2-.15,.74-.45,1.78-.89,3.11l-30.65,98.18c-.74,2.52-1.63,4.19-2.67,5-1.04,.82-2.67,1.22-4.89,1.22h-10.89c-2.37,0-4.07-.44-5.11-1.33-1.04-.89-1.85-2.59-2.44-5.11l-19.77-81.74-19.55,81.74c-.6,2.52-1.41,4.22-2.44,5.11-1.04,.89-2.74,1.33-5.11,1.33h-10.89Zm-101.96-13.77c4.14,0,8.51-.78,13.11-2.33,4.59-1.55,8.59-4.26,11.99-8.11,2.07-2.37,3.51-5.07,4.33-8.11,.81-3.03,1.22-6.7,1.22-11v-5.33c-3.7-.89-7.59-1.59-11.66-2.11-4.07-.52-8.03-.78-11.88-.78-8.44,0-14.74,1.7-18.88,5.11-4.15,3.41-6.22,8.3-6.22,14.66,0,5.92,1.56,10.41,4.67,13.44,3.11,3.04,7.55,4.55,13.33,4.55m51.53-19.33c0,4.74,.48,8.52,1.44,11.33,.96,2.82,2.33,5.85,4.11,9.11,.59,1.04,.89,2,.89,2.89,0,1.33-.82,2.59-2.44,3.78l-8,5.33c-1.19,.74-2.3,1.11-3.33,1.11-1.33,0-2.59-.59-3.78-1.78-1.78-1.78-3.3-3.74-4.55-5.89-1.26-2.14-2.56-4.63-3.89-7.44-9.92,11.7-22.36,17.55-37.32,17.55-10.66,0-19.1-3.03-25.32-9.11-6.22-6.07-9.33-14.21-9.33-24.43,0-10.81,3.85-19.51,11.55-26.1,7.7-6.59,18.06-9.88,31.1-9.88,4.29,0,8.77,.33,13.44,1,4.67,.67,9.51,1.59,14.55,2.78v-9.33c0-9.62-2-16.4-6-20.32-4-3.92-10.88-5.89-20.66-5.89-4.44,0-9,.56-13.66,1.67-4.66,1.11-9.22,2.55-13.66,4.33-2.08,.89-3.55,1.44-4.44,1.67-.89,.22-1.55,.33-2,.33-1.78,0-2.67-1.33-2.67-4v-6.22c0-2.07,.3-3.56,.89-4.44,.59-.89,1.78-1.78,3.55-2.67,4.44-2.22,9.77-4.14,15.99-5.77,6.22-1.63,12.81-2.44,19.77-2.44,15.11,0,26.17,3.44,33.21,10.33,7.03,6.89,10.55,17.29,10.55,31.21v41.32Z"/>
          <path class="cls-3" d="M345.04,204.34c-41.79,30.84-102.38,47.24-154.55,47.24-73.12,0-138.96-27.03-188.79-72.02-3.91-3.53-.42-8.36,4.28-5.62,53.76,31.28,120.24,50.12,188.9,50.12,46.32,0,97.23-9.61,144.09-29.49,7.06-3,12.99,4.66,6.07,9.77"/>
          <path class="cls-3" d="M362.42,184.49c-5.35-6.84-35.33-3.24-48.8-1.63-4.08,.49-4.72-3.08-1.04-5.66,23.92-16.8,63.12-11.95,67.68-6.33,4.59,5.67-1.21,44.97-23.62,63.73-3.45,2.88-6.73,1.35-5.2-2.46,5.05-12.6,16.34-40.8,10.99-47.65"/>
        </g>
        <rect class="cls-1" x="-98.32" y="-93.96" width="586.57" height="464.06"/>
      </g>
    </g>
  </g>
</svg>