<?xml version="1.0" encoding="UTF-8"?>
<svg id="Layer_2" data-name="Layer 2" xmlns="http://www.w3.org/2000/svg" viewBox="0 0 403.36 163.22">
  <defs>
    <style>
      .cls-1 {
        fill: #1e7e5d;
      }
    </style>
  </defs>
  <g id="Sponsor_logos" data-name="Sponsor logos">
    <path class="cls-1" d="M33.99,130.8v-35.55s46.28,0,46.28,0c5.14,0,9.79,1.9,13.14,5.06,3.35,3.16,5.42,7.58,5.42,12.6s-2.07,9.5-5.42,12.72c-3.35,3.21-7.99,5.17-13.14,5.17h-23.14s-23.14,0-23.14,0h0Zm0-64.17V32.42s38.68,0,38.68,0c4.92,0,9.28,1.79,12.41,4.8,3.13,3.02,5.03,7.27,5.03,12.19s-1.9,9.23-5.03,12.29c-3.13,3.08-7.49,4.93-12.41,4.93h-19.34s-19.34,0-19.34,0h0Zm369.38,14.98c0-2.35-.11-4.64-.31-6.9-.2-2.26-.47-4.5-.81-6.74h-31.64s-31.64,0-31.64,0l-9.61,15.09-9.61,15.09h48.74c-2.91,9.84-8.44,18.33-15.99,24.37-7.55,6.04-17.11,9.61-28.06,9.61-13.75,0-26.1-5.76-35.02-14.98-8.92-9.22-14.39-21.91-14.39-35.77s5.53-26.16,14.53-35.27c9-9.11,21.46-14.82,35.33-14.82,6.04,0,11.63,.96,16.77,2.69,5.15,1.73,9.84,4.25,14.09,7.37l8.49-13.52,8.5-13.53c-6.48-4.58-13.81-8.16-21.8-10.59C342.93,1.29,334.27,0,325.11,0c-12.19,0-23.26,2.24-33.09,6.29-9.84,4.06-18.45,9.92-25.72,17.19-17.33,17.33-22.19,34.83-25.66,50.92-3.46,16.1-5.53,30.8-17.27,42.54-4.92,4.92-10.34,8.67-16.27,11.18-5.93,2.51-12.35,3.8-19.28,3.8-14.2,0-27-5.81-36.25-15.04-9.25-9.22-14.96-21.85-14.96-35.49s5.7-25.94,14.96-35.13c9.25-9.2,22.05-15.07,36.25-15.18,5.92,.11,11.46,1.01,16.55,2.66,5.09,1.64,9.73,4.05,13.86,7.18l8.61-13.53,8.61-13.52c-6.48-4.58-13.8-8.05-21.8-10.37C205.65,1.18,196.98,0,187.82,0c-14.09,0-27.22,3.41-38.68,9.36-11.46,5.95-21.24,14.45-28.62,24.63-2.91-8.95-8.89-16.6-17.08-22.03-8.19-5.42-18.59-8.61-30.32-8.61H36.56S0,3.36,0,3.36V81.61S0,159.87,0,159.87H80.72c10.17,0,19.23-2.4,26.78-6.57,7.54-4.17,13.58-10.09,17.72-17.13,7.49,8.27,16.66,15.03,27.05,19.73,10.4,4.7,22.02,7.32,34.43,7.32,14.65,0,28-3.41,39.58-9.5,11.57-6.09,21.35-14.87,28.85-25.6,7.15,10.62,16.94,19.39,28.59,25.52,11.65,6.12,25.18,9.59,39.83,9.59,22.47,0,42.43-9.16,56.76-23.95,14.34-14.78,23.06-35.19,23.06-57.66h0Z"/>
  </g>
</svg>