<?xml version="1.0" encoding="UTF-8"?>
<svg id="Layer_2" data-name="Layer 2" xmlns="http://www.w3.org/2000/svg" viewBox="0 0 371.87 196.94">
  <defs>
    <style>
      .cls-1 {
        fill: #3364af;
      }
    </style>
  </defs>
  <g id="Sponsor_logos" data-name="Sponsor logos">
    <g>
      <path class="cls-1" d="M191.96,169.16c-22.99,0-41.63-18.62-41.63-41.62s18.64-41.59,41.63-41.59,41.61,18.62,41.61,41.59-18.63,41.62-41.61,41.62m-122.59,0c-22.99,0-41.64-18.62-41.64-41.61s18.66-41.6,41.64-41.6,41.6,18.62,41.6,41.59-18.62,41.62-41.6,41.62M191.96,58.17c-26.55,0-49.65,14.93-61.29,36.86-11.64-21.93-34.73-36.86-61.3-36.86-15.6,0-30.01,5.16-41.64,13.88V13.6C27.59,6.05,21.43,0,13.85,0S.17,6.05,0,13.6v115.1H.02c.61,37.79,31.41,68.24,69.35,68.24,26.57,0,49.66-14.95,61.3-36.85,11.64,21.9,34.74,36.85,61.29,36.85,38.3,0,69.38-31.06,69.38-69.39s-31.07-69.37-69.38-69.37"/>
      <path class="cls-1" d="M368.99,173.71l-37.71-46.26,37.76-46.35c4.77-6.11,3.4-14.65-3.19-19.19-6.6-4.57-15.86-3.4-20.96,2.53h0s-32.48,39.8-32.48,39.8l-32.46-39.81h0c-5.05-5.92-14.37-7.1-20.95-2.52-6.58,4.54-7.95,13.07-3.16,19.19h-.01l37.69,46.35-37.69,46.26h.01c-4.8,6.13-3.42,14.64,3.16,19.2,6.58,4.56,15.89,3.4,20.95-2.55l32.46-39.76,32.44,39.76c5.11,5.94,14.37,7.1,20.96,2.55,6.59-4.55,7.97-13.07,3.18-19.2"/>
    </g>
  </g>
</svg>