<?xml version="1.0" encoding="UTF-8"?>
<svg id="Layer_2" data-name="Layer 2" xmlns="http://www.w3.org/2000/svg" viewBox="0 0 720 138.89">
  <defs>
    <style>
      .cls-1 {
        fill: #fff;
      }

      .cls-2 {
        fill: #cc092f;
      }
    </style>
  </defs>
  <g id="Sponsor_logos" data-name="Sponsor logos">
    <g>
      <g>
        <path d="M123.91,106.42h3.65s11.63,17.42,11.63,17.42l11.63-17.42h3.65s0,31.92,0,31.92h-3.6s0-25.86,0-25.86l-11.63,17.1h-.18s-11.63-17.06-11.63-17.06v25.81s-3.51,0-3.51,0v-31.92Z"/>
        <path d="M175.16,106.19h3.37s14.55,32.15,14.55,32.15h-3.88s-3.74-8.44-3.74-8.44h-17.37s-3.78,8.44-3.78,8.44h-3.69s14.55-32.15,14.55-32.15Zm8.89,20.43l-7.25-16.23-7.3,16.23h14.55Z"/>
        <path d="M199.55,106.42h3.6s0,31.92,0,31.92h-3.6s0-31.92,0-31.92Z"/>
        <path d="M212.37,106.42h3.37s20.11,25.58,20.11,25.58v-25.58s3.51,0,3.51,0v31.92s-2.87,0-2.87,0l-20.61-26.18v26.18s-3.51,0-3.51,0v-31.92Z"/>
        <path d="M248.25,106.42h22.94s0,3.33,0,3.33h-19.34s0,11.4,0,11.4h17.28s0,3.28,0,3.28h-17.28s0,13.91,0,13.91h-3.6s0-31.92,0-31.92Z"/>
        <path d="M278.03,106.42h13.73c3.92,0,7.07,1.19,9.07,3.19,1.55,1.55,2.46,3.78,2.46,6.29v.09c0,5.29-3.65,8.39-8.66,9.3l9.8,13.04h-4.42s-9.26-12.4-9.26-12.4h-9.12s0,12.4,0,12.4h-3.6s0-31.92,0-31.92Zm13.41,16.28c4.79,0,8.21-2.46,8.21-6.57v-.09c0-3.92-3.01-6.29-8.16-6.29h-9.85s0,12.95,0,12.95h9.8Z"/>
        <path d="M322.67,106.19h3.37s14.55,32.15,14.55,32.15h-3.88s-3.74-8.44-3.74-8.44h-17.37s-3.78,8.44-3.78,8.44h-3.69s14.55-32.15,14.55-32.15Zm8.89,20.43l-7.25-16.23-7.3,16.23h14.55Z"/>
        <path d="M346.75,106.42h3.65s11.63,17.42,11.63,17.42l11.63-17.42h3.65s0,31.92,0,31.92h-3.6s0-25.86,0-25.86l-11.63,17.1h-.18s-11.63-17.06-11.63-17.06v25.81s-3.51,0-3.51,0v-31.92Z"/>
        <path d="M386.19,106.42h23.07s0,3.28,0,3.28h-19.47s0,10.9,0,10.9h17.42s0,3.28,0,3.28h-17.42s0,11.17,0,11.17h19.7s0,3.28,0,3.28h-23.3s0-31.92,0-31.92Z"/>
        <path d="M428.05,133.69l2.23-2.65c3.33,3.01,6.52,4.51,10.94,4.51,4.29,0,7.11-2.28,7.11-5.43v-.09c0-2.96-1.6-4.65-8.3-6.07-7.34-1.6-10.72-3.97-10.72-9.21v-.09c0-5.02,4.42-8.71,10.49-8.71,4.65,0,7.98,1.32,11.22,3.92l-2.1,2.78c-2.96-2.42-5.93-3.47-9.21-3.47-4.15,0-6.79,2.28-6.79,5.15v.09c0,3.01,1.64,4.7,8.66,6.2,7.11,1.55,10.4,4.15,10.4,9.03v.09c0,5.47-4.56,9.03-10.9,9.03-5.06,0-9.21-1.69-13.04-5.11Z"/>
        <path d="M457.78,122.47v-.09c0-8.8,6.61-16.51,16.32-16.51,9.71,0,16.23,7.62,16.23,16.42v.09c0,8.8-6.61,16.51-16.33,16.51-9.71,0-16.23-7.62-16.23-16.42Zm28.82,0v-.09c0-7.25-5.29-13.18-12.59-13.18-7.3,0-12.5,5.84-12.5,13.09v.09c0,7.25,5.29,13.18,12.59,13.18,7.3,0,12.5-5.84,12.5-13.09Z"/>
        <path d="M497.82,106.42h22.94s0,3.33,0,3.33h-19.34s0,11.4,0,11.4h17.28s0,3.28,0,3.28h-17.28s0,13.91,0,13.91h-3.6s0-31.92,0-31.92Z"/>
        <path d="M536.03,109.75h-10.72s0-3.33,0-3.33h25.08s0,3.33,0,3.33h-10.72s0,28.59,0,28.59h-3.65s0-28.59,0-28.59Z"/>
        <path d="M554.54,106.42h3.92s9.12,26.59,9.12,26.59l8.76-26.68h2.96s8.76,26.68,8.76,26.68l9.12-26.59h3.78s-11.4,32.15-11.4,32.15h-3.06s-8.76-25.9-8.76-25.9l-8.8,25.9h-3.01s-11.4-32.15-11.4-32.15Z"/>
        <path d="M615.05,106.19h3.37s14.55,32.15,14.55,32.15h-3.88s-3.74-8.44-3.74-8.44h-17.37s-3.78,8.44-3.78,8.44h-3.69s14.55-32.15,14.55-32.15Zm8.89,20.43l-7.25-16.23-7.3,16.23h14.55Z"/>
        <path d="M639.13,106.42h13.73c3.92,0,7.07,1.19,9.07,3.19,1.55,1.55,2.46,3.78,2.46,6.29v.09c0,5.29-3.65,8.39-8.66,9.3l9.8,13.04h-4.42s-9.26-12.4-9.26-12.4h-9.12s0,12.4,0,12.4h-3.6s0-31.92,0-31.92Zm13.41,16.28c4.79,0,8.21-2.46,8.21-6.57v-.09c0-3.92-3.01-6.29-8.16-6.29h-9.85s0,12.95,0,12.95h9.8Z"/>
        <path d="M671.96,106.42h23.07s0,3.28,0,3.28h-19.47s0,10.9,0,10.9h17.42s0,3.28,0,3.28h-17.42s0,11.17,0,11.17h19.7s0,3.28,0,3.28h-23.3s0-31.92,0-31.92Z"/>
      </g>
      <g id="logo">
        <path d="M712.79,13.57c-3.98,0-7.21,3.23-7.21,7.21,0,3.98,3.23,7.21,7.21,7.21,3.98,0,7.21-3.23,7.21-7.21s-3.23-7.21-7.21-7.21m0,13c-3.19,0-5.79-2.6-5.79-5.79,0-3.2,2.6-5.79,5.79-5.79,3.2,0,5.79,2.6,5.79,5.79,0,3.19-2.6,5.79-5.79,5.79m2.97-7.04c-.02-1.27-.9-2.19-2.32-2.17l-3.19,.04,.09,6.82,1.45-.02-.03-2.42h1.06s1.37,2.39,1.37,2.39l1.66-.02-1.57-2.58c.73-.18,1.48-.84,1.47-2.04m-2.49,.95l-1.52,.02-.02-1.84,1.52-.02c.58,0,1.03,.33,1.03,.91,0,.57-.43,.93-1.01,.93m-129.11-6.8c-19.14,0-34.67,15.52-34.67,34.67,0,19.15,15.52,34.67,34.67,34.67,19.15,0,34.67-15.52,34.67-34.67,0-19.14-15.52-34.67-34.67-34.67m0,55.74c-11.64,0-21.08-9.44-21.08-21.08,0-11.64,9.44-21.07,21.08-21.07,11.64,0,21.08,9.43,21.08,21.07,0,11.64-9.44,21.08-21.08,21.08M165.17,47.14c6.21-1.28,11.34-6.8,11.34-15.08,0-8.78-6.41-16.76-18.92-16.76h-34.6s0,65.75,0,65.75h35.68c12.52,0,19.12-7.89,19.12-17.75,0-8.28-5.62-15.08-12.62-16.17m-28.19-19.81h17.55c4.73,0,7.69,3.06,7.69,7.2,0,4.14-2.95,7.1-7.69,7.1h-17.55s0-14.29,0-14.29Zm18.04,41.6h-18.04s0-15.28,0-15.28h18.04c5.52,0,8.48,3.55,8.48,7.69,0,4.73-3.15,7.59-8.48,7.59m87.9-32.43c0-12.22-8.38-21.19-22.08-21.19h-30.76s0,65.75,0,65.75h14s0-23.36,0-23.36h10.25s12.91,23.36,12.91,23.36h16.07s-14.79-25.04-14.79-25.04c7.1-1.68,14.39-7.89,14.39-19.52m-24.15,8.87h-14.69s0-17.74,0-17.74h14.69c5.62,0,9.86,3.35,9.86,8.87,0,5.52-4.24,8.87-9.86,8.87M350.81,15.3l-25.43,65.75h15.97s4.14-11.14,4.14-11.14h28.19s4.04,11.14,4.04,11.14h15.97s-25.33-65.75-25.33-65.75h-17.55Zm-1.48,42.29l10.25-28.29,10.25,28.29h-20.51ZM431.72,15.3h-25.93s0,65.75,0,65.75h25.93c20.6,0,34.9-13.01,34.9-32.82,0-19.82-14.29-32.93-34.9-32.93m0,53.43h-11.93s0-41.11,0-41.11h11.93c13.51,0,20.6,8.97,20.6,20.61,0,11.14-7.59,20.5-20.6,20.5M678.68,15.29l-17.24,27.88-17.24-27.88h-15.48s0,65.76,0,65.76h14s0-42.98,0-42.98l15.07,22.92c1.73,2.62,5.56,2.62,7.29,0l15.07-22.92v42.98s14,0,14,0V15.29s-15.48,0-15.48,0Zm-391.38-1.61c-19.15,0-34.67,15.52-34.67,34.67,0,19.15,15.52,34.67,34.67,34.67,19.14,0,34.67-15.52,34.67-34.67,0-19.14-15.52-34.67-34.67-34.67m0,55.74c-11.64,0-21.08-9.44-21.08-21.08s9.44-21.07,21.08-21.07c11.64,0,21.08,9.43,21.08,21.07,0,11.64-9.44,21.08-21.08,21.08m242.31-10.87c-3.59,6.48-10.5,10.88-18.44,10.88-11.64,0-21.08-9.43-21.08-21.08,0-11.64,9.44-21.07,21.08-21.07,7.87,0,14.73,4.32,18.34,10.72l9.83-9.83c-6.29-8.76-16.56-14.48-28.17-14.48-19.15,0-34.67,15.52-34.67,34.67,0,19.15,15.52,34.67,34.67,34.67,11.68,0,22-5.78,28.28-14.63l-9.84-9.84Z"/>
        <path class="cls-2" d="M48.82,0c26.97,0,48.82,21.86,48.82,48.82,0,5.15-.8,10.11-2.28,14.77-1.14-.56-2.3-1.09-3.52-1.57-5.58-2.22-10.7-1.48-15.82,1.63,0,0-1.87,1.14-2.43,1.49-2.39,1.5-4.64,2.92-6.8,2.92s-4.1-.55-4.96-4.55c-1.34-6.23-4.62-21.55-6.04-29.14-.84-4.46-1.3-6.87-1.78-8.5-.84-2.87-2.38-4.43-4.57-4.68,0,0-.34-.05-.62-.05s-.65,.05-.65,.05c-2.17,.26-3.7,1.82-4.54,4.68-.48,1.63-.94,4.03-1.78,8.5-1.43,7.59-4.7,22.9-6.04,29.14-.86,4-2.89,4.55-4.96,4.55-2.16,0-4.42-1.42-6.8-2.92-.56-.35-2.43-1.49-2.43-1.49-5.12-3.11-10.24-3.85-15.82-1.63-1.22,.49-2.38,1.02-3.52,1.57C.8,58.93,0,53.97,0,48.82,0,21.86,21.86,0,48.82,0m34.07,69.07c-1.84,.62-3.48,1.71-5.11,2.73-3.07,1.93-6.56,4.13-11,4.13-6.57,0-11.19-3.93-12.66-10.77-1.14-5.3-5.31-25.31-5.31-25.31-1.63,8.17-4.16,20.01-5.3,25.31-1.47,6.84-6.09,10.77-12.66,10.77-4.43,0-7.92-2.19-11-4.13-1.63-1.02-3.27-2.12-5.11-2.73-1.89-.64-3.85-.6-5.75-.04-1.34,.39-2.62,.95-3.87,1.57,8,16.03,24.19,27.05,43.33,27.05,19.14,0,36.06-11.02,44.06-27.05-1.25-.62-2.53-1.17-3.87-1.57-1.91-.56-3.86-.59-5.76,.04"/>
        <path class="cls-1" d="M91.84,62.01c-5.58-2.22-10.7-1.48-15.82,1.63,0,0-1.87,1.14-2.43,1.49-2.39,1.5-4.64,2.92-6.8,2.92-2.07,0-4.1-.55-4.96-4.55-1.34-6.23-4.61-21.55-6.04-29.14-.84-4.46-1.3-6.87-1.78-8.5-.84-2.87-2.38-4.43-4.57-4.68,0,0-.34-.05-.62-.05s-.65,.05-.65,.05c-2.17,.26-3.7,1.82-4.53,4.68-.48,1.63-.94,4.03-1.78,8.5-1.43,7.59-4.7,22.9-6.04,29.14-.86,4-2.89,4.55-4.96,4.55-2.16,0-4.42-1.42-6.8-2.92-.56-.35-2.43-1.49-2.43-1.49-5.12-3.11-10.23-3.85-15.82-1.63-1.21,.48-2.35,1.01-3.49,1.55,.77,2.42,1.73,4.76,2.85,7,1.23-.6,2.5-1.16,3.82-1.55,1.91-.56,3.86-.59,5.76,.04,1.84,.62,3.48,1.71,5.11,2.74,3.08,1.93,6.56,4.12,11,4.12,6.57,0,11.19-3.92,12.66-10.77,1.14-5.3,3.67-17.15,5.3-25.32,0,0,4.17,20.01,5.31,25.32,1.48,6.84,6.09,10.77,12.66,10.77,4.44,0,7.92-2.19,11-4.12,1.63-1.03,3.27-2.12,5.11-2.74,1.89-.64,3.85-.6,5.76-.04,1.32,.39,2.58,.94,3.82,1.55,1.13-2.24,2.08-4.58,2.86-7-1.13-.55-2.28-1.07-3.49-1.55"/>
      </g>
    </g>
  </g>
</svg>