<?xml version="1.0" encoding="UTF-8"?>
<svg id="Layer_2" data-name="Layer 2" xmlns="http://www.w3.org/2000/svg" viewBox="0 0 650.51 273.4">
  <g id="Sponsor_logos" data-name="Sponsor logos">
    <g id="Ebene_2" data-name="Ebene 2">
      <g id="Ebene_1-2" data-name="Ebene 1-2">
        <path d="M51.3,122.73c7.36,0,13.49,1.87,18.33,5.61,4.91,3.68,7.94,8.85,9.23,15.43h22.97c-2.19-12.26-7.7-21.96-16.52-29.11-8.82-7.14-19.98-10.71-33.49-10.71-10.15,0-19.01,2.13-26.85,6.45-7.84,4.32-13.87,10.52-18.32,18.59-4.45,8.07-6.64,17.55-6.64,28.45s2.19,20.52,6.58,28.72c4.45,8.06,10.52,14.26,18.33,18.58,7.81,4.32,16.71,6.46,26.85,6.46,13.49,0,24.72-3.62,33.56-10.85,8.84-7.23,14.39-16.97,16.52-29.23h-22.97c-1.29,6.58-4.4,11.74-9.23,15.55-4.84,3.81-10.97,5.68-18.33,5.68-8.33,0-15.29-2.97-20.83-8.91-5.54-5.94-8.33-14.65-8.33-26.01s2.78-20,8.33-25.88c5.56-5.87,12.51-8.84,20.83-8.84Z"/>
        <path d="M356.78,110.4c-8.13-4.32-17.23-6.45-27.3-6.45s-19.16,2.13-27.23,6.45c-7.95,4.28-14.52,10.73-18.96,18.59-4.64,8.13-6.91,17.55-6.91,28.45s2.33,20.39,6.91,28.52c4.58,8.13,10.91,14.39,18.98,18.72,8.07,4.33,17.1,6.45,27.23,6.45s19.23-2.13,27.3-6.45c7.98-4.24,14.56-10.7,18.97-18.59,4.59-8.07,6.84-17.62,6.84-28.64-.06-10.9-2.34-20.39-6.84-28.45-4.41-7.9-11-14.36-18.99-18.6Zm-.71,66.4c-2.84,5.16-6.58,9.04-11.29,11.55-9.61,5.08-21.11,5.08-30.73,0-4.69-2.51-8.45-6.38-11.29-11.55-2.84-5.16-4.26-11.62-4.26-19.36s1.42-14,4.26-19.23c2.84-5.23,6.57-9.16,11.3-11.67,9.61-5.07,21.11-5.07,30.73,0,4.64,2.52,8.45,6.39,11.29,11.68,2.84,5.29,4.26,11.68,4.26,19.23,0,7.67-1.43,14.12-4.27,19.35h0Z"/>
        <path d="M541.72,65.82c-2.6-2.39-5.94-3.61-10.13-3.61s-7.54,1.23-10.06,3.61c-2.52,2.39-3.81,5.42-3.81,9.1s1.29,6.65,3.81,8.91c2.52,2.25,5.87,3.42,10.06,3.42s7.55-1.17,10.13-3.42c2.58-2.25,3.87-5.21,3.87-8.91,.1-3.45-1.32-6.77-3.87-9.1Z"/>
        <rect x="520.74" y="105.31" width="21.62" height="104.54"/>
        <path d="M457.83,103.31c-2.54,0-5.09,.2-7.6,.6C436.92,49.47,398.39,0,353.75,0c-36.6,0-25.49,31.94-77.7,68.79-6.2,4.37-12.2,8.21-17.94,11.72v-11.08h-21.62v23.92c-13.36,8.06-24.22,15.66-31.36,26.77-3.44-3.93-7.55-7.22-12.13-9.72-7.81-4.32-16.71-6.45-26.84-6.45s-19.04,2.13-26.85,6.45c-7.76,4.31-14.13,10.76-18.33,18.59-4.46,8.07-6.65,17.55-6.65,28.46s2.19,20.52,6.65,28.64c4.46,8.12,10.52,14.33,18.33,18.59,7.81,4.26,16.71,6.45,26.85,6.45s19.03-2.13,26.84-6.45c3.56-1.97,6.84-4.4,9.76-7.24,16.96,44.94,63.13,75.96,122.66,75.96,74.08,0,129.57-60.2,129.77-129.67-.01-7.35-.54-14.69-1.56-21.97,6.41,.73,11.6,3.18,15.62,7.45,4.84,5.15,7.25,12.44,7.25,21.81v58.76h21.68v-61.05c0-14.58-3.68-25.81-11.04-33.68-7.38-7.87-17.19-11.74-29.31-11.74Zm-312.84,25.68c5.68-5.16,12.78-7.81,21.23-7.81s15.55,2.6,21.23,7.81c4.69,4.26,7.61,10.2,8.77,17.82h-60.01c1.16-7.61,4.06-13.56,8.77-17.82Zm49.99,44.4c-1.48,5.09-3.87,9.23-7.23,12.33-5.55,5.16-13.43,7.81-21.62,7.81s-16.07-2.6-21.62-7.81c-5.55-5.21-8.52-13.16-8.91-23.88h60.15c.12,3.87,.43,7.72,.94,11.56h-1.72Zm218.45,56.72c-23.17,23.74-54.47,36.84-88.01,36.84s-66.27-11.23-88.92-31.55c-13.21-11.77-23.16-26.76-28.89-43.5,1.37-1.85,2.61-3.78,3.72-5.8,2.17-3.99,3.8-8.26,4.83-12.69h-12.98c-.56-3.83-.9-7.69-1.04-11.56h15.68c.13-1.48,.13-2.9,.13-4.38,0-10.84-2.19-20.39-6.65-28.46-.64-1.16-1.32-2.28-2.03-3.36,5.89-10.3,15.18-17.38,27.22-24.83v108.95h21.62V88.01c6.83-4.09,14.12-8.66,21.68-13.99,25.42-17.94,36.58-34.97,44.72-47.36,9.03-13.94,13.16-20.26,29.23-20.26,17.19,0,34.53,8.26,50.14,23.96,18.65,18.7,33.02,46.35,40.06,75.09-9.85,3.1-18.1,9.91-23.02,18.99v-18.9h-21.68v104.26h21.68v-55.75c0-10.65,2.6-18.72,7.81-24.27,4.69-4.98,10.81-7.71,18.37-8.18,1.08,7.3,1.63,14.68,1.64,22.06-.02,32.33-12.69,63.36-35.3,86.47Z"/>
        <path d="M612.25,148.68c-16.97-4.84-26.33-7.75-26.33-16.46s9.89-12.84,18.52-12.84c11.3,0,22.46,5.29,22.46,16.39h21.1c0-18.59-16.84-32.53-42.78-32.65-20.72,0-41.04,10.26-41.04,29.29s15.55,23.16,38.33,30.07c18.13,5.49,27.29,7.36,27.29,18.33,0,9.42-12.33,12.77-23.62,12.77s-24.52-6.13-25.04-17.74h-22.13c0,21.87,21.87,34.97,47.75,34.97,21.35,0,43.74-9.74,43.74-29.23,0-20.97-16.06-26.59-38.26-32.91Z"/>
      </g>
    </g>
  </g>
</svg>