<?xml version="1.0" encoding="UTF-8"?>
<svg id="Layer_2" data-name="Layer 2" xmlns="http://www.w3.org/2000/svg" viewBox="0 0 400 210.87">
  <defs>
    <style>
      .cls-1 {
        fill: #0096d6;
      }
    </style>
  </defs>
  <g id="Sponsor_logos" data-name="Sponsor logos">
    <g id="b">
      <g>
        <path class="cls-1" d="M113.75,139.81h17.75v69.33h-17.75v-69.33Zm158.65,19.99c-.54-.54-6.11-3.87-15-3.87-11.1,0-19.41,7.77-19.41,18.32s7.77,18.32,19.41,18.32c8.32,0,13.88-3.33,15-3.87v18.87c-2.21,.54-8.32,2.21-16.09,2.21-19.99,0-37.19-13.3-37.19-36.07,0-20.53,15.54-36.07,37.19-36.07,8.32,0,14.42,2.21,16.09,2.21v19.99h0v-.03Zm-183.02,0c-.54-.54-6.11-3.87-15-3.87-11.1,0-19.41,7.77-19.41,18.32s7.77,18.32,19.41,18.32c8.32,0,13.88-3.33,15-3.87v18.87c-2.21,.54-8.32,2.21-16.09,2.21-19.41,0-37.19-13.3-37.19-36.07,0-20.53,15.54-36.07,37.19-36.07,8.32,0,14.42,2.21,16.09,2.21v19.99h0v-.03Zm274.61,14.97c0,19.99-15.54,36.07-36.62,36.07s-36.62-16.09-36.62-36.07,15.54-36.07,36.62-36.07,36.62,16.09,36.62,36.07Zm-36.62-18.32c-10.55,0-18.32,8.32-18.32,18.32s7.77,18.32,18.32,18.32,18.32-8.32,18.32-18.32-7.77-18.32-18.32-18.32Zm-129.81-.54s-7.77-2.21-13.88-2.21c-7.23,0-11.1,2.21-11.1,5.56,0,4.44,4.99,5.56,7.77,6.65l4.99,1.66c11.1,3.87,16.66,11.64,16.66,19.99,0,17.2-15.54,23.31-28.85,23.31-9.43,0-18.32-1.66-18.87-1.66v-16.09c1.66,.54,8.89,2.78,16.66,2.78,8.89,0,12.76-2.78,12.76-6.65,0-3.33-3.33-5.56-7.77-6.65-1.12-.54-2.78-1.12-3.87-1.12-9.98-3.33-17.75-8.89-17.75-20.53,0-12.76,9.98-21.65,26.09-21.65,8.32,0,16.66,2.21,17.2,2.21v14.42h-.06v-.03Z"/>
        <path id="c" class="cls-1" d="M17.78,65.49c.06-4.85-3.78-8.83-8.66-8.89h-.23C4.04,56.55,.06,60.39,0,65.26v18.55c-.06,4.85,3.78,8.83,8.66,8.89h.23c4.85,.06,8.83-3.78,8.89-8.66v-18.55Z"/>
        <path class="cls-1" d="M65.46,41.63c.06-4.85-3.78-8.83-8.66-8.89h-.23c-4.99,0-8.32,3.87-8.32,8.89v42.18c-.06,4.85,3.78,8.83,8.66,8.89h.23c4.85,.06,8.83-3.78,8.89-8.66V41.63h-.57ZM113.75,8.89C113.81,4.04,109.96,.06,105.09,0h-.23c-4.85-.06-8.83,3.78-8.89,8.66V100.96c-.06,4.85,3.78,8.83,8.66,8.89h.23c4.85,.06,8.83-3.78,8.89-8.66V8.89Zm47.71,32.75c.06-4.85-3.78-8.83-8.66-8.89h-.23c-4.85-.06-8.83,3.78-8.89,8.66v42.41c-.06,4.85,3.78,8.83,8.66,8.89h.23c4.85,.06,8.83-3.78,8.89-8.66V41.63Z"/>
        <path id="d" class="cls-1" d="M209.15,65.49c.06-4.85-3.78-8.83-8.66-8.89h-.23c-4.85-.06-8.83,3.78-8.89,8.66v18.55c-.06,4.85,3.78,8.83,8.66,8.89h.23c4.85,.06,8.83-3.78,8.89-8.66v-18.55Z"/>
        <path class="cls-1" d="M256.86,41.63c0-4.9-3.99-8.89-8.89-8.89s-8.89,3.99-8.89,8.89v42.18c0,4.9,3.99,8.89,8.89,8.89s8.89-3.99,8.89-8.89V41.63Zm47.71-32.75C304.57,3.99,300.59,0,295.68,0s-8.89,3.99-8.89,8.89V100.96c0,4.9,3.99,8.89,8.89,8.89s8.89-3.99,8.89-8.89V8.89Zm47.71,32.75c0-4.9-3.99-8.89-8.89-8.89s-8.89,3.99-8.89,8.89v42.18c0,4.9,3.99,8.89,8.89,8.89s8.89-3.99,8.89-8.89V41.63Zm47.71,23.86c0-4.9-3.99-8.89-8.89-8.89s-8.89,3.99-8.89,8.89v18.32c0,4.9,3.99,8.89,8.89,8.89s8.89-3.99,8.89-8.89v-18.32Z"/>
      </g>
    </g>
  </g>
</svg>