<?xml version="1.0" encoding="UTF-8"?>
<svg id="Layer_2" data-name="Layer 2" xmlns="http://www.w3.org/2000/svg" xmlns:xlink="http://www.w3.org/1999/xlink" viewBox="0 0 696 90.34">
  <defs>
    <style>
      .cls-1 {
        fill: none;
      }

      .cls-2 {
        clip-path: url(#clippath);
      }

      .cls-3 {
        fill: #007bc3;
      }

      .cls-4 {
        clip-path: url(#clippath-1);
      }
    </style>
    <clipPath id="clippath">
      <rect class="cls-1" width="696" height="90.34"/>
    </clipPath>
    <clipPath id="clippath-1">
      <rect class="cls-1" width="696" height="90.34"/>
    </clipPath>
  </defs>
  <g id="Sponsor_logos" data-name="Sponsor logos">
    <g class="cls-2">
      <g class="cls-4">
        <path class="cls-3" d="M694.63,58.1c0-8.37-4.65-12.09-13.95-13.95-9.3-1.86-14.87-2.79-14.87-9.3,0-4.65,3.72-7.44,10.23-7.44,8.37,0,11.16,3.72,11.16,8.37l.93,.93h3.72l.93-.93c0-9.3-7.44-13.02-16.74-13.02-10.23,0-15.81,5.58-15.81,12.09,0,7.44,5.58,11.16,14.87,13.02,9.3,1.86,13.95,2.79,13.95,10.23,0,4.65-2.79,8.37-12.09,8.37-8.37,0-12.09-4.65-12.09-10.23l-.93-.93h-3.72l-.93,.93c0,8.37,6.5,14.88,17.66,14.88,12.09,0,17.67-5.58,17.67-13.01m-39.98-9.3l.92-.93v-2.79c0-13.02-7.44-22.32-20.45-22.32s-20.45,9.3-20.45,22.32v1.86c0,13.01,6.51,24.17,21.39,24.17,13.01,0,17.66-8.37,18.6-13.95l-.93-.93h-3.72l-.93,.93c-1.86,5.58-5.58,9.3-13.01,9.3-12.09,0-15.81-11.16-15.81-16.73l.93-.93h33.47Zm-5.58-4.65h-27.89l-.93-.93c0-6.51,3.72-15.81,14.88-15.81s14.88,9.3,14.88,15.81l-.93,.93Zm-40.91,25.1V24.62l-.93-.93h-3.72l-.93,.93v44.63l.93,.93h3.72l.93-.93Zm0-53.93v-5.58l-.93-.93h-3.72l-.93,.93v5.58l.93,.93h3.72l.93-.93Zm-35.33,51.14c-9.3,0-14.88-6.51-14.88-19.52s5.58-19.52,14.88-19.52,14.87,6.51,14.87,19.52-5.58,19.52-14.87,19.52m14.87-2.79c0,12.09-2.79,21.39-13.95,21.39-8.37,0-11.16-3.72-12.09-8.37l-.93-.93h-3.72l-.93,.93c.93,7.44,6.51,13.02,17.66,13.02,12.09,0,19.52-7.44,19.52-26.03V24.62l-.93-.93h-2.79l-.93,.93-.93,5.59h-.93c-1.86-3.72-6.51-7.44-14.88-7.44-13.02,0-19.52,10.23-19.52,24.18s6.51,24.17,19.52,24.17c8.37,0,13.02-3.71,14.88-7.44h.93Zm-60.43-36.26c9.3,0,15.8,7.44,15.8,19.52s-6.5,19.52-15.8,19.52-15.81-7.44-15.81-19.52,6.51-19.52,15.81-19.52m0,43.7c12.09,0,21.38-8.37,21.38-24.17s-9.3-24.18-21.38-24.18-21.39,8.37-21.39,24.18,9.3,24.17,21.39,24.17m-27.9-1.86V6.03l-.93-.93h-3.72l-.93,.93v63.23l.93,.93h3.72l.93-.93Zm-33.47-41.84c9.3,0,15.8,7.44,15.8,19.52s-6.51,19.52-15.8,19.52-15.81-7.44-15.81-19.52,6.51-19.52,15.81-19.52m0,43.7c12.09,0,21.39-8.37,21.39-24.17s-9.3-24.18-21.39-24.18-21.39,8.37-21.39,24.18,9.3,24.17,21.39,24.17m-26.96-1.86v-27.9c0-12.09-6.51-18.6-16.73-18.6-6.51,0-12.09,2.79-14.88,7.44h-.93l-.92-5.59-.93-.93h-2.79l-.93,.93v44.63l.93,.93h3.72l.92-.93v-25.1c0-10.23,4.65-16.73,14.88-16.73,7.44,0,12.09,4.65,12.09,13.94v27.9l.93,.93h3.72l.93-.93Zm-47.42,0v-27.9c0-12.09-6.51-18.6-16.73-18.6-6.51,0-12.09,2.79-14.88,7.44h-.93V6.03l-.93-.93h-3.72l-.93,.93v63.23l.93,.93h3.72l.93-.93v-25.1c0-10.23,4.65-16.73,14.88-16.73,7.44,0,12.09,4.65,12.09,13.94v27.9l.93,.93h3.72l.92-.93Zm-79.96-22.31c0-13.02,6.51-19.52,15.81-19.52s13.01,5.58,13.94,11.15l.93,.93h3.72l.93-.93c-.93-9.3-8.37-15.81-19.52-15.81-12.09,0-21.38,7.44-21.38,24.18s9.3,24.17,21.38,24.17c11.15,0,18.6-6.51,19.52-15.8l-.93-.93h-3.72l-.93,.93c-.93,5.58-4.65,11.16-13.94,11.16s-15.81-6.51-15.81-19.52m-10.23,1.86l.93-.93v-2.79c0-13.02-7.44-22.32-20.46-22.32s-20.45,9.3-20.45,22.32v1.86c0,13.01,6.51,24.17,21.39,24.17,13.01,0,17.66-8.37,18.6-13.95l-.93-.93h-3.71l-.93,.93c-1.86,5.58-5.58,9.3-13.01,9.3-12.09,0-15.81-11.16-15.81-16.73l.93-.93h33.47Zm-5.58-4.65h-27.89l-.93-.93c0-6.51,3.72-15.81,14.87-15.81s14.88,9.3,14.88,15.81l-.93,.93Zm-25.05-35.33v-2.79l-.93-.93h-48.35l-.93,.93v2.79l.93,.93h20.45l.93,.93v58.58l.93,.93h3.72l.93-.93V10.67l.93-.93h20.46l.93-.93Z"/>
        <path class="cls-3" d="M220.5,57.25v12.93h-41.99V5.1h14.78V57.25h27.2ZM26.38,70.18c15.14,0,27.87-10.34,31.5-24.35l36.82,28.77,36.8-28.75v24.33h41.99v-12.93h-27.2V5.1h-14.78V29.43l-35.3,27.58-7.89-6.17,16.9-13.2,18.4-14.37-10.5-8.21-35.3,27.58-7.89-6.17L105.21,8.89,94.7,.68,57.88,29.45c-3.63-14.01-16.36-24.35-31.5-24.35H0V70.18H26.38Zm-11.6-12.93V18.03h11.6c9.81,0,17.76,8.78,17.76,19.61s-7.95,19.61-17.76,19.61H14.78Z"/>
      </g>
    </g>
  </g>
</svg>