<?xml version="1.0" encoding="UTF-8"?>
<svg id="Layer_2" data-name="Layer 2" xmlns="http://www.w3.org/2000/svg" viewBox="0 0 641.85 120">
  <defs>
    <style>
      .cls-1 {
        fill: #86bc25;
      }
    </style>
  </defs>
  <g id="Sponsor_logos" data-name="Sponsor logos">
    <g>
      <path class="cls-1" d="M607.84,102.99c0-9.39,7.63-17.01,17.01-17.01s17.01,7.62,17.01,17.01-7.61,17.01-17.01,17.01-17.01-7.62-17.01-17.01"/>
      <path d="M97.51,56.82c0,19.63-5.28,34.76-15.83,45.37-10.55,10.63-25.39,15.93-44.51,15.93H0V.49H39.76c18.44,0,32.67,4.83,42.71,14.48,10.03,9.66,15.04,23.6,15.04,41.84m-32.21,1.12c0-10.78-2.08-18.77-6.25-23.98-4.17-5.2-10.48-7.8-18.98-7.8h-9.03V92.05h6.91c9.43,0,16.34-2.8,20.74-8.41,4.4-5.6,6.6-14.17,6.6-25.71"/>
      <rect x="200.44" width="29.57" height="118.12"/>
      <path d="M327.05,74.06c0,14.35-3.76,25.54-11.3,33.57-7.53,8.03-18.09,12.04-31.65,12.04s-23.36-4.1-31.04-12.31c-7.69-8.21-11.54-19.3-11.54-33.29s3.77-25.42,11.31-33.35c7.54-7.92,18.11-11.89,31.73-11.89,8.41,0,15.85,1.83,22.3,5.5,6.45,3.67,11.43,8.92,14.94,15.76,3.5,6.83,5.25,14.83,5.25,23.97m-55.5,0c0,7.53,.98,13.28,2.95,17.23,1.97,3.95,5.27,5.92,9.9,5.92s7.83-1.97,9.72-5.92c1.89-3.95,2.83-9.69,2.83-17.23s-.96-13.14-2.87-16.96c-1.92-3.82-5.19-5.74-9.83-5.74s-7.79,1.9-9.75,5.7c-1.97,3.79-2.95,9.46-2.95,17"/>
      <rect x="338.79" y="30.38" width="29.57" height="87.74"/>
      <rect x="338.79" width="29.57" height="19.77"/>
      <path d="M428.28,95.74c3.99,0,8.75-1.01,14.3-3.02v22.08c-3.99,1.75-7.78,3-11.38,3.75-3.6,.75-7.83,1.13-12.67,1.13-9.93,0-17.09-2.49-21.48-7.48-4.38-4.98-6.57-12.63-6.57-22.95V53.07h-10.36V30.39h10.36V7.98l29.8-5.19V30.39h18.87v22.69h-18.87v34.15c0,5.68,2.67,8.52,8.01,8.52"/>
      <path d="M496.72,95.74c3.99,0,8.75-1.01,14.3-3.02v22.08c-3.98,1.75-7.78,3-11.38,3.75-3.61,.75-7.82,1.13-12.67,1.13-9.93,0-17.09-2.49-21.47-7.48-4.39-4.98-6.58-12.63-6.58-22.95V53.07h-10.36V30.39h10.36V7.64l29.8-4.84V30.39h18.88v22.69h-18.88v34.15c0,5.68,2.67,8.52,8.01,8.52"/>
      <path d="M590.04,39.17c-7.03-6.89-17-10.34-29.9-10.34-13.56,0-24,3.96-31.31,11.89-7.31,7.92-10.96,19.29-10.96,34.11s3.95,25.42,11.83,33.18c7.89,7.77,18.97,11.66,33.24,11.66,6.85,0,12.75-.47,17.69-1.4,4.91-.92,9.67-2.58,14.28-4.99l-4.54-19.77c-3.35,1.37-6.55,2.42-9.55,3.12-4.35,1.01-9.13,1.51-14.32,1.51-5.7,0-10.2-1.39-13.5-4.18-3.3-2.79-5.05-6.64-5.26-11.54h52.86v-13.47c0-12.96-3.52-22.89-10.55-29.78m-41.7,24.2c.4-4.8,1.78-8.32,4.12-10.57,2.35-2.24,5.26-3.37,8.73-3.37,3.79,0,6.8,1.26,9.04,3.8,2.25,2.53,3.42,5.91,3.51,10.14h-25.4Z"/>
      <path d="M178.46,39.17c-7.03-6.89-17-10.34-29.91-10.34-13.56,0-24,3.96-31.3,11.89-7.31,7.92-10.97,19.29-10.97,34.11s3.94,25.42,11.84,33.18c7.89,7.77,18.97,11.66,33.24,11.66,6.85,0,12.75-.47,17.69-1.4,4.91-.92,9.67-2.58,14.28-4.99l-4.54-19.77c-3.35,1.37-6.54,2.42-9.55,3.12-4.36,1.01-9.13,1.51-14.33,1.51-5.7,0-10.2-1.39-13.5-4.18-3.3-2.79-5.05-6.64-5.26-11.54h52.86v-13.47c0-12.96-3.51-22.89-10.55-29.78m-41.71,24.2c.4-4.8,1.78-8.32,4.12-10.57,2.35-2.24,5.25-3.37,8.74-3.37,3.78,0,6.79,1.26,9.03,3.8,2.24,2.53,3.42,5.91,3.52,10.14h-25.41Z"/>
    </g>
  </g>
</svg>