<?xml version="1.0" encoding="UTF-8"?>
<svg id="Layer_2" data-name="Layer 2" xmlns="http://www.w3.org/2000/svg" viewBox="0 0 820 246">
  <defs>
    <style>
      .cls-1 {
        fill: #f15a2b;
      }

      .cls-2 {
        fill: #fdba13;
      }
    </style>
  </defs>
  <g id="Sponsor_logos" data-name="Sponsor logos">
    <g>
      <path class="cls-1" d="M545.12,135.62c-.03,1.73-.16,3.46-.05,5.18,.05,.71,.43,1.67,.98,2.01,1.87,1.18,3.88,2.13,5.84,3.17,.38,.3,.73,.65,1.15,.89,8.95,5.18,17.9,10.35,26.86,15.5,.46,.27,.99,.42,1.56,.66,0-11.46,0-22.73,0-34,.04-1.39,.2-2.79,.09-4.16-.07-.79-.38-1.88-.96-2.26-2.04-1.33-4.25-2.41-6.4-3.59-8.35-4.88-16.7-9.76-25.06-14.63-1.24-.72-2.53-1.38-4.01-2.19v33.43h0Zm35.55-60.64c-9.5,5.6-18.99,11.19-28.88,17.02,10.15,5.76,19.73,11.2,29.31,16.64,1.68,1.01,3.33,2.09,5.06,3,.55,.28,1.48,.34,2,.06,1.73-.92,3.35-2.04,5.01-3.09,.38-.15,.79-.25,1.14-.46,9.16-5.36,18.32-10.73,27.47-16.11,.31-.18,.54-.47,.98-.87-10.07-5.63-19.9-11.13-29.73-16.62q-6.1-3.58-12.03,.08c-.13,.08-.22,.23-.33,.35h0Zm48.05,60.93v-33.93c-9.82,5.84-19.27,11.46-28.71,17.08q-6.58,2.87-6.47,9.73c0,.24,.03,.49,.04,.73v34.08c9.94-5.87,19.52-11.52,29.09-17.18q6.17-3.11,6.08-10.02c0-.16-.02-.33-.03-.49h0Zm12.35-17.18c0,8.5-.07,17.01,.03,25.51,.05,3.83-1.33,6.49-4.76,8.45-14.64,8.4-29.21,16.9-43.73,25.51-3.37,2-6.24,2-9.63,.02-14.99-8.78-30.07-17.41-45.15-26.03-3.34-1.91-4.85-4.47-4.81-8.43,.13-16.68,.07-33.35-.01-50.03-.02-3.14,1.17-5.34,3.83-6.92,15.43-9.17,30.84-18.36,46.25-27.56,2.59-1.55,5.05-1.47,7.68,.01,15.26,8.63,30.54,17.23,45.85,25.76,3.11,1.73,4.34,4.26,4.33,7.69-.05,8.67-.02,17.34-.02,26h.12Z"/>
      <path class="cls-2" d="M545.12,135.62c1.1-.52,2.25-.96,3.3-1.57,8.6-4.99,17.18-10.02,25.77-15.04,2.14,1.18,4.35,2.26,6.4,3.59,.58,.38,.89,1.47,.96,2.26,.12,1.38-.05,2.77-.09,4.16-2.22,1.21-4.46,2.38-6.64,3.64-7.65,4.42-15.29,8.86-22.93,13.3-1.96-1.04-3.97-1.99-5.84-3.17-.55-.34-.93-1.31-.98-2.01-.11-1.72,.02-3.45,.05-5.18h0Z"/>
      <path class="cls-2" d="M600,119.04c9.57,5.62,19.14,11.24,28.71,16.86,.01,.16,.02,.33,.03,.49q.09,6.91-6.08,10.02c-9.7-5.63-19.4-11.27-29.09-16.9-.01-.24-.04-.49-.04-.73q-.11-6.86,6.47-9.73h0Z"/>
      <path class="cls-2" d="M581.1,108.63c-.14-11.22-.29-22.44-.43-33.66,.11-.12,.2-.27,.33-.35q5.93-3.66,12.03-.08c.05,11.35,.09,22.7,.14,34.05-1.66,1.04-3.28,2.17-5.01,3.09-.52,.28-1.45,.22-2-.06-1.73-.9-3.38-1.98-5.06-3h0Z"/>
      <path d="M91.35,143.96c19.13,0,29.07-11.38,29.07-26.31s-9.93-26.19-29.07-26.19h-6.99v52.5h6.99Zm-26.62-69.02h27.47c30.17,0,48.08,18.6,48.08,42.83s-17.91,42.83-48.08,42.83h-27.47V74.94h0Z"/>
      <polygon points="182.62 74.94 203.06 74.94 203.06 160.6 182.62 160.6 182.62 74.94 182.62 74.94"/>
      <polygon points="248.18 160.07 284.8 91.55 253.36 91.55 253.36 74.94 315.01 74.94 315.01 75.93 277.52 144.44 313.53 144.44 313.53 161.05 248.18 161.05 248.18 160.07 248.18 160.07"/>
      <polygon points="355.85 160.07 392.47 91.55 361.03 91.55 361.03 74.94 422.67 74.94 422.67 75.93 385.19 144.44 421.2 144.44 421.2 161.05 355.85 161.05 355.85 160.07 355.85 160.07"/>
      <polygon points="467.76 74.94 487.72 74.94 487.72 160.6 467.76 160.6 467.76 74.94 467.76 74.94"/>
      <polygon points="703.54 115.82 703.54 160.76 684.79 160.76 684.79 74.94 686.34 74.94 739.02 123.33 739.02 77.33 757.77 77.33 757.77 163.14 756.22 163.14 703.54 115.82 703.54 115.82"/>
    </g>
  </g>
</svg>