<?xml version="1.0" encoding="UTF-8"?>
<svg id="Layer_2" data-name="Layer 2" xmlns="http://www.w3.org/2000/svg" xmlns:xlink="http://www.w3.org/1999/xlink" viewBox="0 0 659.75 113.14">
  <defs>
    <style>
      .cls-1 {
        fill: none;
      }

      .cls-2 {
        clip-path: url(#clippath);
      }

      .cls-3 {
        fill: #4d1da3;
      }
    </style>
    <clipPath id="clippath">
      <rect class="cls-1" x=".08" y="0" width="659.67" height="113.14"/>
    </clipPath>
  </defs>
  <g id="Sponsor_logos" data-name="Sponsor logos">
    <g>
      <g class="cls-2">
        <path class="cls-3" d="M268.92,50.91c-17.87-4.3-33.28-7.92-33.28-23.99,0-11.77,13.14-21.05,29.19-21.05,19.46,0,29.65,11.31,29.87,11.54,1.13,1.13,2.96,1.13,4.08,0,1.04-1.04,1.13-2.7,.21-3.85C298.55,12.9,287.01,0,264.83,0,245.6,0,229.76,11.99,229.76,26.92c0,20.82,20.14,25.34,37.76,29.6,17.42,4.08,33.94,7.7,33.94,24.67,0,14.48-16.51,26.25-36.66,26.25-21.27,0-37.56-14.48-37.76-14.71-1.18-1.06-3.01-.96-4.07,.22-1.06,1.18-.96,3,.22,4.07,.68,.68,18.11,16.08,41.63,16.08s42.55-14.03,42.55-31.91c.03-21.45-20.34-26.21-38.45-30.28h0Z"/>
        <path class="cls-3" d="M54.98,0C24.71,0,.46,25.16,0,56.52c.46,30.94,24.71,56.14,54.95,56.57,18.93,0,35.78-10.62,45.49-25.64,.87-1.28,.56-3.02-.69-3.92-1.61-.69-3.24-.69-4.15,.69-8.59,14.25-23.97,23.01-40.61,23.13-27.25-.22-49.19-23.09-49.19-50.8v-.69l.19-5.54C9.05,25.16,29.78,6,54.98,6s45.49,19.16,48.49,44.33H33.28c-1.53,.09-2.7,1.41-2.6,2.94,.09,1.4,1.2,2.52,2.6,2.6H106.44c1.45-.18,2.59-1.32,2.77-2.77v-.93C107.14,22.84,83.82,0,54.98,0h0Z"/>
        <path class="cls-3" d="M484.23,0c-25.18,.08-45.53,20.54-45.48,45.72V110.13c.03,1.65,1.35,2.98,3,3.01,1.51,.03,2.76-1.17,2.79-2.68,0-.11,0-.22-.01-.33V45.72c-.02-21.93,17.75-39.73,39.68-39.74,21.93-.02,39.73,17.75,39.74,39.68V110.13c-.15,1.5,.94,2.85,2.45,3,.11,.01,.22,.02,.33,.01,1.65-.03,2.97-1.36,3-3.01V45.72C529.78,20.53,509.41,.07,484.23,0h0Z"/>
        <path class="cls-3" d="M165.97,0c-25.18,.07-45.55,20.53-45.49,45.72V110.13c.03,1.65,1.35,2.98,3,3.01,1.5,.03,2.75-1.16,2.78-2.67,0-.11,0-.23-.01-.34V45.72c-.35-21.94,17.15-40,39.08-40.36,21.94-.35,40,17.15,40.35,39.08,0,.42,0,.85,0,1.27V110.13c-.16,1.5,.93,2.84,2.42,3,.11,.01,.23,.02,.34,.01,1.65-.03,2.97-1.36,3-3.01V45.72C211.51,20.54,191.15,.07,165.97,0h0Z"/>
      </g>
      <path class="cls-3" d="M372.05,107.36c-26.09,0-47.56-22.86-47.56-50.8s21.43-50.8,47.56-50.8,47.8,22.63,47.8,50.76-21.7,50.84-47.8,50.84h0ZM372.05,0C342.45,0,318.71,25.39,318.71,56.56s23.78,56.57,53.34,56.57,53.56-25.64,53.56-56.62S401.61,0,372.05,0h0Z"/>
      <g>
        <path class="cls-3" d="M595.22,107.36c-26.09,0-47.56-22.86-47.56-50.8s21.43-50.8,47.56-50.8,47.8,22.63,47.8,50.76-21.7,50.84-47.8,50.84h0ZM595.22,0C565.68,0,541.9,25.39,541.9,56.56s23.78,56.57,53.33,56.57,53.57-25.64,53.57-56.62S624.78,0,595.22,0h0Z"/>
        <path class="cls-3" d="M653.48,5.86c0-.15-.03-.3-.07-.45-.05-.15-.14-.28-.26-.38-.15-.11-.31-.2-.49-.24-.26-.07-.52-.1-.79-.09h-1.02v2.45h.97c.46,.05,.92-.08,1.29-.36,.25-.25,.38-.58,.37-.93h0Zm2.21,5.66s.01,.1,0,.14c0,0,0,.07-.11,.09-.1,.01-.2,.01-.3,0h-1c-.1,0-.21-.03-.31-.07-.07-.03-.14-.07-.19-.13-.05-.06-.09-.14-.11-.21l-.44-1.43c-.11-.43-.33-.81-.64-1.12-.33-.23-.74-.34-1.14-.32h-.56v2.97c0,.1-.04,.2-.13,.26-.22,.07-.45,.1-.68,.08-.24,.02-.49-.01-.73-.08-.1-.05-.16-.15-.15-.26V4.09c-.01-.22,.05-.44,.18-.61,.15-.16,.37-.24,.59-.22h2.09c.49,0,.97,.04,1.45,.15,.37,.09,.72,.25,1.02,.48,.26,.2,.46,.46,.58,.76,.14,.32,.2,.67,.19,1.02,.04,.56-.15,1.11-.53,1.52-.4,.37-.88,.63-1.41,.75,.33,.12,.64,.31,.9,.55,.33,.33,.58,.73,.74,1.17l.52,1.36c.07,.16,.13,.33,.16,.51h0Zm2.57-3.75c.01-.9-.14-1.79-.46-2.62-.28-.76-.72-1.45-1.28-2.04-.54-.56-1.2-1-1.92-1.3-.76-.3-1.58-.45-2.4-.45-.86,0-1.72,.16-2.51,.5-.73,.32-1.39,.78-1.94,1.36-.54,.57-.96,1.24-1.24,1.97-.29,.76-.44,1.57-.44,2.39-.01,.9,.14,1.79,.46,2.62,.28,.76,.72,1.45,1.28,2.04,.54,.56,1.2,1,1.92,1.3,.76,.3,1.58,.46,2.4,.45,.87,.01,1.73-.16,2.53-.5,.73-.32,1.39-.78,1.94-1.36,.53-.57,.95-1.24,1.24-1.97,.29-.76,.43-1.57,.43-2.39h0Zm1.48-.11c0,1.03-.19,2.04-.59,2.99-.38,.9-.93,1.73-1.61,2.43-.7,.68-1.52,1.22-2.42,1.59-.95,.39-1.96,.59-2.99,.58-1.05,.02-2.09-.17-3.06-.56-.89-.36-1.7-.9-2.38-1.59-.67-.69-1.2-1.5-1.55-2.4-.39-.97-.58-2.01-.56-3.06-.01-2.03,.78-3.98,2.2-5.42,2.26-2.15,5.56-2.78,8.45-1.62,1.83,.73,3.27,2.19,3.97,4.03,.37,.97,.55,2,.54,3.03h0Z"/>
      </g>
    </g>
  </g>
</svg>