<?xml version="1.0" encoding="UTF-8"?>
<svg id="Layer_2" data-name="Layer 2" xmlns="http://www.w3.org/2000/svg" xmlns:xlink="http://www.w3.org/1999/xlink" viewBox="0 0 800 136.97">
  <defs>
    <style>
      .cls-1 {
        fill: none;
      }

      .cls-2 {
        clip-path: url(#clippath);
      }

      .cls-3 {
        fill: #2761d4;
      }

      .cls-4 {
        clip-path: url(#clippath-1);
      }

      .cls-5 {
        clip-path: url(#clippath-2);
      }
    </style>
    <clipPath id="clippath">
      <rect class="cls-1" width="800" height="136.97"/>
    </clipPath>
    <clipPath id="clippath-1">
      <rect class="cls-1" x="-11.56" y="-339.73" width="829.22" height="829.22"/>
    </clipPath>
    <clipPath id="clippath-2">
      <rect class="cls-1" x="-11.56" y="-339.73" width="829.22" height="829.22"/>
    </clipPath>
  </defs>
  <g id="Sponsor_logos" data-name="Sponsor logos">
    <g class="cls-2">
      <g class="cls-4">
        <g class="cls-5">
          <path class="cls-3" d="M93.61,37.13v27.42h-28.61v-27.42h-14.79V106.18h14.79v-28.9h28.61v28.9h14.79V37.13h-14.79Zm109.2,56.21V37.13h-14.81v56.42c0,8.19,4.45,12.63,12.63,12.63h33.64v-12.83h-31.46Zm31.46-56.21v12.72h20.41v56.32h14.79V49.86h20.42v-12.72h-55.62Zm84.54,52.17c-1.1,4.25-4.74,6.41-10.26,6.41-6.9,0-11.34-4.34-12.33-11.34h35.69c.11-1.08,.21-2.56,.21-4.44,0-11.34-7-24.26-24.56-24.26s-24.56,12.92-24.56,25.54,8.68,25.74,25.54,25.74c12.23,0,21.7-6.9,23.67-17.66h-13.41Zm-11.24-23.57c6.6,0,10.45,4.44,10.85,9.97h-22c1.19-6.92,4.93-9.97,11.15-9.97m68.65,21.9c-.99,4.44-5.03,7.49-10.05,7.49-7.49,0-11.93-5.73-11.93-13.81s4.33-13.9,11.74-13.9c5.03,0,9.26,3.25,10.05,7.68h13.81c-.89-11.53-11.25-19.42-24.26-19.42-15.4,0-25.64,11.14-25.64,25.64s10.25,25.64,25.64,25.64c12.92,0,23.17-8.29,24.65-19.33h-14.01Zm50.69-31.95c-6.9,0-12.33,2.86-15.19,7.68v-26.23h-13.71V106.18h13.71v-27.23c0-6.41,4.25-11.04,10.26-11.04s9.67,4.34,9.67,10.35v27.91h13.71v-30.97c0-11.45-7.3-19.53-18.45-19.53m-309.23,15.25c0-23.23,15.02-35.24,32.14-35.24,16.12,0,27.93,9.84,29.67,24.71h-14.37c-.92-7.19-7.23-12.01-15.29-12.01-10.35,0-18.31,7.78-18.31,22.54s7.97,22.45,18.31,22.45c8.24,0,14.56-4.82,15.66-11.91h13.73c-1.19,14.77-13,24.71-29.39,24.71-17.4,0-32.14-12.01-32.14-35.25m358.12,35.24h-2.68V35.68h2.68V106.17Zm27.76-50.08h2.66c.4,4.16,3.14,6.85,7.83,6.85,4.21,0,7.31-1.54,7.31-5.26,0-7.64-16.81-3.76-16.81-13.41,0-4.31,3.82-7.2,9.38-7.2s9.22,3.17,9.7,8.03h-2.66c-.36-3.36-3.02-5.58-7.04-5.58s-6.64,1.82-6.64,4.75c0,7.48,16.89,3.17,16.89,13.41,0,4.99-4.41,7.72-10.13,7.72-6.2,0-10.09-3.68-10.49-9.3m41.37,8.98h-2.5v-4.15c-1.03,3.01-3.58,4.47-6.76,4.47-4.53,0-7.47-3.21-7.47-8.15v-12.11h2.5v11.79c0,3.72,2.11,6.17,5.33,6.17,3.74,0,6.4-3.01,6.4-7.24v-10.72h2.5v19.94Zm15.18-20.26c-2.94,0-5.72,1.58-6.95,3.91v-3.6h-2.5v28.01h2.5v-11.68c1.23,2.33,4.01,3.92,6.95,3.92,6.36,0,9.74-4.6,9.74-10.29s-3.38-10.28-9.74-10.28m-.08,18.28c-4.33,0-7.15-3.16-7.15-7.99s2.82-7.99,7.15-7.99,7.15,3.16,7.15,7.99-2.82,7.99-7.15,7.99m28.81-4.31c-.67,2.73-2.9,4.31-6.44,4.31-4.01,0-7.12-3.29-7.28-7.75h16.02c.03-.28,.07-.96,.07-1.31,0-5.5-3.7-9.22-9.18-9.22s-9.46,4.07-9.46,10.13,4.13,10.45,9.82,10.45c4.96,0,8.42-2.62,9.06-6.61h-2.62Zm-6.79-11.68c3.81,0,6.28,2.26,6.55,5.94h-13.32c.64-3.72,3.11-5.94,6.76-5.94m16.61-1.98h6.8v2.29h-7.39v17.65h-2.5v-16.86c0-1.98,1.11-3.09,3.1-3.09m7.67,9.97c0-5.22,3.22-10.29,9.58-10.29,4.25,0,8.23,2.45,8.9,6.84h-2.46c-.4-2.61-3.14-4.55-6.44-4.55-4.77,0-6.95,3.68-6.95,7.99s2.23,7.99,6.95,7.99c3.3,0,5.64-1.58,6.44-4.19h2.38c-.71,4-3.78,6.49-8.82,6.49-6.36,0-9.58-5.06-9.58-10.29m22.5-18.04h2.5v12.23c1.03-3.01,3.58-4.47,6.76-4.47,4.53,0,7.47,3.21,7.47,8.15v12.11h-2.5v-11.79c0-3.72-2.11-6.17-5.33-6.17-3.74,0-6.4,3.01-6.4,7.24v10.72h-2.5v-28.01Zm29.53,7.76c-4.17,0-7.99,2.72-8.39,6.56h2.51c.16-2.33,2.78-4.27,5.88-4.27,3.74,0,5.88,2.1,5.88,5.11,0,.59-.36,.95-1.23,.95h-4.85c-4.96,0-8.14,2.41-8.14,6.21s2.74,6.02,7.04,6.02c3.21,0,6-1.55,7.19-3.96v3.64h2.51v-12.86c0-4.43-3.14-7.4-8.39-7.4m5.88,11.03c0,4.59-2.58,7.24-7,7.24-2.78,0-4.56-1.47-4.56-3.72,0-2.53,2.14-4.11,5.48-4.11h6.08v.59Zm10.97-10.72h6.8v2.29h-7.39v17.65h-2.5v-16.86c0-1.98,1.11-3.09,3.1-3.09m24.32,0v3.2c-1.27-2.06-4.17-3.51-6.95-3.51-6.35,0-9.73,4.59-9.73,10.28s3.38,10.29,9.73,10.29c3.18,0,6.05-1.35,6.95-3.29v8.74h-14.11v2.3h13.51c1.98,0,3.1-1.11,3.1-3.09v-24.92h-2.51Zm-6.87,17.96c-4.33,0-7.15-3.16-7.15-7.99s2.82-7.99,7.15-7.99,7.15,3.16,7.15,7.99-2.82,7.99-7.15,7.99m14.82-26.04h3.02v4.04h-3.02v-4.04Zm.28,8.07h2.5v19.94h-2.5v-19.94Zm8.23,0h2.5v4.15c1.03-3.01,3.58-4.47,6.76-4.47,4.53,0,7.47,3.21,7.47,8.15v12.11h-2.5v-11.79c0-3.72-2.11-6.17-5.33-6.17-3.74,0-6.4,3.01-6.4,7.24v10.72h-2.5v-19.94Zm37.4,0v3.2c-1.27-2.06-4.17-3.51-6.95-3.51-6.36,0-9.73,4.59-9.73,10.28s3.37,10.29,9.73,10.29c3.18,0,6.04-1.35,6.95-3.29v8.74h-14.11v2.3h13.52c1.98,0,3.1-1.11,3.1-3.09v-24.92h-2.51Zm-6.88,17.96c-4.33,0-7.15-3.16-7.15-7.99s2.82-7.99,7.15-7.99,7.15,3.16,7.15,7.99-2.81,7.99-7.15,7.99m-230.49,15.21h-10.22v27.7h2.66v-11.63h7.55c5.36,0,8.7-3.24,8.7-8.03s-3.34-8.04-8.7-8.04m.07,13.62h-7.63v-11.16h7.63c4.26,0,5.8,2.65,5.8,5.58s-1.55,5.58-5.8,5.58m15.03-5.86h6.8v2.29h-7.39v17.65h-2.5v-16.86c0-1.98,1.11-3.09,3.1-3.09m17.77-.31c-5.89,0-10.09,4.27-10.09,10.28s4.21,10.29,10.09,10.29,10.09-4.28,10.09-10.29-4.21-10.28-10.09-10.28m0,18.28c-4.45,0-7.47-3.32-7.47-7.99s3.01-7.99,7.47-7.99,7.47,3.32,7.47,7.99-3.02,7.99-7.47,7.99m29.53-17.96v3.2c-1.27-2.06-4.17-3.51-6.95-3.51-6.36,0-9.74,4.59-9.74,10.28s3.38,10.29,9.74,10.29c3.17,0,6.04-1.35,6.95-3.29v8.74h-14.11v2.3h13.51c1.99,0,3.1-1.11,3.1-3.09v-24.92h-2.5Zm-6.88,17.96c-4.33,0-7.15-3.16-7.15-7.99s2.82-7.99,7.15-7.99,7.15,3.16,7.15,7.99-2.82,7.99-7.15,7.99m18.12-17.97h6.8v2.29h-7.39v17.65h-2.5v-16.86c0-1.98,1.11-3.09,3.1-3.09m23.92,13.65c-.67,2.73-2.9,4.31-6.44,4.31-4.01,0-7.11-3.29-7.27-7.75h16.01c.04-.28,.08-.96,.08-1.31,0-5.5-3.7-9.22-9.19-9.22s-9.45,4.07-9.45,10.13,4.13,10.45,9.81,10.45c4.97,0,8.43-2.61,9.06-6.61h-2.62Zm-6.8-11.68c3.81,0,6.28,2.26,6.56,5.94h-13.32c.63-3.72,3.1-5.94,6.75-5.94m11.97,11.67h2.5c.28,2.81,2.15,4.31,5.33,4.31,2.78,0,4.61-1.58,4.61-3.4,0-6.53-11.96-.75-11.96-9.42,0-3.32,2.78-5.46,7.07-5.46s7.15,2.37,7.39,5.98h-2.5c-.32-2.81-3.14-3.68-5.05-3.68-2.58,0-4.29,1.27-4.29,3.17,0,5.78,11.96,.24,11.96,9.42,0,3.48-2.9,5.7-7.23,5.7s-7.51-2.49-7.83-6.61m17.72,0h2.5c.28,2.81,2.15,4.31,5.33,4.31,2.78,0,4.61-1.58,4.61-3.4,0-6.53-11.96-.75-11.96-9.42,0-3.32,2.78-5.46,7.07-5.46s7.15,2.37,7.39,5.98h-2.5c-.32-2.81-3.14-3.68-5.05-3.68-2.58,0-4.29,1.27-4.29,3.17,0,5.78,11.96,.24,11.96,9.42,0,3.48-2.9,5.7-7.23,5.7s-7.51-2.49-7.83-6.61m17.45-19.95h6.53v1.32h-2.56v7.02h-1.42v-7.02h-2.56v-1.32Zm7.95,0h1.75l2.56,6.26,2.56-6.26h1.75v8.34h-1.39v-5.72l-2.32,5.72h-1.24l-2.29-5.72v5.72h-1.39v-8.34Z"/>
        </g>
      </g>
    </g>
  </g>
</svg>