<?xml version="1.0" encoding="UTF-8"?>
<svg id="Layer_2" data-name="Layer 2" xmlns="http://www.w3.org/2000/svg" xmlns:xlink="http://www.w3.org/1999/xlink" viewBox="0 0 721.52 138.61">
  <defs>
    <style>
      .cls-1 {
        fill: none;
      }

      .cls-2 {
        clip-path: url(#clippath);
      }

      .cls-3 {
        fill: #2f75bb;
      }
    </style>
    <clipPath id="clippath">
      <rect class="cls-1" y="0" width="721.43" height="138.61"/>
    </clipPath>
  </defs>
  <g id="Sponsor_logos" data-name="Sponsor logos">
    <g class="cls-2">
      <path class="cls-3" d="M708.21,10.35h2.1c1.41,0,2.63-.19,2.63-1.91,0-1.51-1.38-1.76-2.6-1.76h-2.13v3.67h0Zm-2.38-5.49h4.77c3.07,0,4.74,1.07,4.74,3.76,0,2.2-1.26,3.26-3.36,3.45l3.45,5.62h-2.45l-3.33-5.52h-1.44v5.52h-2.38V4.86h0Zm12.92,6.46c0-5.3-3.83-9.13-8.57-9.13s-8.57,3.83-8.57,9.13,3.83,9.13,8.57,9.13,8.57-3.83,8.57-9.13h0Zm-19.89,0C698.87,5.08,703.95,0,710.19,0s11.33,5.08,11.33,11.32-5.08,11.33-11.33,11.33-11.32-5.08-11.32-11.33h0Z"/>
      <path class="cls-3" d="M672.86,36.64c0-3.02,2.91-4.26,7.63-4.26s7.63,1.13,7.63,4.26c0,3.89-4.71,4.33-7.67,4.33-4.71,0-7.6-1.24-7.6-4.33h0Zm19.77,0c0-5.92-4.54-10.04-12.17-10.04-5.51,0-12.1,2.74-12.1,10.04s5.84,10.11,12.1,10.11,12.17-3.13,12.17-10.11h0Zm-19.73,27.8v-4.21c0-2.61,1.65-3.56,2.98-3.56,1.48,0,3.04,1,3.04,3.56v4.21h-6.02Zm10.07,0v-4.02l9.32-3.61v-6.12l-10.42,4.37c-.93-2.54-3.41-4.09-6.09-4.09-4.35,0-7.08,2.84-7.08,8.52v10.46h23.59v-5.5h-9.32Zm-5.5,10.75c-5.68,.62-9.12,3.64-9.12,9.56,0,7.08,5.6,10.59,12.14,10.59s12.14-3.4,12.14-10.42c0-5.43-3.19-9.15-8.59-9.73l-.34,5.36c2.27,.31,4.43,1.51,4.43,4.09,0,4.16-4.16,4.54-7.39,4.54-2.86,0-7.94-.38-7.94-4.26,0-3.03,2.43-3.92,5.05-3.95l-.37-5.78h0Zm14.82,25.45h-23.59v5.5h23.59v-5.5h0Zm0,23.73v3.78l-19.22,5.68v.13h19.22v4.64h-23.59v-8.63l14.13-4.13-14.13-4.33v-8.63h23.59v5.5h-19.22v.14l19.22,5.85h0Zm-485.76,14.23H117.25c-6.91-25.65-21.55-79.81-21.55-79.81h-.26v79.81H58.94V28.32h63.36c6.67,25.43,20.64,77.77,20.64,77.77h.26V28.32h36.58v16.76c-8.91,9.41-14.33,21.45-14.33,36.55,0,21.67,12.18,48.56,41.07,56.98h0ZM640.3,28.32v110.28h-38.24V52.23h-.54l-21.97,86.38h-35.3l-21.88-86.38h-.59v86.38h-66.87l-6.67-23.76h-35.94l-6.66,23.76h-63.9s-2.16-16.25-2.72-20.32c-1.89-13.66-6.02-16.97-14.18-16.97h-11.16v37.29h-65.46c18.86-4.29,35.89-12.85,45.65-18.75l-13.74-52.13-36.55,9.64,7.79,29.56c-2.29,1.62-9.9,4.3-15.11,4.3-17.45,0-25.75-17.49-25.75-32.56,0-24.25,24.72-33.59,46.51-33.59,5.07,0,11.61,.44,12.53,.54l-4.56-17.3h76.18c30.49,0,42.31,14.45,42.31,29.83,0,23.29-22.21,27.67-26.44,28.41-.07,.01-.07,.65,0,.66,8.87,1.69,15.4,5.98,19.55,13.47-.14-.25,23.33-66.31,25.46-72.37h58.56l24.7,69.17h.33V28.32h62.98s14.59,60.39,14.67,60.39c4.76-20.11,14.3-60.39,14.3-60.39h62.73Zm-640.3,0H42.43s-.06,73.29-.06,110.28c-.26,0-42.1,.02-42.37,0V28.32H0Zm429.92,23.68l-11.85,36.36h24.45l-11.97-36.36h-.62Zm-116.26,24.45h12.61c10.31,0,14.61-5.32,14.61-11.85,0-8.33-7.1-11.61-14.61-11.61-4.46,0-12.61,0-12.61,0v23.45h0Z"/>
    </g>
  </g>
</svg>