<?xml version="1.0" encoding="UTF-8"?>
<svg id="Layer_2" data-name="Layer 2" xmlns="http://www.w3.org/2000/svg" viewBox="0 0 389.78 151.15">
  <defs>
    <style>
      .cls-1 {
        fill: #074c9f;
      }

      .cls-2 {
        fill: #1aaee3;
      }
    </style>
  </defs>
  <g id="Sponsor_logos" data-name="Sponsor logos">
    <g>
      <rect class="cls-2" y="2.06" width="28.26" height="28.26"/>
      <path class="cls-1" d="M27.52,149.09V47.44H.74v101.65H27.52Zm177.5,1.03v-24.92c-3.95-.02-7.2-.23-9.69-.63-2.76-.44-4.88-1.37-6.29-2.79-1.41-1.41-2.35-3.45-2.79-6.08-.42-2.51-.63-5.81-.63-9.82v-35.56h19.39v-22.9h-19.39V7.84h-26.78V106.1c0,8.29,.72,15.34,2.14,20.96,1.41,5.55,3.8,10.09,7.13,13.48,3.33,3.4,7.72,5.86,13.07,7.33,5.4,1.49,12.27,2.24,20.43,2.24h3.38Zm153.47-1.03V0h-26.78V149.09h26.78ZM133.03,57.45c-7.42-8.01-17.9-12.07-31.15-12.07-6.39,0-12.3,1.32-17.57,3.91-5.27,2.6-9.74,6.25-13.3,10.84l-1.46,1.88v-1.69s-.01-12.88-.01-12.88h-26.41v101.65h26.62v-54.15l.02,3.76c0-.62,0-1.23,.03-1.83,.27-9.5,2.65-16.58,7.06-21.08,4.71-4.79,10.43-7.22,16.99-7.22,7.73,0,13.62,2.37,17.53,7.03,3.83,4.58,5.78,11.13,5.82,19.48h0s0,.21,0,.21c0,.02,0,.03,0,.05h0v53.76h27.03v-57.7c0-14.49-3.77-25.9-11.2-33.93Zm184.73,40.61c0-7.28-1.3-14.2-3.87-20.55-2.57-6.34-6.19-11.99-10.78-16.78-4.58-4.78-10.16-8.58-16.56-11.28-6.41-2.7-13.57-4.07-21.27-4.07-7.29,0-14.23,1.4-20.64,4.17-6.42,2.77-12.06,6.57-16.79,11.29-4.73,4.73-8.53,10.37-11.29,16.79-2.76,6.41-4.17,13.35-4.17,20.64s1.33,14.25,3.97,20.65c2.63,6.42,6.33,12.06,10.98,16.78,4.65,4.72,10.37,8.52,16.98,11.28,6.62,2.77,13.95,4.17,21.78,4.17,22.65,0,36.79-10.31,45.22-19.95l-19.27-14.68c-4.06,4.82-13.7,11.36-25.74,11.36-7.55,0-13.77-1.75-18.48-5.2-4.72-3.45-7.97-8.2-9.66-14.11l-.27-.94h79.86v-9.57Zm-79.64-9.33c0-7.44,8.54-20.43,26.96-20.45,18.42,0,26.98,12.98,26.98,20.42l-53.94,.03Z"/>
      <path class="cls-1" d="M388.99,136.28c-.52-1.2-1.23-2.25-2.13-3.14s-1.95-1.61-3.14-2.13c-1.2-.52-2.48-.79-3.85-.79s-2.65,.26-3.85,.79c-1.2,.52-2.25,1.24-3.14,2.13-.9,.9-1.61,1.95-2.13,3.14-.52,1.2-.79,2.48-.79,3.85s.26,2.65,.79,3.85c.52,1.2,1.23,2.25,2.13,3.14,.9,.9,1.95,1.61,3.14,2.13s2.48,.79,3.85,.79,2.65-.26,3.85-.79c1.2-.52,2.25-1.23,3.14-2.13,.9-.9,1.61-1.95,2.13-3.14,.52-1.2,.79-2.48,.79-3.85s-.26-2.65-.79-3.85Zm-1.61,7.02c-.43,1-1.01,1.86-1.75,2.6-.74,.74-1.6,1.32-2.6,1.75-.99,.43-2.05,.64-3.17,.64s-2.18-.21-3.17-.64c-1-.43-1.86-1.01-2.6-1.75-.74-.74-1.32-1.6-1.75-2.6-.43-.99-.64-2.05-.64-3.17s.21-2.18,.64-3.17c.43-.99,1.01-1.86,1.75-2.6,.74-.74,1.6-1.32,2.6-1.75,.99-.43,2.05-.64,3.17-.64s2.18,.21,3.17,.64c.99,.43,1.86,1.01,2.6,1.75,.74,.74,1.32,1.6,1.75,2.6,.43,.99,.64,2.05,.64,3.17s-.21,2.18-.64,3.17Zm-5.65-2.37c.77-.09,1.42-.38,1.93-.88,.51-.5,.77-1.24,.77-2.24,0-1.1-.32-1.95-.97-2.53-.65-.59-1.66-.88-3.03-.88h-4.37v11.33h2.08v-4.64h1.52l2.83,4.64h2.19l-2.93-4.8Zm-1.12-1.64c-.32,.03-.64,.04-.96,.04h-1.52v-3.17h1.52c.32,0,.64,0,.96,.03,.32,.02,.61,.08,.87,.19,.26,.11,.47,.27,.63,.48,.16,.21,.24,.51,.24,.88s-.08,.67-.24,.88c-.16,.21-.37,.37-.63,.48-.26,.11-.55,.17-.87,.2Z"/>
    </g>
  </g>
</svg>