<?xml version="1.0" encoding="UTF-8"?>
<svg id="Layer_2" data-name="Layer 2" xmlns="http://www.w3.org/2000/svg" viewBox="0 0 505.07 201.31">
  <defs>
    <style>
      .cls-1 {
        fill: #003087;
        stroke: rgba(255, 255, 255, 0);
        stroke-miterlimit: 123.79;
        stroke-width: .06px;
      }
    </style>
  </defs>
  <g id="Sponsor_logos" data-name="Sponsor logos">
    <path id="path5037" class="cls-1" d="M393.22,.03V100.4l-1.27,1.06-1.27,1.06-1.22,1.11-1.17,1.11-1.11,1.11-1.11,1.17-1.06,1.17-1.06,1.17V.03h-112.28V91.43h-9.27V.03h-112.23V91.59h-9.27V.03H28.67V104.35L.04,198.95H25.22l12.67-41.9h3.65l20.93,41.9h30.4l-20.27-41.9h45.96l-12.77,41.9h27.46l12.62-41.8h6.08v-.1h61.31l-12.16,41.8h27.77l11.81-41.8h12.46l.3,41.8h23.21l26.75-41.8h17.48l-9.07,41.8h27.31l8.92-41.8h15.76l-.1,2.38,.05,2.43,.1,2.33,.2,2.33,.15,1.11,.15,1.11,.2,1.11,.2,1.11,.25,1.11,.25,1.06,.3,1.06,.3,1.06,.35,1.06,.35,1.01,.41,1.01,.41,.96,.46,1.01,.46,.96,.56,.91,.56,.96,.61,.91,.66,.86,.66,.91,.71,.81,.71,.86,.71,.81,.81,.81,.81,.76,1.01,.86,1.01,.86,1.06,.81,1.11,.76,1.11,.76,1.11,.71,1.17,.56,1.22,.66,1.17,.51,1.22,.51,1.22,.46,1.27,.46,1.27,.41,1.27,.35,1.27,.35,1.27,.3,2.58,.56,2.63,.41,2.58,.35,2.58,.3,2.48,.2,2.43,.1,2.38,.1h2.28l3.09-.05,3.09-.05,3.14-.15,3.14-.15,3.14-.25,3.14-.25,3.14-.3,3.14-.35,3.19-.41,3.19-.46,3.19-.51,3.19-.51,3.19-.56,3.19-.66,3.19-.66,3.24-.76,9.47-37.9h31.16V.03h-111.82ZM39.1,153.2l.15-.56,.35,.56h-.51Zm97.74-56.29l-1.62,5.32-14.95,49.2-.61,1.72h-49.1l-3.8-8.06,52.9-53.56h-34l-41.29,44.18,13.38-44.13h-25.08V3.98h104.17V96.91h0Zm28.98,41.55h0l-.81,.05-.76,.05-.81,.05h-2.94l-.91,.05h-.86l-6.69-.05,3.09-11.3,1.42-5.62,3.55-13.17h2.28l1.11-.05h6.23l3.14,.05,2.89,.1,1.27,.05,1.22,.1,1.17,.15,1.06,.15,.96,.15,.91,.25,.86,.25,.76,.3,.66,.3,.61,.41,.56,.41,.41,.51,.25,.41,.2,.41,.2,.46,.15,.51,.1,.56,.05,.56v1.37l-.05,.76-.05,.76-.15,.86-.15,.86-.46,1.77-.61,2.03-.61,1.67-.66,1.62-.71,1.52-.76,1.42-.35,.66-.35,.66-.41,.66-.46,.56-.46,.56-.46,.51-.56,.51-.56,.46-.61,.41-.61,.46-.66,.35-.71,.41-.71,.35-.76,.3-.76,.3-.81,.25-.86,.3-.91,.2-.96,.2-.96,.2-1.06,.15-1.06,.15-1.11,.1-.96,.56h0Zm75.85,14.74l10.94-38.61,.41,38.61h-11.35Zm16.67-61.81h-26.04l-17.94,61.76h-27.61l1.27-.51,1.27-.51,1.22-.51,1.22-.56,1.17-.56,1.11-.71,1.11-.66,1.06-.71,1.06-.76,1.01-.76,.96-.76,.96-.86,.91-.81,.86-.91,.86-.86,.81-.96,.81-.91,.76-1.01,.71-.96,.71-1.06,.66-1.06,.61-1.06,.61-1.11,.56-1.17,.56-1.17,.46-1.17,.41-1.22,.41-1.27,.3-1.27,.35-1.27,.25-1.37,.25-1.32,.35-2.13,.3-2.03,.2-1.93,.15-1.77,.05-1.77-.05-1.62-.05-1.62-.2-1.52-.2-1.42-.35-1.42-.35-1.32-.56-1.27-.61-1.22-.66-1.22-.76-1.11-.86-1.06-.71-.76-.71-.76-.76-.66-.81-.56-.86-.56-.86-.51-.91-.46-.91-.41-.96-.41-.96-.3-1.01-.3-1.01-.3-1.06-.25-1.06-.2-1.06-.2-1.11-.15-2.28-.3-2.28-.15-2.33-.15-2.38-.05h-30.2V3.98h104.17V91.38h0Zm63.23,61.81h-15.66l23.71-37.04-8.06,37.04Zm58.22-60.04l-.05,21.43-1.32,1.87-1.22,1.93-1.22,1.93-1.11,1.93-1.06,1.93-1.06,1.98-.91,1.93-.91,1.93-.86,1.87-.76,1.93-.76,1.87-.66,1.77-.61,1.77-.56,1.72-.46,1.67-.41,1.67-.25,1.11-.25,1.17-.25,1.11-.2,1.17-.2,1.11-.15,1.11-.15,1.11-.1,1.17h-15.3l13.07-61.61-44.08-.05-39.42,61.66h-2.94V3.98h104.22l-.05,89.17h0Zm60.09,85.22l-2.18,.35-2.23,.3-2.23,.3-2.18,.25-2.18,.2-2.18,.15-2.13,.1h-3.5l-1.37-.05-1.32-.1-1.32-.15-1.27-.2-1.22-.2-1.22-.25-1.17-.3-1.11-.35-1.11-.35-1.06-.46-1.01-.46-1.01-.56-.96-.56-.91-.66-.86-.66-.86-.76-.76-.81-.76-.81-.71-.91-.66-.91-.61-1.01-.56-1.01-.56-1.06-.41-1.11-.35-1.22-.3-1.22-.3-1.27-.2-1.32-.15-1.37-.1-1.42-.05-1.47h48.54l-5.47,21.33h0Zm61.56-25.18h-26.25l4.31-17.23h-52.59l-4.31,17.23h-25.43v-3.55l.3-1.47,.25-1.47,.3-1.57,.3-1.57,.46-1.72,.46-1.72,.56-1.72,.61-1.67,.66-1.67,.71-1.67,.76-1.62,.76-1.62,.86-1.62,.86-1.52,.91-1.57,1.01-1.47,1.01-1.47,1.01-1.42,1.11-1.37,1.17-1.32,1.22-1.27,1.22-1.17,1.32-1.17,1.32-1.11,1.37-1.01,1.47-.96,1.47-.86,1.57-.81,1.62-.76,1.67-.66,1.72-.51,1.77-.41,1.82-.35,1.87-.25,1.93-.15,1.98-.05,1.57,.05,1.57,.1,1.57,.2,1.47,.3,.76,.2,.71,.2,.71,.2,.66,.3,.66,.25,.66,.35,.61,.35,.61,.35,.56,.46,.56,.46,.46,.46,.46,.56,.41,.51,.35,.66,.3,.71,.3,.71,.25,.76,.2,.81,.15,.81,.15,.91,.05,.91v1.98l-.1,1.06h31.36l.46-2.18,.41-2.48,.2-1.32,.1-1.42,.1-1.42v-1.47l-.05-1.52-.15-1.57-.15-.76-.1-.81-.2-.81-.2-.81-.25-.86-.25-.81-.3-.81-.35-.81-.35-.81-.46-.81-.46-.81-.56-.81-.66-.86-.71-.81-.71-.81-.76-.76-.81-.76-.86-.71-.86-.66-.91-.66-.96-.66-.96-.51-1.01-.51-1.06-.51-1.06-.46-1.11-.46-1.17-.41-1.17-.41-1.17-.35-1.27-.3-1.22-.3-1.32-.3-1.32-.25-1.32-.25-1.37-.2-1.42-.15-2.94-.3-2.99-.25-3.14-.1-3.19-.05-2.38,.05-2.48,.05-2.63,.15-2.74,.2-2.84,.3-2.89,.35-2.94,.46-2.99,.66-1.47,.3-1.57,.35-1.47,.41-1.57,.41-1.57,.46-1.57,.51-1.57,.51-1.47,.56-1.57,.66-1.57,.71-1.47,.71-1.57,.76-1.47,.81-1.47,.86-1.47,.86-1.47,.96V3.98h104.32l-.25,149.21h0Z"/>
  </g>
</svg>