<?xml version="1.0" encoding="UTF-8"?>
<svg id="Layer_2" data-name="Layer 2" xmlns="http://www.w3.org/2000/svg" viewBox="0 0 479.99 160">
  <defs>
    <style>
      .cls-1 {
        fill: #fff;
      }

      .cls-2 {
        fill: #e1251b;
      }
    </style>
  </defs>
  <g id="Sponsor_logos" data-name="Sponsor logos">
    <g>
      <rect class="cls-2" x="0" y="0" width="479.99" height="160"/>
      <g>
        <path class="cls-1" d="M209.11,53.93c-7.09,0-15.15,3.28-20.08,9.87h0s0,0,0,0v-8.83s-16.91,0-16.91,0v61.58s16.91,0,16.91,0v-35.04c0-6.31,4.89-13.01,13.94-13.01,7,0,14.24,4.87,14.24,13.01v35.04s16.91,0,16.91,0v-38.18c0-14.16-10.13-24.44-25.01-24.44"/>
        <polygon class="cls-1" points="354.3 54.96 339.01 96.91 323.72 54.96 304.41 54.96 329.75 116.52 348.27 116.52 373.61 54.96 354.3 54.96"/>
        <path class="cls-1" d="M154.13,97.6c-7.12,5.26-11.18,6.52-17.67,6.52-5.84,0-10.41-1.81-13.64-5l43.23-17.93c-.94-6.68-3.48-12.65-7.38-17.19-5.68-6.6-14.09-10.09-24.32-10.09-18.59,0-32.62,13.72-32.62,31.83,0,18.58,14.05,31.83,34.47,31.83,11.44,0,23.14-5.42,28.61-11.76l-10.69-8.22Zm-32.49-24.09c2.88-3.87,7.47-6.13,13.01-6.13,6.1,0,10.72,3.48,13.11,8.62l-29.54,12.25c-.81-6.29,.8-11.21,3.43-14.74Z"/>
        <polygon class="cls-1" points="100.12 101.01 61.69 101.01 61.69 36.54 44.55 36.54 44.55 116.54 100.12 116.54 100.12 101.01"/>
        <path class="cls-1" d="M403.97,117.58c-18.49,0-32.98-13.78-32.98-31.82,0-17.85,14.59-31.83,33.21-31.83,18.49,0,32.98,13.78,32.98,31.83,0,17.84-14.59,31.82-33.21,31.82m0-49.16c-9.44,0-16.3,7.15-16.3,17.34,0,9.72,7.26,17.34,16.53,17.34,9.44,0,16.3-7.35,16.3-17.34,0-9.72-7.26-17.34-16.53-17.34"/>
        <path class="cls-1" d="M273.79,117.58c-18.49,0-32.98-13.78-32.98-31.82,0-17.85,14.59-31.83,33.21-31.83,18.49,0,32.98,13.78,32.98,31.83,0,17.84-14.59,31.82-33.21,31.82m0-49.16c-9.44,0-16.3,7.15-16.3,17.34s7.26,17.34,16.53,17.34,16.3-7.35,16.3-17.34c0-9.72-7.26-17.34-16.53-17.34"/>
      </g>
    </g>
  </g>
</svg>