<?xml version="1.0" encoding="UTF-8"?>
<svg id="Layer_2" data-name="Layer 2" xmlns="http://www.w3.org/2000/svg" viewBox="0 0 696 148.41">
  <defs>
    <style>
      .cls-1 {
        fill: #00aeef;
      }

      .cls-2 {
        fill: #f26522;
      }

      .cls-3 {
        fill: #ffc20e;
      }

      .cls-4 {
        fill: #8dc63f;
      }

      .cls-5 {
        fill: #77787b;
      }
    </style>
  </defs>
  <g id="Sponsor_logos" data-name="Sponsor logos">
    <g>
      <path class="cls-5" d="M665.69,67.19h-22.38v51.54h-15.21v-51.54h-10.68v-12.29h10.68v-8.88c0-6.71,2.18-12.2,6.55-16.49,4.37-4.29,9.97-6.43,16.8-6.43,1.82,0,3.44,.09,4.84,.28,1.41,.19,2.65,.47,3.73,.84v12.98c-.5-.29-1.37-.64-2.61-1.06-1.24-.41-2.67-.62-4.28-.62-3.15,0-5.57,.98-7.27,2.95-1.7,1.97-2.54,4.87-2.54,8.72v7.7h22.38v-14.35l15.09-4.59v18.94h15.21v12.29h-15.21v29.87c0,3.93,.71,6.71,2.14,8.32,1.43,1.61,3.67,2.42,6.74,2.42,.87,0,1.92-.21,3.14-.62,1.22-.41,2.29-.91,3.2-1.49v12.42c-.95,.54-2.54,1.03-4.75,1.49-2.21,.46-4.4,.68-6.55,.68-6.33,0-11.09-1.69-14.25-5.06-3.17-3.37-4.75-8.46-4.75-15.25v-32.79h0Zm-99.78,20.06c0,6.67,1.51,11.76,4.53,15.28,3.02,3.52,7.35,5.28,12.98,5.28s9.63-1.76,12.48-5.28c2.86-3.52,4.29-8.74,4.29-15.65s-1.48-12.06-4.44-15.56c-2.96-3.5-7.11-5.25-12.45-5.25s-9.78,1.83-12.83,5.5c-3.04,3.66-4.56,8.89-4.56,15.68h0Zm-15.65,.5c0-10.56,2.98-18.92,8.94-25.09,5.96-6.17,14.24-9.25,24.84-9.25,9.98,0,17.77,2.97,23.38,8.91,5.61,5.94,8.41,13.96,8.41,24.06s-2.98,18.59-8.94,24.71c-5.96,6.13-14.07,9.19-24.34,9.19s-17.75-2.91-23.57-8.72c-5.82-5.82-8.73-13.75-8.73-23.82h0Zm-33.84-16.08c0,2.15,.68,3.84,2.05,5.06,1.37,1.22,4.39,2.76,9.07,4.63,6,2.4,10.21,5.1,12.64,8.1s3.63,6.63,3.63,10.9c0,6-2.31,10.83-6.92,14.47-4.62,3.64-10.86,5.46-18.72,5.46-2.65,0-5.58-.32-8.79-.96-3.21-.64-5.93-1.46-8.16-2.45v-14.78c2.73,1.9,5.67,3.41,8.82,4.53,3.15,1.12,6,1.68,8.57,1.68,3.39,0,5.9-.48,7.52-1.43,1.61-.95,2.42-2.55,2.42-4.78,0-2.07-.84-3.82-2.51-5.25-1.68-1.43-4.86-3.07-9.53-4.94-5.55-2.32-9.48-4.93-11.8-7.82-2.32-2.9-3.48-6.58-3.48-11.05,0-5.75,2.29-10.48,6.86-14.19,4.57-3.7,10.5-5.56,17.79-5.56,2.23,0,4.74,.25,7.51,.74,2.77,.5,5.09,1.14,6.96,1.93v14.28c-1.99-1.33-4.31-2.46-6.96-3.42-2.65-.95-5.28-1.43-7.89-1.43-2.85,0-5.08,.56-6.67,1.68-1.6,1.12-2.39,2.65-2.39,4.6h0Zm-72.28,15.59c0,6.67,1.51,11.76,4.53,15.28,3.02,3.52,7.35,5.28,12.98,5.28s9.62-1.76,12.48-5.28c2.86-3.52,4.29-8.74,4.29-15.65s-1.48-12.06-4.44-15.56c-2.96-3.5-7.11-5.25-12.45-5.25s-9.78,1.83-12.83,5.5c-3.04,3.66-4.56,8.89-4.56,15.68h0Zm-15.65,.5c0-10.56,2.98-18.92,8.94-25.09,5.96-6.17,14.24-9.25,24.84-9.25,9.98,0,17.77,2.97,23.38,8.91,5.61,5.94,8.41,13.96,8.41,24.06s-2.98,18.59-8.94,24.71c-5.96,6.13-14.08,9.19-24.34,9.19s-17.75-2.91-23.56-8.72c-5.82-5.82-8.73-13.75-8.73-23.82h0Zm-6.47-33.9c1.2,0,2.28,.08,3.23,.25,.95,.16,1.76,.37,2.42,.62v15.21c-.79-.58-1.94-1.13-3.45-1.64-1.51-.52-3.34-.78-5.5-.78-3.69,0-6.8,1.55-9.35,4.66-2.55,3.1-3.82,7.89-3.82,14.34v32.23h-15.03V54.89h15.03v10.06h.25c1.37-3.48,3.44-6.2,6.21-8.17,2.77-1.96,6.11-2.95,10-2.95h0Zm-57.62,53.96c2.23,0,4.7-.52,7.39-1.55,2.69-1.04,5.17-2.4,7.45-4.1v13.97c-2.4,1.37-5.12,2.4-8.16,3.1-3.04,.7-6.39,1.06-10.03,1.06-9.4,0-17.03-2.97-22.91-8.91-5.88-5.94-8.82-13.53-8.82-22.76,0-10.27,3-18.72,9.01-25.37,6-6.64,14.51-9.97,25.52-9.97,2.82,0,5.66,.36,8.54,1.09,2.88,.72,5.16,1.56,6.86,2.51v14.41c-2.32-1.7-4.69-3.01-7.11-3.94-2.42-.93-4.9-1.4-7.42-1.4-5.92,0-10.7,1.92-14.34,5.78-3.64,3.85-5.46,9.05-5.46,15.59s1.75,11.49,5.25,15.09c3.5,3.6,8.25,5.4,14.25,5.4h0Zm-45.58-52.91v63.84h-15.03V54.89h15.03Zm-16.58-18.44c0-2.48,.9-4.56,2.7-6.24,1.8-1.68,3.94-2.52,6.43-2.52,2.65,0,4.84,.86,6.58,2.58,1.74,1.72,2.61,3.78,2.61,6.18s-.89,4.49-2.67,6.15c-1.78,1.66-3.95,2.48-6.52,2.48s-4.73-.84-6.49-2.51c-1.76-1.68-2.64-3.72-2.64-6.12h0Zm-12.93-6.77V118.73h-15.46V48.93h-.25l-27.63,69.8h-10.25l-28.32-69.8h-.19V118.73h-14.28V29.68h22.17l25.59,66.01h.37l27.01-66.01h21.24Z"/>
      <polygon class="cls-2" points="70.53 70.54 0 70.54 0 0 70.53 0 70.53 70.54 70.53 70.54"/>
      <polygon class="cls-4" points="148.41 70.54 77.87 70.54 77.87 0 148.41 0 148.41 70.54 148.41 70.54"/>
      <polygon class="cls-1" points="70.53 148.41 0 148.41 0 77.87 70.53 77.87 70.53 148.41 70.53 148.41"/>
      <polygon class="cls-3" points="148.41 148.41 77.87 148.41 77.87 77.87 148.41 77.87 148.41 148.41 148.41 148.41"/>
    </g>
  </g>
</svg>