<?xml version="1.0" encoding="UTF-8"?>
<svg id="Layer_2" data-name="Layer 2" xmlns="http://www.w3.org/2000/svg" viewBox="0 0 900 295.31">
  <defs>
    <style>
      .cls-1 {
        fill: #231f20;
      }

      .cls-2 {
        fill: #50892e;
      }
    </style>
  </defs>
  <g id="Sponsor_logos" data-name="Sponsor logos">
    <g>
      <path class="cls-1" d="M758.38,159.56v-.27c0-12.4-8.36-20.62-18.26-20.62s-18.11,8.22-18.11,20.62v.27c0,12.41,8.23,20.63,18.11,20.63s18.26-8.09,18.26-20.63h0Zm-57.26-37.48h21.18v10.73c5.15-6.96,12.26-12.11,23.26-12.11,17.42,0,33.99,13.65,33.99,38.59v.27c0,24.94-16.29,38.6-33.99,38.6-11.29,0-18.26-5.15-23.26-11.14v32.04h-21.18V122.08h0Z"/>
      <polygon class="cls-1" points="280.68 98.55 300.48 98.55 346.17 159.29 346.17 98.55 367.34 98.55 367.34 196.77 349.1 196.77 301.87 134.76 301.87 196.77 280.68 196.77 280.68 98.55 280.68 98.55"/>
      <path class="cls-1" d="M430.3,153.58c-1.25-9.49-6.82-15.89-15.73-15.89s-14.51,6.3-16.17,15.89h31.9Zm-52.66,6.27v-.29c0-21.31,15.19-38.86,36.93-38.86,24.93,0,36.35,19.36,36.35,40.54,0,1.67-.12,3.63-.28,5.57h-51.96c2.11,9.61,8.78,14.64,18.26,14.64,7.11,0,12.25-2.23,18.11-7.67l12.11,10.73c-6.95,8.64-16.99,13.93-30.49,13.93-22.44,0-39.02-15.74-39.02-38.59h0Z"/>
      <path class="cls-1" d="M464.14,175.58v-35.38h-8.91v-18.11h8.91v-19.07h21.16v19.07h17.57v18.11h-17.57v31.91c0,4.88,2.1,7.25,6.83,7.25,3.9,0,7.38-.97,10.46-2.66v17c-4.46,2.65-9.63,4.32-16.74,4.32-12.94,0-21.71-5.16-21.71-22.44h0Z"/>
      <path class="cls-1" d="M671.32,159.56v-.27c0-12.4-8.36-20.62-18.24-20.62s-18.1,8.22-18.1,20.62v.27c0,12.41,8.22,20.63,18.1,20.63s18.24-8.09,18.24-20.63h0Zm-57.24-37.48h21.17v10.73c5.15-6.96,12.25-12.11,23.26-12.11,17.42,0,33.99,13.65,33.99,38.59v.27c0,24.94-16.29,38.6-33.99,38.6-11.28,0-18.26-5.15-23.26-11.14v32.04h-21.17V122.08h0Z"/>
      <path class="cls-1" d="M571.08,155.96l-12.95-31.65-12.96,31.65h25.91Zm-22.32-57.42h19.28l40.75,98.23h-22.35l-8.98-21.89h-38.66l-8.92,21.89h-21.86l40.75-98.23h0Z"/>
      <polygon class="cls-2" points="120.45 98.55 120.45 196.77 166.29 196.77 166.29 137.84 192.48 137.84 192.48 196.77 238.31 196.77 238.31 98.55 120.45 98.55 120.45 98.55"/>
    </g>
  </g>
</svg>