<?xml version="1.0" encoding="UTF-8"?>
<svg id="Layer_2" data-name="Layer 2" xmlns="http://www.w3.org/2000/svg" viewBox="0 0 696 142.28">
  <defs>
    <style>
      .cls-1, .cls-2 {
        fill: #0072bc;
      }

      .cls-2 {
        fill-rule: evenodd;
      }
    </style>
  </defs>
  <g id="Sponsor_logos" data-name="Sponsor logos">
    <g>
      <path class="cls-2" d="M93.41,0c-6.82,0-13.5,1.46-18.24,3.41-4.73-1.95-11.42-3.41-18.24-3.41C27.01,0,0,28.33,0,67.17s34.59,75.11,75.18,75.11,75.18-32.72,75.18-75.11S123.34,0,93.41,0h0Zm-18.24,23.04c5.78,3.41,13.36,13.36,13.36,24.57s-5.43,14.69-13.36,14.69-13.36-6.47-13.36-14.69,7.66-21.16,13.36-24.57h0Zm0,100.72c-31.04,0-56.73-24.99-56.73-56.94S39.54,17.61,56.17,18.31c-7.87,7.8-12.6,19.21-12.6,30.28,0,19,15.04,32.3,31.67,32.3s31.67-13.29,31.67-32.3-4.73-22.41-12.6-30.28c16.57-.77,37.66,19.21,37.66,48.45s-25.68,56.94-56.73,56.94l-.07,.07Z"/>
      <path class="cls-1" d="M258.59,32.44v15.45h23.6v58.05h16.71V47.89h23.6v-15.45h-63.9Z"/>
      <path class="cls-1" d="M533.61,32.44h-42.04v15.59h40.93c5.99,0,8.35,2.71,8.35,9.81v2.58h-33.97c-12.88,0-19.35,6.47-19.35,21.02v3.48c0,15.04,6.68,21.02,20.05,21.02h49.77V57.63c0-18.52-6.13-25.2-23.81-25.2h.07Zm-24.22,57.84c-2.51,0-5.36-1.32-5.36-7.59s2.78-7.38,5.36-7.38h31.46v15.04h-31.46v-.07Z"/>
      <path class="cls-1" d="M672.26,32.44h-42.04v15.59h40.93c5.99,0,8.35,2.71,8.35,9.81s0,2.02,0,2.58h-33.97c-12.88,0-19.35,6.47-19.35,21.02v3.48c0,15.04,6.68,21.02,20.05,21.02h49.77V57.63c0-18.52-6.13-25.2-23.81-25.2h.07Zm-24.22,57.84c-2.51,0-5.36-1.32-5.36-7.59s2.78-7.38,5.36-7.38h31.46v15.04h-31.46v-.07Z"/>
      <path class="cls-1" d="M327.85,32.44v15.45h23.6v58.05h16.71V47.89h23.6v-15.45h-63.9Z"/>
      <path class="cls-1" d="M560.75,32.44v15.45h23.6v58.05h16.71V47.89h23.6v-15.45h-63.9Z"/>
      <path class="cls-1" d="M481.12,80.19v-22c0-19.28-7.45-25.75-24.29-25.75h-44.76V105.94h45.52c17.89,0,23.53-8.91,23.53-25.75Zm-17.05,.35c0,7.03-2.37,9.81-8.35,9.81h-26.87V48.1h26.87c5.99,0,8.35,2.71,8.35,9.81v22.62Z"/>
      <path class="cls-1" d="M235.06,88.4c-.35-.7-22.69-44.2-25.41-48.45-3.13-4.94-6.96-8.35-14.34-8.35s-14.9,2.99-14.9,19.42v54.99h16.5V60.14c0-3.27-.21-8.14-.28-9.12,0-.84,0-1.6,.42-1.81,.49-.28,.97,.14,1.25,.77,.35,.63,21.02,41.56,25.41,48.45,3.13,4.94,6.96,8.35,14.34,8.35s14.9-3.06,14.9-19.42V32.37h-16.5v45.87c0,3.27,.21,8.14,.21,9.12,0,.84,0,1.6-.42,1.81-.49,.28-.97-.14-1.25-.77h.07Z"/>
    </g>
  </g>
</svg>