<?xml version="1.0" encoding="UTF-8"?>
<svg id="Layer_2" data-name="Layer 2" xmlns="http://www.w3.org/2000/svg" viewBox="0 0 840 260.09">
  <defs>
    <style>
      .cls-1 {
        fill: #c84534;
      }
    </style>
  </defs>
  <g id="Sponsor_logos" data-name="Sponsor logos">
    <path class="cls-1" d="M699.63,158.12c-12.84,0-23.66-8.62-27.01-20.41h71.23l9.81-15.28h-81.05c3.33-11.82,14.16-20.41,27.01-20.41h48.91l9.78-15.32h-59.8c-23.92,0-43.32,19.41-43.32,43.37s19.41,43.31,43.32,43.31h51.44l9.78-15.25h-60.1m-203.84,15.25h51.44l9.74-15.25h-60.03c-15.56,0-28.09-12.59-28.09-28.05s12.53-28.05,28.09-28.05h48.87l9.86-15.32h-59.86c-23.96,0-43.41,19.41-43.41,43.37s19.46,43.31,43.41,43.31m-316.51-15.25h-48.12c-15.49,0-28.03-12.59-28.03-28.05s12.55-28.05,28.03-28.05h48.12c15.54,0,28.07,12.52,28.07,28.05s-12.53,28.05-28.07,28.05m-49.23,15.25h50.39c23.97,0,43.27-19.37,43.27-43.31s-19.3-43.37-43.27-43.37h-50.39c-23.94,0-43.36,19.41-43.36,43.37s19.42,43.31,43.36,43.31m175.47-28.07c16.23,0,29.28-13.13,29.28-29.31s-13.05-29.3-29.28-29.3h-72.93v86.68h16.67V102.02h55.15c7.74,0,14.01,6.25,14.01,13.98s-6.27,14.07-14.01,14.07l-47-.04,49.78,43.35h24.18l-33.44-28.07h7.58m275.73,12.76V86.7h-16.7v78.39c0,2.14,.9,4.23,2.47,5.74,1.59,1.64,3.78,2.55,6.07,2.55h75.94l9.9-15.31h-77.68m-204.01-15.25h44.46l-23.49-37.91-43.12,68.47h-19.7l52.5-82.17c2.24-3.33,6.09-5.35,10.29-5.35s7.89,1.95,10.13,5.2l52.66,82.32h-19.64l-9.26-15.31h-45.02l-9.82-15.25"/>
  </g>
</svg>