<?xml version="1.0" encoding="UTF-8"?>
<svg id="Layer_2" data-name="Layer 2" xmlns="http://www.w3.org/2000/svg" viewBox="0 0 768 213.2">
  <defs>
    <style>
      .cls-1 {
        fill: #f15933;
      }

      .cls-2 {
        fill: #151515;
      }
    </style>
  </defs>
  <g id="Sponsor_logos" data-name="Sponsor logos">
    <g>
      <path class="cls-2" d="M328.2,122.5c-6.87,0-10.12-2.65-10.12-6.75v-.24c0-3.62,2.05-6.27,9.52-7.35l3.25-.48c4.75-.66,7.68-1.54,10.36-3.17v5.34c0,8.07-5.06,12.65-13.02,12.65h0Zm1.81-57.48c-9.28,0-18.92,2.53-30.85,8.92l6.63,16.39c10.36-5.78,18.92-8.31,25.19-8.31,7.11,0,10.24,2.65,10.24,6.15v.24c0,2.41-1.93,3.74-6.63,4.22l-8.19,.84c-20.49,2.17-28.92,11.09-28.92,23.38v.84c0,11.69,9.64,20.85,23.26,20.85,8.96,0,16.76-3.79,21.49-10.47l1.53,9.26h18.56v-42.06c0-19.88-11.45-30.25-32.3-30.25h0Z"/>
      <polygon class="cls-1" points="155.51 65.5 131.77 41.76 108.03 65.5 119.84 77.31 60.3 136.84 84.04 160.58 107.78 136.84 95.97 125.03 155.51 65.5 155.51 65.5"/>
      <polygon class="cls-1" points="24.75 101.29 48.49 125.03 108.03 65.5 84.28 41.76 24.75 101.29 24.75 101.29"/>
      <polygon class="cls-1" points="107.78 136.84 131.53 160.58 191.06 101.05 167.32 77.31 107.78 136.84 107.78 136.84"/>
      <polygon class="cls-2" points="374.36 137.32 395.45 137.32 395.45 40.91 374.36 40.91 374.36 137.32 374.36 137.32"/>
      <path class="cls-2" d="M270.96,102.38c0,10.85-5.66,18.68-15.06,18.68s-15.06-7.83-15.06-18.68v-1.21c0-10.85,5.66-18.68,15.06-18.68s15.06,7.83,15.06,18.68v1.21h0Zm-8.92-37.36c-9.59,0-17.29,4.24-21.53,10.89l-1.61-9.68h-18.56v95.2h21.09v-33c4.01,6.19,11.61,10.1,20.61,10.1,16.87,0,30.61-14.94,30.61-35.55v-2.41c0-20.61-13.74-35.55-30.61-35.55h0Z"/>
      <path class="cls-2" d="M695.04,102.38c0,10.85-5.66,18.68-15.06,18.68s-15.06-7.83-15.06-18.68v-1.21c0-10.85,5.66-18.68,15.06-18.68s15.06,7.83,15.06,18.68v1.21h0Zm-15.06-37.36c-21.57,0-36.76,14.94-36.76,35.55v2.41c0,20.61,15.18,35.55,36.76,35.55s36.76-14.94,36.76-35.55v-2.41c0-20.61-15.19-35.55-36.76-35.55h0Z"/>
      <path class="cls-2" d="M729.75,67.55h2.54c1.44,0,2.05,.48,2.05,1.57v.12c0,.96-.6,1.57-2.05,1.57h-2.54v-3.25h0Zm6.87,1.81v-.36c0-2.05-1.57-3.5-4.34-3.5h-4.82v11.09h2.28v-3.74h2.55l1.91,3.74h2.54l-2.36-4.39c1.44-.43,2.24-1.5,2.24-2.84h0Z"/>
      <path class="cls-2" d="M731.8,80.92c-5.66,0-9.76-4.1-9.76-9.88s4.1-9.88,9.76-9.88,9.76,4.1,9.76,9.88-4.1,9.88-9.76,9.88h0Zm0-21.33c-6.5,0-11.45,4.94-11.45,11.45s4.95,11.45,11.45,11.45,11.45-4.94,11.45-11.45-4.95-11.45-11.45-11.45h0Z"/>
      <polygon class="cls-2" points="560.07 137.32 581.16 137.32 581.16 40.91 560.07 40.91 560.07 137.32 560.07 137.32"/>
      <path class="cls-2" d="M622.74,121.06c-6.15,0-8.44-3.01-8.44-9.52v-29.04h24.83v-16.27h-24.83v-16.27l-21.09,3.13v60.5c0,16.51,8.44,24.95,25.31,24.95,7.47,0,16.27-2.29,23.5-6.39l-6.03-14.94c-4.22,2.29-10.12,3.86-13.26,3.86h0Z"/>
      <path class="cls-2" d="M513.91,122.5c-6.87,0-10.12-2.65-10.12-6.75v-.24c0-3.62,2.05-6.27,9.52-7.35l3.25-.48c4.75-.66,7.68-1.54,10.36-3.17v5.34c0,8.07-5.06,12.65-13.02,12.65h0Zm1.81-57.48c-9.28,0-18.92,2.53-30.85,8.92l6.63,16.39c10.36-5.78,18.92-8.31,25.19-8.31,7.11,0,10.24,2.65,10.24,6.15v.24c0,2.41-1.93,3.74-6.63,4.22l-8.19,.84c-20.49,2.17-28.92,11.09-28.92,23.38v.84c0,11.69,9.64,20.85,23.26,20.85,8.96,0,16.76-3.79,21.49-10.47l1.53,9.26h18.56v-42.06c0-19.88-11.45-30.25-32.3-30.25h0Z"/>
      <path class="cls-2" d="M456.67,102.38c0,10.85-5.66,18.68-15.06,18.68s-15.06-7.83-15.06-18.68v-1.21c0-10.85,5.66-18.68,15.06-18.68s15.06,7.83,15.06,18.68v1.21h0Zm-15.06-37.36c-21.57,0-36.76,14.94-36.76,35.55v2.41c0,20.61,15.18,35.55,36.76,35.55s36.76-14.94,36.76-35.55v-2.41c0-20.61-15.18-35.55-36.76-35.55h0Z"/>
      <polygon class="cls-2" points="527.93 154.42 533.33 154.42 540.79 164.26 540.87 164.26 540.87 154.42 545.82 154.42 545.82 171.77 540.59 171.77 532.96 161.68 532.89 161.68 532.89 171.77 527.93 171.77 527.93 154.42 527.93 154.42"/>
      <polygon class="cls-2" points="552.41 154.42 567.58 154.42 567.78 158.63 557.59 158.63 557.59 161.01 565.6 161.01 565.6 164.85 557.59 164.85 557.59 167.55 568.08 167.55 567.88 171.77 552.41 171.77 552.41 154.42 552.41 154.42"/>
      <polygon class="cls-2" points="578.63 158.88 572.56 158.88 572.76 154.42 589.74 154.42 589.93 158.88 583.86 158.88 583.86 171.77 578.63 171.77 578.63 158.88 578.63 158.88"/>
      <polygon class="cls-2" points="594.12 154.42 599.67 154.42 602.5 166.46 602.77 166.46 606.44 154.42 611.52 154.42 615.11 166.46 615.39 166.46 618.16 154.42 623.47 154.42 618.91 171.77 612.09 171.77 608.92 161.31 608.77 161.31 605.55 171.77 598.71 171.77 594.12 154.42 594.12 154.42"/>
      <path class="cls-2" d="M641.93,163.09c0-3-1.73-4.78-4.73-4.78s-4.73,1.78-4.73,4.78,1.74,4.78,4.71,4.78,4.76-1.79,4.76-4.78h0Zm-14.65,0c0-5.65,3.84-9.19,9.91-9.19s9.91,3.54,9.91,9.19-3.84,9.19-9.91,9.19-9.91-3.54-9.91-9.19h0Z"/>
      <path class="cls-2" d="M662.17,163.14c1.73,0,2.35-.97,2.35-2.28s-.62-2.26-2.35-2.26h-4.24v4.54h4.24Zm-9.44-8.72h10.11c4.61,0,6.86,2.18,6.86,6.22,0,2.78-1.14,4.66-3.37,5.55l4.11,5.58h-5.9l-3.2-4.56h-3.42v4.56h-5.21v-17.35h0Z"/>
      <polygon class="cls-2" points="676.47 154.42 681.68 154.42 681.68 160.81 683.81 160.81 688.89 154.42 694.74 154.42 694.76 154.44 688.12 162.75 695.13 171.74 695.11 171.77 689.04 171.77 683.78 165.1 681.68 165.1 681.68 171.77 676.47 171.77 676.47 154.42 676.47 154.42"/>
      <path class="cls-2" d="M699.12,170.63v-4.76h.03c2.9,1.46,5.72,2.18,8.18,2.18,1.86,0,2.8-.45,2.8-1.31s-.62-1.09-4.34-1.69c-4.06-.64-6.76-1.86-6.76-5.35,0-3.25,2.85-5.75,8.43-5.75,2.23,0,4.56,.47,6.72,1.39v4.71l-.03,.02c-2.05-1.19-4.83-1.93-7.06-1.93-1.98,0-2.78,.47-2.78,1.26,0,1.02,1.21,1.12,4.26,1.64,4.06,.69,6.76,1.83,6.76,5.5,0,2.85-2.13,5.7-8.25,5.7-3.02,0-5.43-.62-7.96-1.61h0Z"/>
    </g>
  </g>
</svg>