<?xml version="1.0" encoding="UTF-8"?>
<svg id="Layer_2" data-name="Layer 2" xmlns="http://www.w3.org/2000/svg" viewBox="0 0 90.23 36">
  <g id="logos_and_logotypes" data-name="logos and logotypes">
    <path id="IBM_" data-name="IBM®" d="M0,33.49H17.54v2.51H0v-2.51Zm0-2.28H17.54v-2.51H0v2.51Zm5.01-4.78h7.52v-2.51H5.01v2.51Zm0-4.78h7.52v-2.51H5.01v2.51Zm0-4.78h7.52v-2.51H5.01v2.51Zm7.52-7.29H5.01v2.51h7.52v-2.51ZM0,7.29H17.54v-2.51H0v2.51ZM0,2.51H17.54V0H0V2.51ZM20.05,31.22h26.74c.45-.77,.79-1.62,1.01-2.51H20.05v2.51Zm24.65-12.08H25.06v2.51h21.73c-.55-.95-1.26-1.8-2.09-2.51Zm-19.64-4.78v2.51h19.64c.83-.71,1.54-1.56,2.09-2.51H25.06ZM46.79,4.78H20.05v2.51h27.75c-.22-.89-.56-1.73-1.01-2.51ZM38.51,0H20.05V2.51h24.91c-1.7-1.56-3.97-2.51-6.46-2.51Zm-13.44,12.08h7.52v-2.51h-7.52v2.51Zm14.58,0h8.1c.22-.8,.34-1.64,.34-2.51h-8.43v2.51Zm-14.58,14.35h7.52v-2.51h-7.52v2.51Zm14.58-2.51v2.51h8.43c0-.87-.12-1.71-.34-2.51h-8.1Zm-19.59,12.08h18.46c2.51,0,4.75-.95,6.46-2.51H20.05v2.51Zm50.13,0l.87-2.51h-1.74l.87,2.51Zm-1.67-4.78h3.34l.88-2.51h-5.1l.88,2.51Zm-1.68-4.78h6.7l.88-2.51h-8.46l.88,2.51Zm-1.68-4.78h10.06l.88-2.51h-11.82l.88,2.51Zm-10.01-9.57h13.54l-.87-2.51h-12.67v2.51Zm18.2-4.78h16.89v-2.51h-16.02l-.87,2.51Zm2.54-7.29l-.87,2.51h15.23V0h-14.35Zm-25.75,36h12.53v-2.51h-12.53v2.51Zm0-4.78h12.53v-2.51h-12.53v2.51Zm5.01-4.78h7.52v-2.51h-7.52v2.51Zm0-4.78h7.52v-2.51h-7.52v2.51Zm30.08-12.08h-12.67l-.87,2.51h13.54v-2.51Zm-7.52,7.29h7.52v-2.51h-14.33l-.7,2.03-.7-2.03h-14.33v2.51h7.52v-2.3s.81,2.3,.81,2.3h13.42l.81-2.3v2.3Zm7.52,2.28h-7.52v2.51h7.52v-2.51Zm-7.52,7.29h7.52v-2.51h-7.52v2.51Zm0,4.78h12.53v-2.51h-12.53v2.51Zm0,4.78h12.53v-2.51h-12.53v2.51Zm-10.68-28.71l-.87-2.51h-16.02v2.51h16.89Zm-1.66-4.78l-.87-2.51h-14.35V2.51h15.23Z"/>
  </g>
</svg>