<?xml version="1.0" encoding="UTF-8"?>
<svg id="Layer_2" data-name="Layer 2" xmlns="http://www.w3.org/2000/svg" xmlns:xlink="http://www.w3.org/1999/xlink" viewBox="0 0 586.66 170.84">
  <defs>
    <style>
      .cls-1 {
        fill: #010101;
      }

      .cls-2 {
        fill: url(#BLAST);
        fill-rule: evenodd;
      }
    </style>
    <linearGradient id="BLAST" x1="159.17" y1="-2334.66" x2="17.47" y2="-2476.37" gradientTransform="translate(0 -2323.05) scale(1 -1)" gradientUnits="userSpaceOnUse">
      <stop offset="0" stop-color="#8c4f9b"/>
      <stop offset=".05" stop-color="#884395"/>
      <stop offset=".32" stop-color="#79107e"/>
      <stop offset=".76" stop-color="#464598"/>
    </linearGradient>
  </defs>
  <g id="Sponsor_logos" data-name="Sponsor logos">
    <g>
      <g>
        <path class="cls-1" d="M239.44,64.32c2.24-.9,4.3-1.99,6.16-3.24,2.67-1.79,4.94-3.91,6.76-6.29,1.82-2.39,3.24-5.08,4.2-8,.96-2.91,1.45-6.04,1.45-9.3,0-4.1-.72-7.92-2.13-11.36-1.44-3.49-3.72-6.52-6.78-9.02-3.02-2.46-6.93-4.4-11.6-5.75-4.61-1.33-10.21-2.01-16.63-2.01h-29.73V104.84h20.31v-36.09h5.78c1.79,0,2.69,.28,3.12,.52,.64,.34,1.25,.96,1.83,1.85l19.42,29.57c.86,1.31,1.93,2.34,3.18,3.06,1.28,.73,2.82,1.1,4.58,1.1h18.41l-24.78-36.56c-1.05-1.53-2.24-2.86-3.55-3.97Zm-27.99-38.55h9.42c5.95,0,10.37,1.15,13.16,3.42,2.73,2.22,4.05,5.36,4.05,9.58,0,2.14-.35,4.12-1.04,5.88-.67,1.73-1.71,3.24-3.08,4.5-1.39,1.27-3.2,2.29-5.38,3.02-2.23,.75-4.91,1.13-7.96,1.13h-9.17V25.76Z"/>
        <path class="cls-1" d="M320.63,44.7c-2.95-3.04-6.56-5.42-10.73-7.07-4.15-1.64-8.82-2.47-13.89-2.47s-9.75,.83-13.92,2.47c-4.19,1.65-7.82,4.03-10.8,7.07-2.97,3.04-5.3,6.79-6.93,11.15-1.61,4.33-2.43,9.22-2.43,14.54s.82,10.27,2.43,14.6c1.62,4.36,3.95,8.13,6.92,11.21,2.98,3.09,6.61,5.49,10.8,7.14,4.17,1.64,8.85,2.47,13.92,2.47s9.74-.83,13.89-2.47c4.17-1.65,7.79-4.05,10.74-7.14,2.95-3.08,5.25-6.85,6.85-11.21,1.59-4.33,2.39-9.23,2.39-14.59s-.81-10.2-2.39-14.53c-1.6-4.36-3.91-8.11-6.86-11.15Zm-13.8,40.99c-2.33,3.26-5.87,4.84-10.83,4.84s-8.64-1.59-10.99-4.87c-2.43-3.39-3.67-8.49-3.67-15.15s1.24-11.78,3.67-15.22c2.35-3.32,5.94-4.93,10.99-4.93s8.5,1.6,10.83,4.9c2.42,3.42,3.64,8.55,3.64,15.26s-1.22,11.81-3.64,15.19Z"/>
        <path class="cls-1" d="M384.21,84.72c-1.33,0-2.55,.42-3.61,1.26-.78,.61-1.69,1.28-2.71,1.99-.96,.67-2.17,1.3-3.61,1.87-1.36,.54-3.22,.82-5.52,.82s-4.32-.43-6.1-1.29c-1.76-.84-3.29-2.11-4.54-3.75-1.28-1.69-2.28-3.82-2.96-6.33-.7-2.58-1.06-5.57-1.06-8.91s.33-6.13,.97-8.65c.63-2.45,1.58-4.56,2.84-6.26,1.22-1.66,2.78-2.94,4.62-3.83,1.86-.89,4.09-1.35,6.6-1.35,1.99,0,3.66,.22,4.97,.65,1.36,.45,2.54,.97,3.51,1.53,1.04,.6,1.95,1.15,2.69,1.63,1.02,.65,2.1,.98,3.2,.98,1.2,0,2.17-.28,2.89-.83,.56-.42,1.1-.98,1.66-1.68l4.97-6.88-.94-.94c-3.07-3.07-6.57-5.46-10.42-7.1-3.86-1.65-8.4-2.49-13.48-2.49-5.34,0-10.15,.9-14.29,2.68-4.15,1.79-7.69,4.29-10.51,7.45-2.81,3.15-4.97,6.92-6.42,11.21-1.43,4.25-2.16,8.92-2.16,13.88,0,5.53,.82,10.54,2.43,14.88,1.62,4.37,3.85,8.12,6.64,11.15,2.8,3.05,6.13,5.4,9.9,6.99,3.75,1.59,7.81,2.39,12.04,2.39,2.36,0,4.78-.18,7.19-.53,2.45-.36,4.85-.98,7.13-1.84,2.3-.87,4.55-2.04,6.68-3.49,2.15-1.45,4.16-3.28,6-5.42l.83-.98-5.29-6.71c-.93-1.38-2.36-2.11-4.14-2.11Z"/>
        <path class="cls-1" d="M439.08,67.74c-.32-.41-.67-.79-1.04-1.16,.36-.29,.7-.6,1.04-.93,.8-.78,1.59-1.65,2.35-2.58l22.53-26.9h-17.78c-1.6,0-2.95,.32-4,.96-.95,.57-1.85,1.36-2.71,2.37l-16.27,20.1c-.67,.8-1.14,1.13-1.42,1.27-.21,.11-.72,.28-1.79,.28h-1.37V6.8h-18.9V104.84h18.9v-30.02h2.01c1.36,0,1.97,.19,2.21,.3,.21,.1,.65,.4,1.28,1.37l16.67,24.84c.83,1.25,1.81,2.16,2.9,2.7,1.07,.53,2.35,.8,3.83,.8h17.21l-23.53-34.27c-.7-1-1.4-1.95-2.11-2.83Z"/>
        <path class="cls-1" d="M518.93,73.65c.78-.32,1.4-.85,1.86-1.58,.4-.64,.66-1.45,.79-2.47,.12-.86,.17-1.93,.17-3.18,0-4.9-.74-9.33-2.21-13.17-1.48-3.87-3.57-7.19-6.23-9.87-2.66-2.68-5.87-4.75-9.53-6.14-3.63-1.38-7.66-2.08-11.96-2.08-5.09,0-9.74,.9-13.82,2.69-4.07,1.78-7.58,4.24-10.42,7.3-2.83,3.05-5.04,6.69-6.55,10.81-1.5,4.09-2.27,8.52-2.27,13.15,0,5.91,.87,11.21,2.59,15.73,1.73,4.55,4.15,8.43,7.18,11.52,3.04,3.11,6.67,5.49,10.77,7.07,4.08,1.57,8.55,2.37,13.27,2.37,2.36,0,4.83-.18,7.34-.53,2.55-.36,5.08-.97,7.52-1.83,2.47-.87,4.87-2.04,7.12-3.48,2.29-1.46,4.38-3.29,6.22-5.44l.84-.98-5.36-6.7c-.48-.65-1.06-1.17-1.73-1.54-.7-.38-1.51-.57-2.41-.57-1.25,0-2.53,.37-3.81,1.1-1.02,.58-2.22,1.24-3.59,1.95-1.3,.68-2.85,1.31-4.61,1.88-1.69,.54-3.75,.82-6.13,.82-4.81,0-8.54-1.4-11.41-4.27-2.6-2.6-4.22-6.69-4.83-12.15h38.79c.94,0,1.72-.13,2.38-.4Zm-40.68-12.24c.78-3.55,2.19-6.37,4.21-8.38,2.31-2.31,5.48-3.44,9.69-3.44,2.11,0,3.95,.35,5.49,1.04,1.52,.69,2.8,1.63,3.79,2.81,1.01,1.2,1.77,2.61,2.25,4.21,.36,1.19,.6,2.45,.7,3.76h-26.14Z"/>
        <path class="cls-1" d="M565.53,90l-.07-.1c-.43-.59-.84-1.03-1.26-1.36-1.05-.82-2.67-.96-4.08-.1-.36,.22-.76,.44-1.22,.68-.42,.22-.94,.44-1.52,.65-.49,.17-1.14,.26-1.94,.26-1.26,0-2.19-.38-2.92-1.2-.76-.85-1.14-2.11-1.14-3.75V51.12h17.25v-14.37h-17.25V16.12h-9.74c-1.28,0-2.39,.34-3.28,1.02-.93,.7-1.52,1.69-1.77,2.94l-3.12,16.8-10.77,1.76v7.59c0,1.57,.49,2.8,1.45,3.66,.91,.82,2,1.23,3.25,1.23h5.08v35.04c0,6.05,1.69,10.9,5.03,14.4,3.36,3.52,8.14,5.31,14.23,5.31,3.34,0,6.63-.52,9.75-1.55,3.15-1.04,5.99-2.59,8.43-4.63l1.04-.87-5.44-8.82Z"/>
      </g>
      <g>
        <path class="cls-1" d="M212.55,139.54c-.16,.33-.42,.49-.78,.49-.26,0-.59-.15-1.01-.44-.41-.29-.95-.62-1.62-.99-.67-.36-1.49-.69-2.47-.99-.98-.29-2.17-.44-3.58-.44-1.27,0-2.43,.18-3.48,.55-1.05,.36-1.94,.85-2.68,1.46-.74,.61-1.32,1.32-1.73,2.13-.41,.81-.62,1.66-.62,2.55,0,1.1,.28,2.02,.85,2.74,.56,.73,1.31,1.35,2.22,1.87,.92,.52,1.96,.96,3.12,1.34,1.16,.38,2.36,.75,3.58,1.13,1.22,.38,2.42,.79,3.58,1.25,1.16,.46,2.21,1.03,3.12,1.71,.92,.68,1.66,1.52,2.22,2.51,.57,.99,.85,2.19,.85,3.6,0,1.53-.28,2.95-.83,4.27-.55,1.32-1.35,2.46-2.4,3.42-1.05,.96-2.33,1.73-3.86,2.29-1.53,.57-3.27,.85-5.22,.85-2.47,0-4.6-.39-6.39-1.18-1.79-.79-3.39-1.82-4.8-3.09l.81-1.2c.12-.19,.25-.33,.39-.42,.14-.09,.34-.14,.6-.14,.31,0,.68,.19,1.13,.56s1.03,.78,1.75,1.22c.72,.44,1.61,.84,2.68,1.22s2.39,.56,3.97,.56c1.48,0,2.79-.21,3.92-.62,1.13-.41,2.07-.97,2.82-1.68s1.32-1.54,1.71-2.49c.39-.95,.58-1.96,.58-3.02,0-1.18-.28-2.15-.85-2.93-.57-.78-1.31-1.44-2.22-1.98-.92-.54-1.96-1-3.12-1.38-1.16-.38-2.36-.75-3.6-1.13s-2.43-.79-3.6-1.24c-1.16-.45-2.21-1.01-3.12-1.69-.92-.68-1.66-1.51-2.22-2.49-.56-.98-.85-2.19-.85-3.65,0-1.25,.27-2.45,.81-3.6,.54-1.15,1.31-2.16,2.31-3.04,1-.87,2.22-1.56,3.65-2.08,1.43-.52,3.05-.78,4.83-.78,2.14,0,4.04,.31,5.7,.93,1.66,.62,3.18,1.57,4.57,2.85l-.74,1.16Z"/>
        <path class="cls-1" d="M254.23,134.6c2.52,0,4.77,.43,6.76,1.29,1.99,.86,3.66,2.08,5.03,3.65,1.36,1.58,2.41,3.48,3.12,5.7,.72,2.22,1.08,4.71,1.08,7.46s-.36,5.23-1.08,7.45c-.72,2.21-1.76,4.11-3.12,5.68-1.36,1.58-3.04,2.79-5.03,3.63-1.99,.85-4.24,1.27-6.76,1.27s-4.77-.42-6.76-1.27c-1.99-.85-3.67-2.06-5.05-3.63-1.38-1.58-2.42-3.47-3.14-5.68-.72-2.21-1.08-4.69-1.08-7.45s.36-5.24,1.08-7.46c.72-2.22,1.76-4.12,3.14-5.7,1.38-1.58,3.06-2.79,5.05-3.65,1.99-.86,4.24-1.29,6.76-1.29Zm0,33.49c2.09,0,3.92-.36,5.49-1.08,1.56-.72,2.87-1.75,3.92-3.09,1.05-1.34,1.83-2.96,2.35-4.85,.52-1.89,.78-4.02,.78-6.37s-.26-4.45-.78-6.35c-.52-1.91-1.3-3.53-2.35-4.89-1.05-1.35-2.35-2.39-3.92-3.12-1.57-.73-3.39-1.09-5.49-1.09s-3.92,.36-5.49,1.09c-1.57,.73-2.87,1.77-3.92,3.12-1.05,1.35-1.83,2.98-2.36,4.89-.53,1.91-.79,4.02-.79,6.35s.26,4.48,.79,6.37c.53,1.89,1.32,3.51,2.36,4.85s2.35,2.37,3.92,3.09c1.56,.72,3.39,1.08,5.49,1.08Z"/>
        <path class="cls-1" d="M298.05,170.27v-31.44l-4.94-.32c-.68-.05-1.02-.34-1.02-.88v-1.38h5.96v-4.45c0-2,.26-3.76,.78-5.28,.52-1.52,1.25-2.78,2.19-3.79,.94-1.01,2.08-1.77,3.4-2.28,1.33-.51,2.79-.76,4.39-.76,.73,0,1.46,.07,2.21,.19,.74,.13,1.39,.31,1.96,.55l-.11,1.62c-.02,.33-.25,.49-.67,.49-.28,0-.66-.03-1.15-.11-.48-.07-1.08-.11-1.78-.11-1.15,0-2.22,.17-3.19,.51-.98,.34-1.82,.89-2.52,1.64-.71,.75-1.25,1.74-1.64,2.95-.39,1.21-.58,2.7-.58,4.46v4.34h11.4v2.51h-11.33v31.51h-3.35Z"/>
        <path class="cls-1" d="M348.44,170.84c-2.38,0-4.22-.66-5.54-1.98-1.32-1.32-1.98-3.35-1.98-6.1v-24h-5.05c-.26,0-.47-.07-.64-.21s-.25-.34-.25-.6v-1.31l6-.42,.84-12.56c.02-.21,.11-.4,.26-.56,.15-.16,.36-.25,.61-.25h1.57v13.41h11.04v2.51h-11.04v23.82c0,.96,.12,1.79,.37,2.49,.25,.69,.59,1.26,1.02,1.71,.43,.45,.95,.78,1.53,.99,.59,.21,1.22,.32,1.91,.32,.85,0,1.58-.12,2.19-.37,.61-.25,1.14-.52,1.59-.81,.45-.29,.81-.56,1.09-.81,.28-.25,.51-.37,.67-.37,.19,0,.38,.12,.56,.35l.92,1.48c-.89,.99-2.03,1.78-3.41,2.38-1.38,.6-2.8,.9-4.29,.9Z"/>
        <path class="cls-1" d="M376.18,135.16h2.58c.33,0,.6,.09,.81,.27,.21,.18,.35,.37,.42,.58l8.86,27.7c.16,.54,.29,1.06,.39,1.55,.09,.49,.19,.99,.28,1.48,.12-.49,.25-.99,.39-1.48,.14-.49,.31-1.01,.49-1.55l9.42-27.95c.16-.52,.49-.78,.99-.78h1.38c.52,0,.86,.26,1.02,.78l9.28,27.95c.35,1.06,.64,2.08,.85,3.07,.09-.49,.19-.99,.3-1.5,.11-.51,.25-1.03,.44-1.57l8.89-27.7c.19-.56,.59-.85,1.2-.85h2.47l-11.75,35.11h-2.47c-.38,0-.65-.25-.81-.74l-9.63-28.51c-.12-.35-.22-.71-.32-1.06-.09-.35-.18-.71-.25-1.06-.07,.35-.15,.71-.23,1.06-.08,.35-.18,.71-.3,1.06l-9.74,28.51c-.14,.49-.42,.74-.85,.74h-2.36l-11.75-35.11Z"/>
        <path class="cls-1" d="M471.7,170.27c-.71,0-1.14-.33-1.31-.99l-.49-4.48c-.96,.94-1.92,1.79-2.88,2.54-.95,.75-1.95,1.39-2.98,1.91-1.04,.52-2.15,.91-3.35,1.18-1.2,.27-2.52,.41-3.95,.41-1.2,0-2.36-.18-3.49-.53-1.13-.35-2.13-.89-3-1.62-.87-.73-1.57-1.66-2.1-2.81-.53-1.14-.79-2.51-.79-4.11,0-1.48,.42-2.86,1.27-4.13,.85-1.27,2.17-2.38,3.97-3.32,1.8-.94,4.12-1.69,6.95-2.26,2.83-.56,6.24-.89,10.21-.99v-3.67c0-3.25-.7-5.75-2.1-7.5-1.4-1.75-3.48-2.63-6.23-2.63-1.69,0-3.14,.24-4.32,.71-1.19,.47-2.19,.99-3.02,1.55-.82,.56-1.49,1.08-2.01,1.55-.52,.47-.95,.7-1.31,.7-.47,0-.82-.21-1.06-.64l-.6-1.02c1.84-1.83,3.76-3.22,5.79-4.16,2.02-.94,4.32-1.41,6.88-1.41,1.88,0,3.53,.3,4.94,.9,1.41,.6,2.58,1.46,3.51,2.58s1.63,2.47,2.1,4.06c.47,1.59,.71,3.36,.71,5.31v22.87h-1.34Zm-14.11-1.87c1.36,0,2.62-.15,3.76-.44,1.14-.29,2.2-.71,3.18-1.24,.98-.53,1.89-1.16,2.73-1.89,.85-.73,1.68-1.52,2.5-2.36v-9.14c-3.34,.09-6.22,.35-8.63,.76-2.41,.41-4.4,.97-5.96,1.68-1.56,.71-2.72,1.55-3.46,2.52-.74,.98-1.11,2.09-1.11,3.33,0,1.18,.19,2.19,.58,3.05,.39,.86,.9,1.57,1.53,2.12,.64,.55,1.38,.96,2.22,1.22,.85,.26,1.73,.39,2.65,.39Z"/>
        <path class="cls-1" d="M500.92,170.27v-35.11h1.76c.4,0,.69,.08,.86,.25,.18,.16,.28,.45,.3,.85l.28,7.41c1.13-2.85,2.63-5.07,4.52-6.69,1.88-1.61,4.2-2.42,6.95-2.42,1.06,0,2.03,.11,2.93,.34s1.74,.55,2.54,.97l-.46,2.33c-.07,.38-.31,.56-.71,.56-.14,0-.34-.05-.6-.14-.26-.09-.58-.2-.97-.32s-.86-.22-1.43-.32c-.57-.09-1.21-.14-1.94-.14-2.66,0-4.84,.82-6.55,2.47-1.71,1.65-3.09,4.02-4.15,7.13v22.83h-3.35Z"/>
        <path class="cls-1" d="M554.37,134.6c1.98,0,3.8,.34,5.49,1.02s3.14,1.68,4.38,2.98c1.23,1.31,2.2,2.91,2.89,4.82,.69,1.91,1.04,4.09,1.04,6.56,0,.52-.08,.87-.23,1.06s-.39,.28-.72,.28h-25.34v.67c0,2.63,.31,4.95,.92,6.95,.61,2,1.48,3.68,2.61,5.03,1.13,1.35,2.49,2.37,4.09,3.05,1.6,.68,3.39,1.02,5.36,1.02,1.76,0,3.29-.19,4.59-.58,1.29-.39,2.38-.82,3.26-1.31,.88-.48,1.58-.92,2.1-1.31s.89-.58,1.13-.58c.31,0,.54,.12,.7,.35l.92,1.13c-.56,.71-1.31,1.36-2.24,1.98-.93,.61-1.96,1.13-3.11,1.57s-2.36,.78-3.67,1.04c-1.31,.26-2.62,.39-3.93,.39-2.4,0-4.59-.42-6.56-1.25s-3.67-2.05-5.09-3.65c-1.42-1.6-2.51-3.56-3.28-5.88-.77-2.32-1.16-4.97-1.16-7.96,0-2.52,.36-4.84,1.08-6.97,.72-2.13,1.75-3.96,3.11-5.5,1.35-1.54,3.01-2.75,4.98-3.62,1.96-.87,4.19-1.31,6.69-1.31Zm.05,2.51c-1.81,0-3.43,.28-4.86,.85-1.43,.56-2.67,1.38-3.72,2.43-1.05,1.06-1.89,2.33-2.54,3.81-.65,1.48-1.07,3.14-1.29,4.98h23.11c0-1.88-.26-3.57-.77-5.06-.52-1.49-1.24-2.76-2.18-3.79s-2.07-1.83-3.38-2.38c-1.32-.55-2.77-.83-4.37-.83Z"/>
      </g>
      <path class="cls-2" d="M3.42,77.04c-1.18-.32-2.19-1.1-2.8-2.16-.61-1.06-.77-2.32-.45-3.51,.32-1.18,1.1-2.19,2.16-2.8,1.06-.61,2.32-.77,3.51-.45l41.91,11.23h0c2.63,.72,5.4,.75,8.04,.06l.24-.06c2.53-.75,4.83-2.14,6.67-4.03h.01S130.05,8,130.05,8c.87-.87,2.04-1.35,3.27-1.35s2.4,.49,3.27,1.35c.87,.87,1.35,2.04,1.35,3.27s-.49,2.4-1.35,3.27L69.24,81.88h.01c-2.98,3.03-6.69,5.22-10.77,6.39-.1,.04-.21,.07-.32,.1-4.2,1.11-8.62,1.08-12.81-.07h0S3.42,77.04,3.42,77.04Zm15.58-15.55l21.45,5.75c4.19,1.17,8.62,1.19,12.82,.06,4.2-1.12,8.03-3.35,11.08-6.46l27.51-27.51c.87-.87,1.36-2.05,1.36-3.29s-.49-2.41-1.36-3.29-2.05-1.36-3.29-1.36-2.41,.49-3.28,1.36l-27.51,27.51c-2.04,2.04-4.41,3.43-6.93,4.1-2.52,.67-5.25,.66-8.03-.09l-21.44-5.74c-.59-.17-1.21-.22-1.82-.14-.61,.07-1.2,.27-1.74,.57-.53,.3-1,.71-1.38,1.2-.38,.49-.65,1.04-.81,1.64-.16,.59-.2,1.21-.11,1.82,.08,.61,.29,1.2,.6,1.72,.31,.53,.73,.99,1.22,1.36,.49,.37,1.06,.63,1.65,.78Zm83.72,103.53l-11.23-41.91c-.73-2.63-.76-5.4-.07-8.04l.06-.24c.75-2.53,2.13-4.83,4.01-6.68L162.84,40.79c.87-.87,1.35-2.04,1.35-3.27s-.49-2.4-1.35-3.27c-.87-.87-2.04-1.35-3.27-1.35-1.23,0-2.4,.49-3.27,1.35L88.97,101.6c-3.02,2.97-5.22,6.68-6.39,10.75-.04,.1-.07,.21-.1,.32-1.11,4.2-1.08,8.62,.07,12.81h0l11.24,41.94c.32,1.18,1.1,2.19,2.16,2.8,1.06,.61,2.32,.77,3.51,.45,1.18-.32,2.19-1.1,2.8-2.16,.61-1.06,.77-2.32,.45-3.51h0Zm15.57-15.57l-5.74-21.43c-.73-2.63-.76-5.4-.07-8.04l.06-.24c.75-2.53,2.14-4.82,4.03-6.67l27.51-27.51c.87-.87,1.36-2.05,1.36-3.29s-.49-2.41-1.36-3.29c-.87-.87-2.05-1.36-3.28-1.36s-2.41,.49-3.29,1.36l-27.5,27.51c-3.02,2.98-5.21,6.69-6.37,10.77-.04,.1-.07,.21-.1,.32-1.11,4.2-1.08,8.62,.07,12.81h0l5.75,21.46c.16,.59,.43,1.13,.8,1.61,.37,.48,.83,.88,1.36,1.19,.53,.3,1.11,.5,1.71,.58,.6,.08,1.21,.04,1.8-.12,.59-.16,1.13-.43,1.61-.8s.88-.83,1.19-1.36c.3-.53,.5-1.11,.58-1.71,.08-.6,.04-1.21-.12-1.8h0ZM154,10.27L13.87,150.4c-.87,.87-1.36,2.05-1.36,3.29s.49,2.41,1.36,3.28c.87,.87,2.05,1.36,3.29,1.36s2.41-.49,3.29-1.36L160.57,16.84c.85-.87,1.32-2.05,1.32-3.27,0-1.22-.5-2.39-1.36-3.25-.86-.86-2.03-1.35-3.25-1.36-1.22,0-2.39,.46-3.27,1.31ZM42.41,95.61l-29.32,29.32c-.87,.87-1.36,2.05-1.36,3.28,0,1.23,.49,2.41,1.36,3.28,.87,.87,2.05,1.36,3.28,1.36,1.23,0,2.41-.49,3.28-1.36l29.31-29.32c.43-.43,.77-.94,1.01-1.51,.23-.56,.35-1.17,.35-1.78s-.12-1.21-.35-1.78c-.23-.56-.58-1.08-1.01-1.51-.43-.43-.94-.77-1.51-1.01-.56-.23-1.17-.35-1.78-.35s-1.21,.12-1.78,.35c-.56,.23-1.08,.58-1.51,1.01h0Zm26.26,26.27l-29.32,29.33c-.87,.87-1.36,2.05-1.36,3.28,0,1.23,.49,2.41,1.36,3.28,.87,.87,2.05,1.36,3.28,1.36,1.23,0,2.41-.49,3.28-1.36l29.31-29.33c.85-.87,1.32-2.05,1.31-3.27,0-1.22-.5-2.39-1.36-3.25s-2.03-1.35-3.25-1.36c-1.22,0-2.39,.46-3.27,1.32Z"/>
      <path class="cls-1" d="M563.46,11.62c0-1.07,.14-2.1,.41-3.09,.28-.99,.66-1.91,1.17-2.78,.5-.86,1.11-1.64,1.82-2.35,.71-.7,1.49-1.31,2.35-1.82,.86-.51,1.78-.9,2.76-1.17,.99-.27,2.01-.41,3.08-.41s2.1,.14,3.09,.41c.99,.27,1.91,.67,2.77,1.17,.86,.51,1.64,1.11,2.35,1.82s1.32,1.49,1.82,2.35c.5,.86,.89,1.79,1.17,2.78,.28,.99,.41,2.02,.41,3.09s-.14,2.08-.41,3.07c-.28,.99-.66,1.91-1.17,2.77-.5,.86-1.11,1.64-1.82,2.34-.71,.7-1.49,1.31-2.35,1.82-.86,.51-1.78,.9-2.77,1.17-.99,.27-2.02,.41-3.09,.41s-2.1-.14-3.08-.41c-.98-.27-1.91-.67-2.76-1.17-.86-.51-1.64-1.11-2.35-1.82-.71-.7-1.32-1.48-1.82-2.34-.5-.86-.89-1.78-1.17-2.76-.28-.98-.41-2.01-.41-3.08Zm1.59,0c0,.94,.12,1.85,.35,2.71,.23,.87,.57,1.68,1,2.44,.43,.76,.95,1.44,1.56,2.06,.6,.61,1.28,1.14,2.02,1.58,.74,.44,1.54,.78,2.4,1.02,.86,.24,1.75,.36,2.68,.36,1.4,0,2.71-.26,3.93-.79s2.29-1.25,3.19-2.17c.91-.92,1.62-1.99,2.14-3.22s.79-2.56,.79-3.98c0-.94-.12-1.85-.36-2.73-.24-.88-.57-1.7-1.01-2.45s-.96-1.45-1.56-2.07c-.61-.62-1.28-1.16-2.02-1.59-.74-.44-1.54-.78-2.41-1.02-.86-.24-1.76-.36-2.69-.36-1.4,0-2.7,.27-3.92,.8-1.22,.54-2.28,1.26-3.18,2.19-.9,.93-1.61,2.01-2.13,3.25-.52,1.24-.78,2.57-.78,3.99Zm7.72,1.43v5.62h-2.48V4.51h4.57c1.82,0,3.17,.33,4.05,.99s1.32,1.64,1.32,2.93c0,.99-.28,1.84-.85,2.54-.57,.7-1.41,1.18-2.53,1.44,.18,.11,.34,.24,.47,.4s.26,.34,.37,.56l3.62,5.3h-2.35c-.35,0-.61-.13-.78-.4l-3.19-4.79c-.1-.14-.21-.24-.34-.32-.13-.07-.34-.11-.61-.11h-1.27Zm0-1.81h1.84c.58,0,1.08-.05,1.48-.17,.41-.11,.74-.27,.99-.48,.25-.21,.43-.47,.54-.78,.11-.31,.17-.66,.17-1.06s-.05-.74-.15-1.03c-.1-.3-.26-.54-.49-.73s-.53-.33-.9-.43c-.37-.1-.83-.14-1.38-.14h-2.1v4.82Z"/>
    </g>
  </g>
</svg>