<?xml version="1.0" encoding="UTF-8"?>
<svg id="Layer_2" data-name="Layer 2" xmlns="http://www.w3.org/2000/svg" viewBox="0 0 711.66 104.17">
  <defs>
    <style>
      .cls-1 {
        fill: #62d84e;
      }

      .cls-1, .cls-2 {
        fill-rule: evenodd;
      }
    </style>
  </defs>
  <g id="X_icon" data-name="X icon">
    <g>
      <g>
        <path class="cls-2" d="M171.4,31.97c-7.58,0-14.17,2.64-19.78,6.92v-6.26h-17.8V102.18h18.46V57.68c2.64-3.63,8.9-8.57,16.81-8.57,2.97,0,5.27,.33,7.58,.99v-17.8c-1.65-.33-3.63-.33-5.27-.33"/>
        <path class="cls-2" d="M8.9,81.09c4.61,4.28,11.87,6.92,19.12,6.92,4.94,0,8.9-2.31,8.9-5.93,0-10.55-33.62-6.59-33.62-29.34,0-13.51,12.85-21.75,26.7-21.75,8.9,0,18.79,3.3,23.4,6.92l-8.57,13.51c-3.63-2.64-8.24-4.61-13.18-4.61-5.27,0-9.56,1.98-9.56,5.6,0,8.9,33.62,5.6,33.62,29.67,0,13.51-13.18,21.42-27.69,21.42-9.56,0-19.78-3.3-28.02-9.23l8.9-13.18Z"/>
        <path class="cls-2" d="M125.91,66.91c0-19.45-13.51-35.6-32.63-35.6-20.77,0-33.95,16.81-33.95,36.26,0,21.75,15.49,36.26,36.26,36.26,10.88,0,21.75-4.61,28.35-12.53l-10.55-10.55c-3.3,3.63-9.56,7.91-17.47,7.91-9.89,0-17.8-6.59-18.79-16.48h48.12c.33-1.65,.66-3.3,.66-5.27Zm-47.79-8.24c.99-6.26,7.25-12.2,14.83-12.2s13.18,5.93,13.84,12.2h-28.68Z"/>
        <polygon class="cls-2" points="221.17 75.15 239.96 32.63 259.41 32.63 227.43 102.51 214.58 102.51 182.61 32.63 202.05 32.63 221.17 75.15"/>
        <g>
          <path class="cls-2" d="M275.23,0c6.59,0,12.2,5.27,12.2,11.87s-5.6,11.87-12.2,11.87-12.2-5.27-12.2-11.87c0-6.59,5.27-11.87,12.2-11.87"/>
          <rect x="265.67" y="32.63" width="18.46" height="69.55"/>
        </g>
        <path class="cls-2" d="M361.26,88.01c-8.24,10.88-18.46,15.82-31.64,15.82-21.42,0-37.25-16.15-37.25-36.26s16.15-36.26,37.25-36.26c11.87,0,22.74,5.6,29.34,13.84l-13.18,11.54c-3.63-4.94-9.23-8.24-16.15-8.24-10.88,0-18.79,8.57-18.79,19.12s7.91,19.12,19.12,19.12c7.58,0,13.51-4.61,16.48-9.23l14.83,10.55Z"/>
        <path class="cls-2" d="M428.83,91.3c-6.59,7.91-17.8,12.53-28.35,12.53-20.77,0-36.26-14.5-36.26-36.26,0-19.45,13.18-36.26,33.95-36.26,19.12,0,32.63,16.15,32.63,35.6,0,1.98,0,3.63-.33,5.27h-48.12c.99,9.89,8.9,16.48,18.79,16.48,7.91,0,14.17-4.61,17.47-7.91l10.22,10.55Zm-17.14-32.63c-.66-6.26-6.26-12.2-13.84-12.2s-14.17,5.93-14.83,12.2h28.68Z"/>
        <path class="cls-2" d="M438.06,102.51V32.63h17.8v5.6c5.27-4.28,11.87-6.92,19.78-6.92,9.56,0,18.46,4.28,24.06,11.21,4.61,5.6,7.25,12.53,7.25,24.39v35.6h-18.46v-36.92c0-6.92-1.65-10.55-4.29-13.18-2.31-2.31-6.26-3.96-10.55-3.96-7.91,0-14.17,4.94-16.81,8.57v45.16h-18.79v.33Z"/>
        <path class="cls-1" d="M554.74,31.31c-22.08,0-40.54,18.13-40.87,40.54,0,11.87,4.94,22.41,12.85,29.99,2.97,2.64,7.25,2.97,10.55,.66,4.61-3.63,10.55-5.6,17.47-5.6s12.85,2.31,17.47,5.6c3.3,2.31,7.58,2.31,10.55-.66,7.91-7.58,12.53-17.8,12.53-29.67-.33-22.74-18.13-40.87-40.54-40.87m-.33,60.98c-12.2,0-20.44-9.23-20.44-20.44s8.24-20.44,20.44-20.44,20.44,9.23,20.44,20.44-8.24,20.44-20.44,20.44"/>
        <polygon class="cls-2" points="631.87 102.51 618.03 102.51 590.34 32.63 609.13 32.63 624.29 72.52 639.12 32.63 654.61 32.63 669.45 72.52 684.61 32.63 703.07 32.63 675.38 102.51 661.54 102.51 646.7 62.63 631.87 102.51"/>
      </g>
      <g>
        <path d="M703.4,94.6h-1.65v2.97h-1.32v-8.24h3.3c1.32,0,2.64,1.32,2.64,2.64,0,.99-.66,1.98-1.65,2.31l1.98,3.3h-1.32l-1.98-2.97Zm-1.65-1.32h1.98c.66,0,1.32-.66,1.32-1.32s-.66-1.32-1.32-1.32h-1.98v2.64Z"/>
        <path d="M703.07,86.03c4.29,0,7.58,3.3,7.58,7.58s-3.3,7.58-7.58,7.58-7.58-3.3-7.58-7.58,3.63-7.58,7.58-7.58m0-.99c-4.94,0-8.57,3.96-8.57,8.57,0,4.94,3.96,8.57,8.57,8.57,4.94,0,8.57-3.96,8.57-8.57,.33-4.94-3.63-8.57-8.57-8.57h0Z"/>
      </g>
    </g>
  </g>
</svg>