<?xml version="1.0" encoding="UTF-8"?>
<svg id="Layer_2" data-name="Layer 2" xmlns="http://www.w3.org/2000/svg" viewBox="0 0 696 150.97">
  <g id="Sponsor_logos" data-name="Sponsor logos">
    <g>
      <path d="M230.28,91.1l19.76-4.6c.2-.05,.39,.07,.45,.27,3.62,13.52,14.35,20.11,32.37,20.11,13.94,0,22.58-4.06,22.58-10.41,0-6-5.11-9.53-29.46-13.41-30.87-5.12-41.11-13.76-41.11-28.05,0-16.41,16.94-28.93,40.93-28.93s44.16,11.65,49.29,28.74c.06,.2-.06,.42-.26,.47l-19.41,5.28c-.19,.05-.38-.05-.45-.24-3.66-10.21-15.03-16.26-29.17-16.26-10.94,0-19.05,4.59-19.05,10.58,0,4.41,4.41,7.23,28.05,11.47,32.81,6.18,42.52,15.17,42.52,30.34,0,16.05-18.17,28.4-44.46,28.4-28.42,0-48.81-12.73-52.86-33.34-.04-.2,.09-.39,.29-.44h0s0,0,0,0Z"/>
      <path d="M339.98,121.86V29.11c0-.21,.17-.37,.37-.37h21.13c.21,0,.37,.17,.37,.37V121.86c0,.21-.17,.37-.37,.37h-21.13c-.21,0-.37-.17-.37-.37h0Z"/>
      <path d="M378.17,121.86V29.11c0-.21,.17-.37,.38-.37h20.07c.21,0,.37,.17,.37,.37v8.62h.35c6.35-6.7,15.35-10.76,26.29-10.76,5.17,0,9.67,.84,14.66,2.36,.19,.06,.3,.25,.26,.45l-4.6,19.22c-.05,.2-.26,.33-.46,.28-4.74-1.18-8.05-1.85-12.86-1.85-13.58,0-22.58,9.17-22.58,27.7v46.73c0,.21-.17,.37-.38,.37h-21.13c-.21,0-.38-.17-.38-.37h0Z"/>
      <path d="M449.97,121.86V29.11c0-.21,.17-.37,.38-.37h21.13c.21,0,.37,.17,.37,.37V121.86c0,.21-.17,.37-.37,.37h-21.13c-.21,0-.38-.17-.38-.37h0Z"/>
      <path d="M482.43,75.49c0-27.87,21.87-49.4,52.04-49.4s52.04,21.52,52.04,49.4-21.7,49.4-52.04,49.4-52.04-21.35-52.04-49.4Zm82.21,0c0-17.64-12.17-30.17-30.17-30.17s-30.17,12.53-30.17,30.17,12.17,30.17,30.17,30.17,30.17-12.53,30.17-30.17Z"/>
      <path d="M597.56,121.86V29.11c0-.21,.17-.37,.37-.37h20.42c.21,0,.38,.17,.38,.37v9.33h.35c7.59-7.94,19.58-12.35,32.29-12.35,26.64,0,44.63,16.94,44.63,41.63v54.14c0,.21-.17,.37-.38,.37h-21.13c-.21,0-.37-.17-.37-.37v-50.79c0-15.88-10.06-25.4-26.29-25.4s-28.4,10.41-28.4,25.58v50.61c0,.21-.17,.37-.37,.37h-21.13c-.21,0-.37-.17-.37-.37h0Z"/>
      <path d="M174.73,78.23c0-10.83,0-15.02-.55-20.32-1.37-13.27-6.29-24.37-14.63-32.98-7.91-8.17-18.62-14.51-31.83-18.86C115.64,2.1,101.68,0,87.37,0s-28.27,2.1-40.36,6.08c-9.31,3.06-17.38,7.13-24.1,12.12-2.79,2.07-5.36,4.31-7.68,6.7-2.06,1.99-4.26,4.89-6.55,8.62-4.07,6.63-3.23,15.23,2.06,20.88,4.23,4.52,12.98,11.07,38.09,17.14,11.58,2.8,24.58,5.18,37.89,7.58,13.43,2.42,27.07,4.88,39,7.88-.19,2.6-.54,4.38-1.23,5.09-1.07,1.1-3.02,2.52-5.86,3.94-6.14,3.06-16.44,6.13-31.25,6.13-21.52,0-33.74-6.59-37.12-10.07-1.05-1.08-1.33-4.66-1.4-9.83-2.51-.59-4.98-1.21-7.39-1.85,.05,9.07,.45,13.65,3.5,16.8,3.1,3.2,8.47,6.17,15.14,8.35,7.91,2.59,17.3,3.97,27.27,3.97s19.36-1.37,27.27-3.97c5.75-1.89,10.55-4.36,13.74-7.06,.51-.43,.97-.86,1.4-1.3,1.89-1.95,2.76-4.47,3.16-8.26,2.17,.63,4.26,1.29,6.25,1.97-.42,2.94-1.36,6.6-3.86,9.72-.29,.36-.59,.71-.92,1.05-6.68,6.9-22.48,14.28-47.04,14.28s-40.36-7.38-47.04-14.28c-3.71-3.83-4.61-8.81-4.96-12.23-.31-2.96-.35-6.41-.36-10.89-2.5-.7-7.04-2.32-7.37-2.45,0,5.93,0,10.23,.4,14.09,.47,4.5,1.7,11.12,6.99,16.6,4.36,4.5,11.23,8.55,19.36,11.41,9.67,3.4,20.56,5.12,32.98,5.12s23.31-1.72,32.97-5.12c8.12-2.85,15-6.9,19.36-11.41,1.07-1.1,1.97-2.26,2.74-3.43,2.15-3.3,3.21-6.75,3.77-9.76,2.17,.95,4.17,1.95,5.96,3.01-.69,2.87-1.89,6.35-4.04,9.79-1.03,1.66-2.28,3.3-3.8,4.88-11.21,11.58-32.58,18.49-56.97,18.49s-45.76-6.91-56.97-18.49c-7.46-7.71-8.45-17.28-8.78-20.42-.44-4.21-.44-9.99-.44-17.33-2.67-1.18-5.12-2.41-7.36-3.71,0,13.63-.01,17.21,.46,21.8,.39,3.77,1.57,15.25,10.81,24.79,12.57,12.98,35.84,20.73,62.26,20.73s49.69-7.75,62.26-20.73c.79-.82,1.52-1.65,2.2-2.49,3.4-4.21,5.43-8.62,6.66-12.47,3.31,3.36,3.68,8.48,1.27,12.34-1.74,2.78-3.58,5.17-5.47,7.09l-.02,.02c-.78,.8-1.6,1.59-2.44,2.35-6.81,6.19-15.66,11.1-26.4,14.63-11.35,3.73-24.51,5.71-38.05,5.71s-26.7-1.97-38.05-5.71c-12.06-3.97-21.77-9.68-28.84-16.98-7.16-7.39-11.39-17.02-12.59-28.61-.51-4.92-.66-14.13-.42-26.77-.36-.29-3.94-3.03-6.95-7.14C-.12,63.56,.01,76.01,.01,76.01,.01,82.57,.01,87.75,.56,93.05c1.37,13.27,6.29,24.37,14.63,32.98,7.91,8.17,18.62,14.51,31.83,18.86,12.09,3.97,26.04,6.08,40.36,6.08s28.27-2.1,40.36-6.08c9.31-3.06,17.38-7.13,24.1-12.12,2.81-2.08,5.39-4.33,7.72-6.73,2.27-2.3,4.44-5.11,6.46-8.35,4.16-6.67,3.37-15.34-1.94-21.05-5.25-5.66-15.19-11.63-38.16-17.21-11.58-2.81-24.58-5.18-37.89-7.58-13.43-2.42-27.07-4.88-39-7.88,.19-2.6,.54-4.38,1.23-5.09,1.07-1.1,3.02-2.52,5.86-3.94,6.14-3.06,16.46-6.13,31.25-6.13,21.64,0,33.74,6.59,37.11,10.07,1.05,1.08,1.33,4.66,1.4,9.83,2.51,.59,4.98,1.21,7.39,1.85-.05-9.07-.45-13.65-3.5-16.8-3.1-3.2-8.47-6.17-15.14-8.35-7.91-2.59-17.34-3.97-27.27-3.97s-19.36,1.37-27.27,3.97c-5.75,1.89-10.55,4.36-13.74,7.06-.51,.43-.97,.86-1.4,1.3-1.89,1.95-2.76,4.47-3.16,8.26-2.17-.63-4.26-1.29-6.25-1.97,.42-2.94,1.36-6.6,3.86-9.72,.29-.36,.59-.71,.92-1.05,6.68-6.9,22.55-14.28,47.04-14.28s40.36,7.38,47.04,14.28c3.71,3.83,4.61,8.81,4.96,12.23,.31,2.96,.35,6.41,.36,10.89,2.39,.65,7.04,2.32,7.37,2.45,0-5.93,0-10.23-.4-14.09-.47-4.5-1.7-11.12-6.99-16.6-4.36-4.5-11.23-8.55-19.36-11.41-9.67-3.4-20.77-5.12-32.97-5.12s-23.31,1.72-32.97,5.12c-8.12,2.85-15,6.9-19.36,11.41-1.07,1.1-1.97,2.26-2.74,3.43-2.15,3.3-3.21,6.75-3.77,9.76-2.17-.95-4.17-1.95-5.96-3.01,.69-2.87,1.89-6.35,4.04-9.79,1.03-1.66,2.28-3.3,3.8-4.88,11.21-11.58,32.5-18.49,56.97-18.49s45.76,6.91,56.97,18.49c7.46,7.71,8.45,17.28,8.78,20.42,.44,4.21,.44,8.58,.44,17.33,2.67,1.18,5.12,2.41,7.36,3.71,0-14.32,.01-17.21-.46-21.8-.39-3.77-1.57-15.25-10.81-24.79-12.57-12.98-35.84-20.73-62.26-20.73s-49.69,7.75-62.26,20.73c-.79,.82-1.52,1.65-2.2,2.49-3.4,4.21-5.43,8.62-6.66,12.47-3.22-3.31-3.65-8.32-1.3-12.14,3.39-5.51,5.66-7.55,7.96-9.66,6.78-6.22,15.66-11.1,26.4-14.63,11.35-3.73,24.51-5.71,38.06-5.71s26.7,1.97,38.05,5.71c12.06,3.97,21.77,9.68,28.84,16.98,7.16,7.39,11.39,17.02,12.59,28.61,.51,4.92,.54,7.53,.46,26.8,.35,.28,4.18,3.31,6.92,7.12,.51-4.54,.5-9.11,.5-14.36h0Z"/>
    </g>
  </g>
</svg>