<?xml version="1.0" encoding="UTF-8"?>
<svg id="Layer_2" data-name="Layer 2" xmlns="http://www.w3.org/2000/svg" viewBox="0 0 696 134.13">
  <defs>
    <style>
      .cls-1 {
        fill: #004f59;
      }

      .cls-2 {
        fill: #00bbd3;
      }
    </style>
  </defs>
  <g id="Sponsor_logos" data-name="Sponsor logos">
    <g>
      <path class="cls-2" d="M36.98,45.67c1.07-4.32,3.04-8.37,5.77-11.88,2.74-3.51,6.18-6.4,10.11-8.49,7.12-3.78,15.4-4.71,23.17-2.6l.17,.05s.05,.02,.05,.07c0,0,.01,.05-.06,.07l-.1,.02c-14.81,3.41-25.68,17.05-26.2,33.45-.2,5.23,.72,10.44,2.72,15.28,1.97,4.77,4.93,9.06,8.69,12.59l.04,.04s.03,.03,0,.07c0,0-.02,.01-.04,0h-.03c-4.12-.87-8.03-2.54-11.5-4.93-3.52-2.43-6.52-5.54-8.81-9.16-2.29-3.62-3.82-7.66-4.51-11.89-.68-4.23-.5-8.55,.53-12.7"/>
      <path class="cls-2" d="M71.2,33.36c3.38-1.73,7.09-2.74,10.89-2.96,3.8-.22,7.6,.34,11.17,1.67,6.45,2.4,11.73,7.13,14.76,13.22l.07,.14s.02,.05-.02,.07c0,0-.02,.03-.08,0l-.07-.05c-10.56-7.47-25.46-6.76-36.28,2.05-3.47,2.78-6.29,6.28-8.26,10.24-1.95,3.91-3.02,8.17-3.16,12.52v.05s0,.04-.05,.04c0,0-.02,0-.03-.02v-.02c-1.79-3.09-2.93-6.5-3.36-10.03-.44-3.58-.13-7.22,.9-10.69,1.03-3.46,2.76-6.69,5.08-9.48,2.33-2.79,5.2-5.08,8.45-6.75"/>
      <path class="cls-2" d="M127,67.06c0,33.05-26.89,59.94-59.94,59.94-33.05,0-59.94-26.89-59.94-59.94,0-33.05,26.89-59.94,59.94-59.94s59.94,26.89,59.94,59.94h0ZM67.07,0C30.09,0,0,30.09,0,67.07c0,36.98,30.08,67.06,67.06,67.06,36.98,0,67.06-30.09,67.06-67.07C134.13,30.09,104.05,0,67.07,0h0Z"/>
      <path class="cls-2" d="M72.99,90.88c-.62,0-1.83,.16-1.83,.16-1.64,.22-3.32,.35-5.02,.35-20.59,0-37.28-16.69-37.28-37.28,0-7.77,2.42-14.91,6.49-20.88,0,0,.04-.04,0-.09-.04-.05-.09-.02-.09-.02-9.05,8.49-14.71,20.55-14.71,33.94,0,25.69,20.82,46.51,46.51,46.51,2.66,0,5.28-.22,7.82-.65h0c5.22-.9,9.18-5.48,9.18-10.95,0-6.12-4.96-11.08-11.08-11.08h0Z"/>
      <polygon class="cls-1" points="188.55 99.02 188.55 44.89 169.16 44.89 169.16 35 219.16 35 219.16 44.89 199.78 44.89 199.78 99.02 188.55 99.02 188.55 99.02"/>
      <path class="cls-1" d="M238.73,89.13h12.57c13.92,0,21.98-9.98,21.98-22.07,0-12.38-7.68-22.17-21.98-22.17h-12.57s0,44.25,0,44.25h0Zm-11.23,9.88V35s23.8,0,23.8,0c19.96,0,33.5,13.24,33.5,32.06,0,18.81-13.53,31.96-33.5,31.96h-23.8Z"/>
      <path class="cls-1" d="M325.3,81.36c4.41,4.7,11.32,8.83,20.25,8.83s12.86-4.51,12.86-8.73c0-5.76-6.81-7.49-14.59-9.5-10.46-2.59-22.75-5.66-22.75-19.19,0-10.56,9.31-18.72,23.32-18.72,9.56,0,17.36,2.91,23.23,8.21l-5.66,9.06c-4.99-4.99-11.81-7.29-18.52-7.29s-10.85,3.17-10.85,7.97,6.53,6.62,14.11,8.54c10.56,2.69,23.13,5.95,23.13,19.87,0,10.65-7.49,19.77-24.76,19.77-11.51,0-19.91-3.92-25.57-9.72l5.8-9.09h0Z"/>
      <polygon class="cls-1" points="397.38 99.02 397.38 72.43 372.52 35 385.38 35 403.04 62.45 420.51 35 433.37 35 408.61 72.43 408.61 99.02 397.38 99.02 397.38 99.02"/>
      <polygon class="cls-1" points="485.26 99.02 451.86 52.37 451.86 99.02 440.63 99.02 440.63 35 452.14 35 484.87 80.4 484.87 35 496.1 35 496.1 99.02 485.26 99.02 485.26 99.02"/>
      <polygon class="cls-1" points="555.11 99.02 521.71 52.37 521.71 99.02 510.48 99.02 510.48 35 522 35 554.72 80.4 554.73 35 565.95 35 565.95 99.02 555.11 99.02 555.11 99.02"/>
      <polygon class="cls-1" points="580.33 99.02 580.33 35 624.2 35 624.19 44.89 591.56 44.89 591.56 61.49 623.52 61.49 623.52 71.37 591.56 71.37 591.56 89.13 624.19 89.13 624.19 99.02 580.33 99.02 580.33 99.02"/>
      <polygon class="cls-1" points="682.56 99.02 664.61 73.97 646.67 99.02 633.23 99.02 657.22 66.19 634.67 35 648.1 35 664.61 58.51 681.02 35 694.56 35 672.1 66.1 696 99.02 682.56 99.02 682.56 99.02"/>
    </g>
  </g>
</svg>