<?xml version="1.0" encoding="UTF-8"?>
<svg id="Layer_2" data-name="Layer 2" xmlns="http://www.w3.org/2000/svg" viewBox="0 0 152.17 95.77">
  <g id="logos_and_logotypes" data-name="logos and logotypes">
    <g id="logotype">
      <path id="_2024" data-name="2024" d="M24.07,95.15H.31v-4.46l11.83-10.89c1.69-1.56,3.11-3.22,4.25-4.97,1.14-1.75,1.71-3.51,1.71-5.28v-.62c0-2.01-.55-3.64-1.66-4.89-1.11-1.25-2.78-1.87-5.03-1.87-1.11,0-2.07,.16-2.9,.47-.83,.31-1.55,.74-2.15,1.3-.61,.55-1.11,1.2-1.5,1.95-.4,.74-.72,1.55-.96,2.41l-3.89-1.5c.35-1.07,.82-2.12,1.43-3.14,.6-1.02,1.37-1.92,2.28-2.71,.92-.78,2.02-1.42,3.32-1.89,1.3-.48,2.83-.72,4.59-.72s3.34,.26,4.72,.78c1.38,.52,2.54,1.24,3.48,2.18,.93,.93,1.65,2.04,2.15,3.32,.5,1.28,.75,2.7,.75,4.25,0,1.42-.2,2.73-.6,3.94-.4,1.21-.94,2.36-1.63,3.45-.69,1.09-1.53,2.15-2.52,3.19s-2.05,2.07-3.19,3.11l-9.75,8.79H24.07v3.84Zm18.52,.62c-4.32,0-7.48-1.64-9.47-4.93-1.99-3.28-2.98-7.88-2.98-13.8s.99-10.51,2.98-13.8c1.99-3.29,5.14-4.93,9.47-4.93s7.48,1.64,9.47,4.93c1.99,3.29,2.98,7.88,2.98,13.8s-.99,10.51-2.98,13.8c-1.99,3.29-5.14,4.93-9.47,4.93Zm0-3.84c1.42,0,2.63-.29,3.63-.88,1-.59,1.82-1.41,2.44-2.48,.62-1.07,1.08-2.33,1.37-3.77,.29-1.45,.44-3.05,.44-4.81v-5.89c0-1.76-.15-3.36-.44-4.81-.29-1.45-.75-2.71-1.37-3.77-.62-1.07-1.44-1.9-2.44-2.48-1-.59-2.21-.88-3.63-.88s-2.63,.29-3.63,.88c-1,.59-1.82,1.41-2.44,2.48-.62,1.07-1.08,2.33-1.37,3.77-.29,1.45-.44,3.05-.44,4.81v5.89c0,1.76,.15,3.36,.44,4.81,.29,1.45,.75,2.71,1.37,3.77,.62,1.07,1.43,1.9,2.44,2.48,1,.59,2.21,.88,3.63,.88Zm42.43,3.22h-23.76v-4.46l11.83-10.89c1.69-1.56,3.11-3.22,4.25-4.97,1.14-1.75,1.71-3.51,1.71-5.28v-.62c0-2.01-.55-3.64-1.66-4.89-1.11-1.25-2.78-1.87-5.03-1.87-1.11,0-2.07,.16-2.9,.47-.83,.31-1.55,.74-2.15,1.3-.61,.55-1.11,1.2-1.5,1.95-.4,.74-.72,1.55-.96,2.41l-3.89-1.5c.35-1.07,.82-2.12,1.43-3.14,.6-1.02,1.37-1.92,2.28-2.71,.92-.78,2.02-1.42,3.32-1.89,1.3-.48,2.83-.72,4.59-.72s3.34,.26,4.72,.78c1.38,.52,2.54,1.24,3.48,2.18,.93,.93,1.65,2.04,2.15,3.32,.5,1.28,.75,2.7,.75,4.25,0,1.42-.2,2.73-.6,3.94-.4,1.21-.94,2.36-1.63,3.45-.69,1.09-1.53,2.15-2.52,3.19s-2.05,2.07-3.19,3.11l-9.75,8.79h19.04v3.84Zm22.15,0v-7.11h-17.48v-3.84l15.15-25.26h6.48v25.47h5.24v3.63h-5.24v7.11h-4.15Zm-13.38-10.74h13.38v-22.1h-.26l-13.12,22.1Z"/>
      <path id="think" d="M92.78,38.96V12.19h7.68v4.88h.31c1.19-3.01,3.58-5.5,7.88-5.5,5.14,0,8.71,3.58,8.71,10.06v17.33h-7.68V22.67c0-3.37-1.5-5.19-4.51-5.19-2.39,0-4.72,1.3-4.72,3.89v17.58h-7.68ZM125.04,.57h7.68V22.36h.36l3.58-4.2,5.6-5.97h8.82l-10.37,10.58,11.46,16.18h-9.13l-7.78-11.83-2.54,2.54v9.29h-7.68V.57ZM63.6,32.99h8.51v-14.84h-8.51v-5.97h16.18v20.8h7.88v5.97h-24.07v-5.97Zm7.73-27.86v-1.5c0-2.08,1.19-3.63,4.62-3.63s4.62,1.56,4.62,3.63v1.5c0,2.02-1.19,3.63-4.62,3.63s-4.62-1.61-4.62-3.63ZM32.19,.57h7.68V17.07h.31c1.19-3.01,3.58-5.5,7.88-5.5,5.14,0,8.71,3.58,8.71,10.06v17.33h-7.68V22.67c0-3.37-1.5-5.19-4.51-5.19-2.39,0-4.72,1.3-4.72,3.89v17.58h-7.68V.57ZM15.46,38.96c-5.55,0-8.2-3.22-8.2-7.73v-13.07H0v-5.97H4.72c2.28,0,3.16-.78,3.16-3.16V2.75h7.05V12.19h10.43v5.97H14.94v14.84h10.43v5.97H15.46Z"/>
    </g>
  </g>
</svg>