<?xml version="1.0" encoding="UTF-8"?>
<svg id="Layer_2" data-name="Layer 2" xmlns="http://www.w3.org/2000/svg" viewBox="0 0 670 335">
  <defs>
    <style>
      .cls-1 {
        fill: #f57f28;
      }

      .cls-2 {
        fill: #ffce2f;
      }

      .cls-3 {
        fill: #7ec45f;
      }

      .cls-4 {
        fill: #746fa8;
      }

      .cls-5 {
        fill: #341d55;
      }

      .cls-6 {
        fill: #be266a;
      }

      .cls-7 {
        fill: #355494;
      }

      .cls-8 {
        fill: #3398b3;
      }
    </style>
  </defs>
  <g id="Sponsor_logos" data-name="Sponsor logos">
    <g>
      <path class="cls-3" d="M493.05,72.84c0,5.62-4.55,10.17-10.17,10.17s-10.17-4.55-10.17-10.17,4.55-10.17,10.17-10.17,10.17,4.55,10.17,10.17h0Z"/>
      <path class="cls-7" d="M561.41,97.79c-9.36,0-16.95,7.59-16.95,16.95s7.59,16.95,16.95,16.95,16.95-7.59,16.95-16.95-7.59-16.95-16.95-16.95h0Z"/>
      <path class="cls-2" d="M493.05,262.16c0-5.62-4.55-10.17-10.17-10.17s-10.17,4.55-10.17,10.17,4.55,10.17,10.17,10.17,10.17-4.55,10.17-10.17h0Z"/>
      <path class="cls-6" d="M578.36,220.26c0-9.36-7.59-16.95-16.95-16.95s-16.95,7.59-16.95,16.95,7.59,16.95,16.95,16.95,16.95-7.59,16.95-16.95h0Z"/>
      <path class="cls-8" d="M537.05,85.89c-1.85,6.88-8.91,10.96-15.78,9.11-6.87-1.85-10.95-8.9-9.11-15.78,1.84-6.87,8.91-10.95,15.78-9.1,6.87,1.84,10.95,8.9,9.11,15.77h0Z"/>
      <path class="cls-1" d="M537.05,255.76c-1.85,6.88-8.91,10.96-15.78,9.11-6.87-1.84-10.95-8.9-9.11-15.78,1.84-6.87,8.91-10.95,15.78-9.1,6.87,1.84,10.95,8.9,9.11,15.77h0Z"/>
      <path class="cls-4" d="M596.72,167.6c0-10.65-8.63-19.28-19.28-19.28s-19.28,8.63-19.28,19.28c0,10.65,8.63,19.28,19.28,19.28s19.28-8.63,19.28-19.28h0Z"/>
      <path class="cls-5" d="M73.28,125.08h21.88l17.03,53.9,20.01-53.9h19.22l19.69,53.9,17.66-53.9h21.88l-28.6,84.39h-20.32l-20.16-55.01-20.32,55.01h-20.63l-27.35-84.39h0Zm405.13,65.73c3.23,0,6.26-.63,9.07-1.88,2.81-1.25,5.26-2.92,7.35-5.01,2.09-2.08,3.73-4.56,4.93-7.43,1.2-2.87,1.8-5.97,1.8-9.31s-.6-6.31-1.8-9.23c-1.2-2.92-2.84-5.42-4.93-7.51-2.09-2.09-4.54-3.75-7.35-5.01-2.82-1.25-5.84-1.88-9.07-1.88s-6.26,.63-9.07,1.88c-2.82,1.25-5.27,2.92-7.35,5.01-2.09,2.09-3.73,4.59-4.93,7.51-1.2,2.92-1.8,6-1.8,9.23s.6,6.44,1.8,9.31c1.2,2.87,2.84,5.35,4.93,7.43,2.09,2.09,4.54,3.75,7.35,5.01,2.82,1.25,5.84,1.88,9.07,1.88h0Zm-.16,20.49c-6.36,0-12.26-1.15-17.68-3.44-5.42-2.29-10.14-5.45-14.16-9.46-4.02-4.01-7.15-8.68-9.39-14-2.24-5.32-3.36-11-3.36-17.05s1.12-11.76,3.36-17.13c2.24-5.37,5.37-10.04,9.39-14,4.01-3.96,8.73-7.09,14.16-9.39,5.42-2.29,11.32-3.44,17.68-3.44s12.12,1.15,17.6,3.44c5.48,2.29,10.22,5.43,14.24,9.39,4.01,3.96,7.17,8.63,9.46,14,2.29,5.37,3.44,11.08,3.44,17.13s-1.15,11.73-3.44,17.05c-2.29,5.32-5.43,9.99-9.39,14-3.96,4.02-8.68,7.17-14.16,9.46-5.48,2.29-11.4,3.44-17.76,3.44h0Zm-106.59-86.2h21.28v12.98c2.09-5.01,5.14-8.68,9.15-11.03,4.01-2.35,8.73-3.52,14.16-3.52,2.82,0,5.45,.31,7.9,.94,2.45,.63,4.56,1.41,6.34,2.35l-7.82,21.28c-1.15-.83-2.71-1.54-4.69-2.11-1.98-.57-4.17-.86-6.57-.86-5.53,0-9.96,1.54-13.3,4.62-3.34,3.08-5.01,8.16-5.01,15.25v44.58h-21.43V125.1h0Zm-60.46,65.86c3.23,0,6.26-.63,9.07-1.88,2.82-1.25,5.29-2.95,7.43-5.08,2.14-2.14,3.81-4.64,5.01-7.51,1.2-2.87,1.8-5.97,1.8-9.31s-.6-6.44-1.8-9.31c-1.2-2.87-2.87-5.37-5.01-7.51-2.14-2.14-4.61-3.83-7.43-5.08-2.81-1.25-5.84-1.88-9.07-1.88s-6.44,.63-9.31,1.88c-2.87,1.25-5.35,2.95-7.43,5.08-2.09,2.14-3.73,4.67-4.93,7.59-1.2,2.92-1.8,6-1.8,9.23s.6,6.44,1.8,9.31c1.2,2.87,2.84,5.37,4.93,7.51,2.09,2.14,4.56,3.83,7.43,5.08,2.87,1.25,5.97,1.88,9.31,1.88h0Zm4.38,20.34c-5.74,0-10.9-1.02-15.49-3.05-4.59-2.03-8.29-5.03-11.11-8.99v52.45h-21.43V125.1h21.28v11.73c2.81-4.17,6.52-7.45,11.11-9.86,4.59-2.4,9.75-3.6,15.49-3.6,5.32,0,10.43,1.02,15.33,3.05,4.9,2.03,9.23,4.98,12.99,8.84,3.75,3.86,6.75,8.5,8.99,13.92,2.24,5.42,3.36,11.47,3.36,18.15s-1.15,12.85-3.44,18.22c-2.29,5.37-5.32,9.99-9.07,13.85-3.75,3.86-8.06,6.8-12.91,8.84-4.85,2.03-9.88,3.05-15.1,3.05h0Zm-76.35-123.95c-6.77-1.82-13.74,2.2-15.56,8.98-1.82,6.78,2.21,13.74,8.98,15.56,6.77,1.82,13.74-2.2,15.56-8.99,1.81-6.77-2.21-13.74-8.99-15.55h0Zm-13.43,37.75h22.06v84.48h-22.06V125.1h0Z"/>
    </g>
  </g>
</svg>