<?xml version="1.0" encoding="UTF-8"?>
<svg id="Layer_2" data-name="Layer 2" xmlns="http://www.w3.org/2000/svg" xmlns:xlink="http://www.w3.org/1999/xlink" viewBox="0 0 400 279.98">
  <defs>
    <style>
      .cls-1 {
        mask: url(#mask);
      }

      .cls-2 {
        fill: #00a1e0;
      }

      .cls-2, .cls-3 {
        fill-rule: evenodd;
      }

      .cls-3 {
        fill: #fffffe;
      }
    </style>
    <mask id="mask" x=".09" y="0" width="399.91" height="279.89" maskUnits="userSpaceOnUse"/>
  </defs>
  <g id="Sponsor_logos" data-name="Sponsor logos">
    <g>
      <g class="cls-1">
        <path class="cls-2" d="M166.46,30.54c12.9-13.44,30.86-21.78,50.72-21.78,26.4,0,49.44,14.72,61.71,36.58,10.97-4.9,22.86-7.43,34.88-7.42,47.62,0,86.23,38.95,86.23,86.99,0,48.04-38.61,86.99-86.23,86.99-5.82,0-11.49-.58-16.99-1.69-10.8,19.27-31.39,32.29-55.02,32.29-9.56,.01-18.99-2.16-27.58-6.35-10.95,25.76-36.47,43.83-66.2,43.83-30.97,0-57.37-19.59-67.49-47.07-4.51,.95-9.11,1.43-13.72,1.43C29.89,234.33,0,204.13,0,166.87c0-24.97,13.43-46.77,33.38-58.43-4.23-9.74-6.4-20.24-6.39-30.85C26.99,34.74,61.78,0,104.68,0c25.19,0,47.58,11.98,61.77,30.54"/>
      </g>
      <path class="cls-3" d="M57.94,145.19c-.25,.66,.09,.79,.17,.91,.75,.54,1.51,.94,2.28,1.38,4.08,2.16,7.93,2.79,11.96,2.79,8.21,0,13.3-4.36,13.3-11.39v-.14c0-6.5-5.75-8.86-11.15-10.56l-.7-.23c-4.07-1.32-7.58-2.46-7.58-5.14v-.14c0-2.29,2.05-3.98,5.23-3.98,3.53,0,7.72,1.17,10.42,2.67,0,0,.8,.51,1.09-.25,.16-.42,1.52-4.09,1.67-4.49,.16-.43-.12-.76-.4-.92-3.08-1.88-7.35-3.16-11.76-3.16h-.82c-7.51,0-12.75,4.54-12.75,11.04v.14c0,6.85,5.78,9.08,11.2,10.62l.87,.27c3.95,1.21,7.35,2.26,7.35,5.03v.14c0,2.54-2.21,4.43-5.78,4.43-1.38,0-5.8-.02-10.57-3.04-.58-.34-.91-.58-1.35-.85-.24-.14-.82-.4-1.08,.37l-1.62,4.49m120.12,0c-.25,.66,.09,.79,.17,.91,.75,.54,1.51,.94,2.28,1.38,4.08,2.16,7.93,2.79,11.96,2.79,8.21,0,13.3-4.36,13.3-11.39v-.14c0-6.5-5.75-8.86-11.15-10.56l-.7-.23c-4.07-1.32-7.58-2.46-7.58-5.14v-.14c0-2.29,2.05-3.98,5.23-3.98,3.53,0,7.72,1.17,10.42,2.67,0,0,.8,.51,1.09-.25,.16-.42,1.52-4.09,1.67-4.49,.16-.43-.12-.76-.4-.92-3.09-1.88-7.35-3.16-11.76-3.16h-.82c-7.51,0-12.75,4.54-12.75,11.04v.14c0,6.85,5.78,9.08,11.2,10.62l.87,.27c3.95,1.21,7.36,2.26,7.36,5.03v.14c0,2.54-2.22,4.43-5.78,4.43-1.39,0-5.8-.02-10.57-3.04-.58-.34-.92-.57-1.35-.85-.15-.09-.84-.36-1.08,.37l-1.62,4.49m82-13.76c0,3.97-.74,7.1-2.2,9.31-1.45,2.19-3.63,3.26-6.67,3.26-3.04,0-5.21-1.06-6.64-3.25-1.44-2.21-2.16-5.35-2.16-9.31,0-3.97,.73-7.09,2.16-9.28,1.42-2.17,3.59-3.22,6.64-3.22,3.04,0,5.23,1.05,6.67,3.22,1.46,2.19,2.2,5.31,2.2,9.27m6.85-7.36c-.67-2.28-1.72-4.28-3.12-5.95-1.4-1.68-3.17-3.02-5.26-4-2.09-.98-4.56-1.47-7.34-1.47s-5.25,.5-7.34,1.47c-2.09,.98-3.86,2.32-5.26,4-1.39,1.67-2.44,3.67-3.12,5.95-.67,2.26-1.01,4.74-1.01,7.36s.34,5.1,1.01,7.36c.67,2.27,1.72,4.27,3.12,5.95,1.4,1.68,3.17,3.01,5.26,3.97,2.1,.95,4.56,1.44,7.34,1.44,2.78,0,5.24-.49,7.34-1.44,2.09-.95,3.86-2.29,5.26-3.97,1.39-1.67,2.44-3.68,3.12-5.95,.67-2.26,1.01-4.74,1.01-7.36,0-2.62-.34-5.1-1.01-7.36m56.24,18.86c-.22-.67-.87-.41-.87-.41-.99,.38-2.05,.73-3.18,.91-1.14,.18-2.4,.27-3.75,.27-3.31,0-5.95-.99-7.83-2.93-1.89-1.95-2.95-5.1-2.94-9.36,.01-3.87,.95-6.79,2.63-9.02,1.67-2.21,4.21-3.35,7.6-3.35,2.83,0,4.98,.33,7.24,1.04,0,0,.54,.23,.79-.47,.6-1.67,1.04-2.85,1.69-4.68,.18-.52-.26-.74-.43-.81-.89-.35-2.98-.92-4.57-1.16-1.48-.23-3.21-.34-5.14-.34-2.88,0-5.44,.49-7.63,1.47-2.19,.97-4.04,2.32-5.52,3.99-1.47,1.68-2.59,3.68-3.33,5.95-.74,2.26-1.12,4.74-1.12,7.37,0,5.68,1.53,10.27,4.56,13.63,3.03,3.37,7.58,5.09,13.52,5.09,3.51,0,7.11-.71,9.7-1.73,0,0,.49-.24,.28-.81l-1.68-4.65m11.98-15.31c.33-2.21,.93-4.04,1.87-5.47,1.42-2.17,3.58-3.36,6.63-3.36,3.05,0,5.05,1.2,6.5,3.36,.96,1.43,1.37,3.34,1.54,5.47h-16.54s0,0,0,0Zm23.06-4.85c-.58-2.2-2.02-4.41-2.97-5.43-1.49-1.61-2.95-2.73-4.4-3.36-2.1-.89-4.36-1.35-6.64-1.35-2.89,0-5.52,.49-7.66,1.49-2.14,1-3.93,2.37-5.34,4.07-1.41,1.7-2.47,3.72-3.14,6.02-.68,2.28-1.02,4.77-1.02,7.4,0,2.67,.35,5.16,1.05,7.4,.7,2.26,1.83,4.24,3.36,5.89,1.52,1.66,3.49,2.96,5.83,3.86,2.33,.9,5.17,1.37,8.42,1.36,6.7-.02,10.22-1.52,11.68-2.32,.26-.14,.5-.39,.2-1.11l-1.52-4.24c-.23-.63-.87-.4-.87-.4-1.66,.62-4.02,1.73-9.52,1.72-3.59,0-6.26-1.07-7.93-2.73-1.71-1.7-2.55-4.19-2.7-7.71l23.18,.02s.61,0,.67-.6c.02-.25,.8-4.76-.69-9.98h0Zm-208.74,4.85c.33-2.21,.93-4.04,1.87-5.47,1.42-2.17,3.58-3.36,6.63-3.36,3.05,0,5.05,1.2,6.5,3.36,.95,1.43,1.37,3.34,1.53,5.47h-16.54Zm23.06-4.85c-.58-2.2-2.02-4.41-2.96-5.43-1.49-1.61-2.95-2.73-4.4-3.36-2.1-.89-4.36-1.35-6.64-1.35-2.89,0-5.52,.49-7.66,1.49-2.14,1-3.93,2.37-5.34,4.07-1.41,1.7-2.46,3.72-3.14,6.02-.67,2.28-1.01,4.77-1.01,7.4,0,2.67,.35,5.16,1.05,7.4,.7,2.26,1.83,4.24,3.36,5.89,1.53,1.66,3.49,2.96,5.83,3.86,2.33,.9,5.16,1.37,8.42,1.36,6.7-.02,10.22-1.52,11.68-2.32,.26-.14,.5-.39,.2-1.11l-1.52-4.24c-.23-.63-.87-.4-.87-.4-1.66,.62-4.01,1.73-9.52,1.72-3.59,0-6.26-1.07-7.93-2.73-1.71-1.7-2.55-4.19-2.7-7.71l23.18,.02s.61,0,.67-.6c.02-.25,.8-4.76-.69-9.98Zm-73.17,20.03c-.91-.73-1.04-.9-1.34-1.38-.46-.71-.7-1.72-.7-3.02,0-2.04,.68-3.5,2.07-4.49-.01,0,2-1.74,6.72-1.68,2.11,.04,4.21,.22,6.29,.54v10.54s0,0,0,0c0,0-2.95,.63-6.26,.83-4.71,.28-6.81-1.36-6.79-1.35h0Zm9.23-16.29c-.94-.07-2.16-.1-3.62-.1-1.99,0-3.91,.25-5.71,.73-1.81,.49-3.44,1.24-4.84,2.24-1.4,1-2.55,2.31-3.36,3.82-.82,1.53-1.24,3.33-1.24,5.34,0,2.06,.36,3.84,1.06,5.29,.69,1.44,1.73,2.69,3.02,3.63,1.29,.94,2.88,1.63,4.72,2.05,1.82,.42,3.88,.63,6.14,.63,2.38,0,4.75-.2,7.04-.59,1.95-.34,3.9-.72,5.84-1.13,.77-.18,1.63-.41,1.63-.41,.57-.15,.53-.76,.53-.76v-21.2c-.01-4.65-1.25-8.1-3.7-10.24-2.43-2.13-6.01-3.21-10.65-3.21-1.74,0-4.54,.24-6.21,.57,0,0-5.06,.98-7.15,2.61,0,0-.46,.28-.21,.92l1.64,4.41c.2,.57,.76,.38,.76,.38,0,0,.17-.07,.38-.19,4.46-2.43,10.1-2.35,10.1-2.35,2.5,0,4.43,.51,5.73,1.5,1.27,.97,1.91,2.43,1.91,5.52v.98c-1.99-.29-3.82-.45-3.82-.45Zm187-11.94c.14-.32,0-.69-.33-.83,0,0-.01,0-.02,0-.4-.15-2.37-.57-3.89-.66-2.91-.18-4.53,.31-5.98,.96-1.44,.65-3.03,1.7-3.92,2.89v-2.83c0-.39-.28-.7-.67-.7h-5.94c-.39,0-.66,.31-.66,.7v34.59c0,.39,.32,.7,.7,.7h6.09c.39,0,.7-.32,.7-.7v-17.28c0-2.32,.26-4.63,.77-6.09,.5-1.44,1.19-2.59,2.03-3.41,.8-.8,1.78-1.39,2.86-1.72,1.01-.29,2.06-.44,3.11-.44,1.21,0,2.55,.31,2.55,.31,.45,.05,.7-.22,.85-.63,.4-1.06,1.53-4.24,1.74-4.87"/>
      <path class="cls-3" d="M238.39,98.54c-.75-.23-1.52-.41-2.29-.54-1.04-.17-2.1-.26-3.15-.24-4.19,0-7.5,1.18-9.82,3.52-2.3,2.32-3.87,5.86-4.66,10.51l-.28,1.57h-5.26s-.64-.03-.78,.67l-.86,4.82c-.06,.46,.14,.75,.76,.75h5.12s-5.2,29.02-5.2,29.02c-.41,2.34-.87,4.26-1.39,5.72-.51,1.44-1.01,2.51-1.62,3.3-.59,.76-1.15,1.31-2.12,1.64-.8,.27-1.72,.39-2.73,.39-.56,0-1.31-.09-1.86-.2-.55-.11-.84-.23-1.25-.41,0,0-.6-.23-.84,.37-.19,.49-1.56,4.25-1.72,4.71-.16,.46,.07,.82,.36,.92,.68,.24,1.19,.4,2.12,.62,1.29,.3,2.38,.32,3.4,.32,2.13,0,4.08-.3,5.69-.88,1.62-.59,3.03-1.61,4.28-2.99,1.35-1.49,2.2-3.05,3.01-5.19,.8-2.11,1.49-4.73,2.04-7.79l5.22-29.55h7.64s.64,.02,.78-.67l.86-4.82c.06-.46-.14-.75-.76-.75h-7.41c.04-.17,.37-2.77,1.22-5.23,.36-1.05,1.05-1.89,1.63-2.47,.54-.55,1.21-.97,1.94-1.21,.81-.25,1.65-.37,2.49-.36,.7,0,1.38,.08,1.9,.19,.72,.15,1,.23,1.19,.29,.76,.23,.86,0,1.01-.36l1.77-4.87c.18-.52-.26-.74-.43-.81m-103.58,50.14c0,.39-.28,.7-.66,.7h-6.15c-.39,0-.67-.32-.67-.7v-49.48c0-.39,.28-.7,.67-.7h6.15c.39,0,.66,.31,.66,.7v49.48"/>
    </g>
  </g>
</svg>