<?xml version="1.0" encoding="UTF-8"?>
<svg id="Layer_2" data-name="Layer 2" xmlns="http://www.w3.org/2000/svg" xmlns:xlink="http://www.w3.org/1999/xlink" viewBox="0 0 800 559.96">
  <defs>
    <style>
      .cls-1 {
        mask: url(#mask);
      }

      .cls-2 {
        fill: #00a1e0;
      }

      .cls-2, .cls-3 {
        fill-rule: evenodd;
      }

      .cls-3 {
        fill: #fffffe;
      }
    </style>
    <mask id="mask" x=".18" y="0" width="799.82" height="559.78" maskUnits="userSpaceOnUse"/>
  </defs>
  <g id="Sponsor_logos" data-name="Sponsor logos">
    <g>
      <g class="cls-1">
        <path class="cls-2" d="M332.91,61.07c25.8-26.88,61.72-43.56,101.45-43.56,52.81,0,98.88,29.45,123.41,73.17,21.95-9.81,45.72-14.86,69.76-14.83,95.25,0,172.47,77.89,172.47,173.98,0,96.09-77.22,173.98-172.47,173.98-11.63,0-22.99-1.17-33.98-3.39-21.6,38.53-62.78,64.57-110.04,64.57-19.11,.03-37.98-4.32-55.16-12.7-21.9,51.52-72.94,87.65-132.41,87.65-61.94,0-114.73-39.19-134.98-94.15-9.03,1.9-18.22,2.86-27.45,2.86C59.78,468.66,0,408.26,0,333.75c0-49.94,26.85-93.54,66.77-116.86-8.46-19.47-12.81-40.48-12.78-61.71C53.99,69.48,123.55,0,209.36,0c50.38,0,95.16,23.95,123.55,61.07"/>
      </g>
      <path class="cls-3" d="M115.87,290.38c-.5,1.31,.18,1.58,.34,1.82,1.5,1.09,3.03,1.88,4.57,2.76,8.16,4.32,15.87,5.58,23.92,5.58,16.41,0,26.6-8.72,26.6-22.77v-.28c0-12.99-11.51-17.71-22.29-21.12l-1.41-.46c-8.13-2.64-15.15-4.92-15.15-10.28v-.27c0-4.59,4.1-7.96,10.46-7.96,7.07,0,15.45,2.35,20.85,5.33,0,0,1.59,1.03,2.17-.51,.31-.83,3.05-8.19,3.34-8.98,.31-.86-.24-1.51-.8-1.85-6.17-3.76-14.69-6.32-23.51-6.32h-1.64c-15.02,0-25.51,9.09-25.51,22.09v.28c0,13.7,11.57,18.15,22.41,21.25l1.74,.54c7.89,2.42,14.71,4.51,14.71,10.07v.28c0,5.09-4.43,8.86-11.56,8.86-2.77,0-11.6-.05-21.14-6.08-1.16-.67-1.81-1.16-2.7-1.7-.47-.29-1.65-.8-2.16,.74l-3.24,8.99m240.24,0c-.5,1.31,.18,1.58,.35,1.82,1.5,1.09,3.02,1.88,4.56,2.76,8.16,4.32,15.87,5.58,23.92,5.58,16.41,0,26.61-8.72,26.61-22.77v-.28c0-12.99-11.5-17.71-22.29-21.12l-1.41-.46c-8.13-2.64-15.16-4.92-15.16-10.28v-.27c0-4.59,4.11-7.96,10.47-7.96,7.07,0,15.44,2.35,20.84,5.33,0,0,1.59,1.03,2.18-.51,.31-.83,3.05-8.19,3.33-8.98,.31-.86-.24-1.51-.79-1.85-6.17-3.76-14.69-6.32-23.51-6.32h-1.64c-15.02,0-25.51,9.09-25.51,22.09v.28c0,13.7,11.57,18.15,22.41,21.25l1.74,.54c7.9,2.42,14.71,4.51,14.71,10.07v.28c0,5.09-4.43,8.86-11.56,8.86-2.77,0-11.6-.05-21.14-6.08-1.16-.67-1.83-1.14-2.71-1.7-.3-.19-1.68-.73-2.15,.74l-3.24,8.99m164-27.52c0,7.94-1.48,14.2-4.39,18.62-2.89,4.38-7.26,6.51-13.34,6.51-6.09,0-10.43-2.13-13.27-6.5-2.87-4.42-4.33-10.69-4.33-18.63,0-7.93,1.46-14.18,4.33-18.55,2.85-4.34,7.19-6.44,13.27-6.44,6.09,0,10.45,2.11,13.34,6.44,2.92,4.37,4.39,10.62,4.39,18.55m13.7-14.72c-1.35-4.55-3.44-8.56-6.23-11.9-2.8-3.35-6.33-6.05-10.52-8-4.19-1.95-9.12-2.95-14.68-2.95s-10.5,.99-14.69,2.95c-4.19,1.95-7.72,4.65-10.52,8-2.79,3.35-4.89,7.35-6.23,11.9-1.34,4.52-2.02,9.47-2.02,14.72,0,5.25,.68,10.21,2.02,14.72,1.34,4.54,3.44,8.55,6.23,11.9,2.8,3.36,6.34,6.03,10.52,7.93,4.19,1.9,9.13,2.87,14.68,2.87,5.56,0,10.49-.97,14.68-2.87,4.19-1.9,7.73-4.58,10.53-7.93,2.79-3.34,4.89-7.35,6.23-11.9,1.33-4.52,2.01-9.47,2.01-14.72,0-5.24-.68-10.2-2.01-14.72m112.48,37.72c-.45-1.33-1.75-.83-1.75-.83-1.99,.76-4.11,1.47-6.37,1.82-2.28,.36-4.81,.54-7.51,.54-6.62,0-11.9-1.97-15.66-5.87-3.78-3.9-5.91-10.2-5.88-18.73,.02-7.75,1.9-13.59,5.26-18.04,3.33-4.42,8.42-6.69,15.19-6.69,5.65,0,9.96,.66,14.48,2.07,0,0,1.07,.47,1.59-.95,1.2-3.33,2.09-5.7,3.37-9.36,.36-1.04-.53-1.48-.86-1.61-1.78-.69-5.97-1.83-9.14-2.31-2.96-.45-6.42-.69-10.28-.69-5.75,0-10.88,.98-15.27,2.94-4.38,1.95-8.09,4.64-11.03,7.99-2.94,3.35-5.18,7.36-6.66,11.9-1.48,4.52-2.23,9.48-2.23,14.74,0,11.36,3.07,20.54,9.11,27.27,6.07,6.75,15.17,10.18,27.05,10.18,7.02,0,14.21-1.42,19.4-3.46,0,0,.99-.48,.56-1.63l-3.37-9.29m23.97-30.62c.66-4.41,1.86-8.08,3.75-10.94,2.84-4.34,7.17-6.73,13.26-6.73,6.09,0,10.1,2.39,13,6.73,1.91,2.87,2.75,6.68,3.07,10.94h-33.07s0,0,0,0Zm46.12-9.69c-1.17-4.39-4.04-8.83-5.93-10.86-2.98-3.22-5.91-5.47-8.81-6.71-4.2-1.78-8.72-2.7-13.28-2.7-5.79,0-11.05,.98-15.31,2.98-4.27,2-7.86,4.74-10.67,8.15-2.82,3.4-4.93,7.45-6.28,12.04-1.35,4.56-2.03,9.54-2.03,14.8,0,5.34,.71,10.33,2.1,14.81,1.41,4.52,3.67,8.48,6.72,11.78,3.05,3.31,6.97,5.91,11.66,7.72,4.66,1.81,10.33,2.75,16.83,2.72,13.4-.04,20.44-3.03,23.35-4.64,.51-.29,1-.78,.39-2.22l-3.03-8.49c-.46-1.27-1.75-.81-1.75-.81-3.32,1.24-8.03,3.45-19.04,3.43-7.19-.01-12.52-2.14-15.86-5.46-3.42-3.4-5.11-8.38-5.39-15.42l46.36,.04s1.22-.01,1.35-1.21c.05-.49,1.59-9.52-1.38-19.97h0Zm-417.48,9.69c.66-4.41,1.87-8.08,3.75-10.94,2.85-4.34,7.17-6.73,13.26-6.73,6.09,0,10.1,2.39,13,6.73,1.91,2.87,2.74,6.68,3.07,10.94h-33.07Zm46.12-9.7c-1.16-4.39-4.04-8.83-5.93-10.86-2.98-3.22-5.9-5.47-8.81-6.71-4.2-1.78-8.72-2.7-13.28-2.7-5.79,0-11.05,.98-15.31,2.98-4.27,2-7.86,4.74-10.68,8.15-2.81,3.4-4.93,7.45-6.28,12.04-1.35,4.56-2.03,9.54-2.03,14.8,0,5.34,.7,10.33,2.1,14.81,1.41,4.52,3.67,8.48,6.71,11.78,3.05,3.31,6.97,5.91,11.66,7.72,4.67,1.81,10.33,2.75,16.83,2.72,13.39-.04,20.44-3.03,23.35-4.64,.51-.29,1-.78,.39-2.22l-3.03-8.49c-.47-1.27-1.75-.81-1.75-.81-3.32,1.24-8.03,3.45-19.04,3.43-7.19-.01-12.52-2.14-15.86-5.46-3.42-3.4-5.11-8.38-5.39-15.42l46.36,.04s1.22-.01,1.35-1.21c.05-.49,1.59-9.52-1.39-19.97Zm-146.34,40.06c-1.82-1.45-2.07-1.81-2.67-2.75-.92-1.42-1.39-3.44-1.39-6.03,0-4.07,1.35-7,4.14-8.97-.03,0,4-3.47,13.45-3.35,4.22,.07,8.42,.43,12.59,1.07v21.08s0,0,0,0c0,0-5.89,1.27-12.53,1.67-9.43,.57-13.62-2.72-13.59-2.71h0Zm18.45-32.59c-1.88-.14-4.32-.21-7.24-.21-3.97,0-7.81,.49-11.42,1.46-3.62,.98-6.88,2.49-9.68,4.49-2.8,2-5.1,4.62-6.73,7.65-1.64,3.06-2.48,6.65-2.48,10.68,0,4.11,.71,7.67,2.13,10.58,1.38,2.89,3.46,5.38,6.05,7.26,2.58,1.88,5.76,3.25,9.45,4.09,3.64,.83,7.77,1.25,12.28,1.25,4.76,0,9.5-.4,14.09-1.17,3.91-.67,7.8-1.43,11.68-2.27,1.55-.36,3.25-.82,3.25-.82,1.15-.29,1.06-1.52,1.06-1.52l-.03-42.4c0-9.3-2.48-16.19-7.37-20.47-4.86-4.26-12.03-6.41-21.3-6.41-3.48,0-9.07,.47-12.43,1.14,0,0-10.12,1.96-14.29,5.23,0,0-.92,.56-.42,1.84l3.28,8.82c.41,1.14,1.52,.75,1.52,.75,0,0,.35-.14,.76-.38,8.92-4.85,20.2-4.71,20.2-4.71,5.01,0,8.87,1.01,11.46,3,2.53,1.94,3.82,4.87,3.82,11.05v1.96c-3.98-.58-7.64-.91-7.64-.91Zm374-23.89c.28-.64-.02-1.38-.66-1.65-.01,0-.03-.01-.04-.02-.79-.3-4.73-1.13-7.77-1.32-5.83-.36-9.06,.62-11.96,1.92-2.87,1.3-6.06,3.39-7.83,5.78v-5.66c0-.78-.56-1.4-1.34-1.4h-11.89c-.77,0-1.33,.63-1.33,1.4v69.17c0,.78,.63,1.41,1.41,1.41h12.18c.78,0,1.41-.63,1.41-1.41v-34.55c0-4.64,.51-9.27,1.53-12.17,1.01-2.88,2.37-5.17,4.07-6.82,1.6-1.59,3.57-2.77,5.73-3.44,2.02-.58,4.12-.88,6.22-.88,2.42,0,5.09,.62,5.09,.62,.89,.1,1.39-.45,1.69-1.25,.8-2.12,3.05-8.47,3.49-9.74"/>
      <path class="cls-3" d="M476.77,197.08c-1.5-.45-3.03-.82-4.58-1.09-2.08-.35-4.19-.51-6.3-.49-8.39,0-15,2.37-19.64,7.05-4.61,4.64-7.75,11.72-9.32,21.03l-.57,3.14h-10.53s-1.28-.05-1.55,1.35l-1.73,9.64c-.12,.92,.28,1.5,1.51,1.49h10.25s-10.4,58.03-10.4,58.03c-.81,4.67-1.75,8.52-2.78,11.43-1.02,2.87-2.01,5.03-3.23,6.59-1.18,1.51-2.31,2.63-4.24,3.28-1.6,.54-3.44,.78-5.46,.78-1.12,0-2.62-.19-3.72-.41-1.1-.22-1.68-.46-2.5-.81,0,0-1.2-.46-1.68,.75-.39,.98-3.12,8.49-3.44,9.42-.33,.92,.13,1.64,.71,1.85,1.36,.49,2.38,.8,4.24,1.24,2.58,.61,4.76,.65,6.79,.65,4.27,0,8.16-.6,11.38-1.76,3.25-1.17,6.07-3.22,8.57-5.98,2.7-2.98,4.4-6.11,6.03-10.37,1.61-4.22,2.98-9.47,4.07-15.58l10.45-59.11h15.27s1.29,.05,1.55-1.35l1.73-9.64c.12-.92-.27-1.5-1.51-1.49h-14.82c.07-.34,.75-5.55,2.45-10.46,.73-2.1,2.09-3.79,3.25-4.95,1.08-1.11,2.41-1.93,3.88-2.42,1.61-.5,3.29-.74,4.98-.72,1.4,0,2.77,.17,3.81,.39,1.44,.31,2,.47,2.37,.58,1.51,.46,1.71,.01,2.01-.72l3.54-9.74c.36-1.05-.52-1.49-.85-1.62m-207.15,100.28c0,.78-.55,1.41-1.33,1.41h-12.3c-.78,0-1.33-.63-1.33-1.41v-98.96c0-.77,.55-1.4,1.33-1.4h12.3c.78,0,1.33,.63,1.33,1.4v98.96"/>
    </g>
  </g>
</svg>