<?xml version="1.0" encoding="UTF-8"?>
<svg id="Layer_2" data-name="Layer 2" xmlns="http://www.w3.org/2000/svg" xmlns:xlink="http://www.w3.org/1999/xlink" viewBox="0 0 104.6 73.21">
  <defs>
    <style>
      .cls-1 {
        mask: url(#mask);
      }

      .cls-2 {
        fill: #00a1e0;
      }

      .cls-2, .cls-3 {
        fill-rule: evenodd;
      }

      .cls-3 {
        fill: #fffffe;
      }
    </style>
    <mask id="mask" x=".02" y="0" width="104.58" height="73.19" maskUnits="userSpaceOnUse"/>
  </defs>
  <g id="Sponsor_logos" data-name="Sponsor logos">
    <g>
      <g class="cls-1">
        <path class="cls-2" d="M43.53,7.99c3.37-3.51,8.07-5.7,13.26-5.7,6.9,0,12.93,3.85,16.14,9.57,2.87-1.28,5.98-1.94,9.12-1.94,12.45,0,22.55,10.18,22.55,22.75,0,12.56-10.1,22.75-22.55,22.75-1.52,0-3.01-.15-4.44-.44-2.82,5.04-8.21,8.44-14.39,8.44-2.5,0-4.97-.56-7.21-1.66-2.86,6.74-9.54,11.46-17.31,11.46s-15-5.12-17.65-12.31c-1.18,.25-2.38,.37-3.59,.37C7.82,61.28,0,53.38,0,43.64c0-6.53,3.51-12.23,8.73-15.28-1.11-2.55-1.67-5.29-1.67-8.07C7.06,9.08,16.15,0,27.37,0c6.59,0,12.44,3.13,16.15,7.99"/>
      </g>
      <path class="cls-3" d="M15.15,37.97c-.07,.17,.02,.21,.04,.24,.2,.14,.4,.25,.6,.36,1.07,.56,2.07,.73,3.13,.73,2.15,0,3.48-1.14,3.48-2.98v-.04c0-1.7-1.5-2.32-2.91-2.76l-.18-.06c-1.06-.35-1.98-.64-1.98-1.34v-.04c0-.6,.54-1.04,1.37-1.04,.92,0,2.02,.31,2.73,.7,0,0,.21,.13,.28-.07,.04-.11,.4-1.07,.44-1.17,.04-.11-.03-.2-.1-.24-.81-.49-1.92-.83-3.07-.83h-.21c-1.96,0-3.34,1.19-3.34,2.89v.04c0,1.79,1.51,2.37,2.93,2.78l.23,.07c1.03,.32,1.92,.59,1.92,1.32v.04c0,.66-.58,1.16-1.51,1.16-.36,0-1.52,0-2.76-.8-.15-.09-.24-.15-.35-.22-.06-.04-.22-.1-.28,.1l-.42,1.17m31.41,0c-.07,.17,.02,.21,.05,.24,.2,.14,.4,.25,.6,.36,1.07,.56,2.07,.73,3.13,.73,2.15,0,3.48-1.14,3.48-2.98v-.04c0-1.7-1.5-2.32-2.91-2.76l-.18-.06c-1.06-.35-1.98-.64-1.98-1.34v-.04c0-.6,.54-1.04,1.37-1.04,.92,0,2.02,.31,2.73,.7,0,0,.21,.13,.28-.07,.04-.11,.4-1.07,.44-1.17,.04-.11-.03-.2-.1-.24-.81-.49-1.92-.83-3.07-.83h-.21c-1.96,0-3.33,1.19-3.33,2.89v.04c0,1.79,1.51,2.37,2.93,2.78l.23,.07c1.03,.32,1.92,.59,1.92,1.32v.04c0,.66-.58,1.16-1.51,1.16-.36,0-1.52,0-2.76-.8-.15-.09-.24-.15-.35-.22-.04-.02-.22-.1-.28,.1l-.42,1.17m21.44-3.6c0,1.04-.19,1.86-.57,2.43-.38,.57-.95,.85-1.74,.85-.8,0-1.36-.28-1.74-.85-.38-.58-.57-1.4-.57-2.44,0-1.04,.19-1.85,.57-2.43,.37-.57,.94-.84,1.74-.84s1.37,.28,1.74,.84c.38,.57,.57,1.39,.57,2.43m1.79-1.92c-.18-.6-.45-1.12-.82-1.56-.37-.44-.83-.79-1.38-1.05-.55-.26-1.19-.39-1.92-.39s-1.37,.13-1.92,.39c-.55,.26-1.01,.61-1.38,1.05-.36,.44-.64,.96-.81,1.56-.17,.59-.26,1.24-.26,1.92s.09,1.33,.26,1.92c.18,.59,.45,1.12,.82,1.56,.37,.44,.83,.79,1.38,1.04,.55,.25,1.19,.38,1.92,.38s1.37-.13,1.92-.38c.55-.25,1.01-.6,1.38-1.04,.36-.44,.64-.96,.82-1.56,.17-.59,.26-1.24,.26-1.92s-.09-1.33-.26-1.92m14.71,4.93c-.06-.17-.23-.11-.23-.11-.26,.1-.54,.19-.83,.24-.3,.05-.63,.07-.98,.07-.87,0-1.56-.26-2.05-.77-.49-.51-.77-1.33-.77-2.45,0-1.01,.25-1.78,.69-2.36,.44-.58,1.1-.87,1.99-.87,.74,0,1.3,.09,1.89,.27,0,0,.14,.06,.21-.12,.16-.44,.27-.75,.44-1.22,.05-.14-.07-.19-.11-.21-.23-.09-.78-.24-1.19-.3-.39-.06-.84-.09-1.34-.09-.75,0-1.42,.13-2,.38-.57,.25-1.06,.61-1.44,1.04-.38,.44-.68,.96-.87,1.56-.19,.59-.29,1.24-.29,1.93,0,1.49,.4,2.69,1.19,3.57,.79,.88,1.98,1.33,3.54,1.33,.92,0,1.86-.19,2.54-.45,0,0,.13-.06,.07-.21l-.44-1.21m3.13-4c.09-.58,.24-1.06,.49-1.43,.37-.57,.94-.88,1.73-.88s1.32,.31,1.7,.88c.25,.37,.36,.87,.4,1.43h-4.32s0,0,0,0Zm6.03-1.27c-.15-.57-.53-1.15-.78-1.42-.39-.42-.77-.71-1.15-.88-.55-.23-1.14-.35-1.74-.35-.76,0-1.44,.13-2,.39-.56,.26-1.03,.62-1.4,1.07-.37,.44-.64,.97-.82,1.57-.18,.6-.27,1.25-.27,1.93s.09,1.35,.27,1.94c.18,.59,.48,1.11,.88,1.54,.4,.43,.91,.77,1.52,1.01,.61,.24,1.35,.36,2.2,.36,1.75,0,2.67-.4,3.05-.61,.07-.04,.13-.1,.05-.29l-.4-1.11c-.06-.17-.23-.11-.23-.11-.43,.16-1.05,.45-2.49,.45-.94,0-1.64-.28-2.07-.71-.45-.44-.67-1.1-.7-2.02h6.06s.16,0,.18-.15c0-.06,.21-1.25-.18-2.61h0Zm-54.59,1.27c.09-.58,.24-1.06,.49-1.43,.37-.57,.94-.88,1.73-.88s1.32,.31,1.7,.88c.25,.37,.36,.87,.4,1.43h-4.32Zm6.03-1.27c-.15-.57-.53-1.15-.78-1.42-.39-.42-.77-.71-1.15-.88-.55-.23-1.14-.35-1.74-.35-.76,0-1.44,.13-2,.39-.56,.26-1.03,.62-1.4,1.07-.37,.44-.64,.97-.82,1.57-.18,.6-.27,1.25-.27,1.93s.09,1.35,.28,1.94c.18,.59,.48,1.11,.88,1.54,.4,.43,.91,.77,1.52,1.01,.61,.24,1.35,.36,2.2,.36,1.75,0,2.67-.4,3.05-.61,.07-.04,.13-.1,.05-.29l-.4-1.11c-.06-.17-.23-.11-.23-.11-.43,.16-1.05,.45-2.49,.45-.94,0-1.64-.28-2.07-.71-.45-.44-.67-1.1-.7-2.02h6.06s.16,0,.18-.15c0-.06,.21-1.25-.18-2.61Zm-19.13,5.24c-.24-.19-.27-.24-.35-.36-.12-.19-.18-.45-.18-.79,0-.53,.18-.92,.54-1.17,0,0,.52-.45,1.76-.44,.55,0,1.1,.06,1.65,.14v2.76s0,0,0,0c0,0-.77,.17-1.64,.22-1.23,.07-1.78-.36-1.78-.35h0Zm2.41-4.26c-.25-.02-.56-.03-.95-.03-.52,0-1.02,.06-1.49,.19-.47,.13-.9,.33-1.27,.59-.37,.26-.67,.6-.88,1-.21,.4-.32,.87-.32,1.4s.09,1,.28,1.38c.18,.38,.45,.7,.79,.95,.34,.25,.75,.43,1.24,.53,.48,.11,1.02,.16,1.61,.16,.62,0,1.24-.05,1.84-.15,.51-.09,1.02-.19,1.53-.3,.2-.05,.43-.11,.43-.11,.15-.04,.14-.2,.14-.2v-5.54c0-1.22-.33-2.12-.97-2.68-.64-.56-1.57-.84-2.78-.84-.46,0-1.19,.06-1.62,.15,0,0-1.32,.26-1.87,.68,0,0-.12,.07-.05,.24l.43,1.15c.05,.15,.2,.1,.2,.1,0,0,.05-.02,.1-.05,1.17-.63,2.64-.62,2.64-.62,.65,0,1.16,.13,1.5,.39,.33,.25,.5,.64,.5,1.44v.26c-.52-.08-1-.12-1-.12Zm48.9-3.12c.04-.08,0-.18-.09-.22,0,0,0,0,0,0-.1-.04-.62-.15-1.02-.17-.76-.05-1.18,.08-1.56,.25-.38,.17-.79,.44-1.02,.76v-.74c0-.1-.07-.18-.17-.18h-1.55c-.1,0-.17,.08-.17,.18v9.04c0,.1,.08,.18,.18,.18h1.59c.1,0,.18-.08,.18-.18v-4.52c0-.61,.07-1.21,.2-1.59,.13-.38,.31-.68,.53-.89,.21-.21,.47-.36,.75-.45,.26-.08,.54-.11,.81-.11,.32,0,.67,.08,.67,.08,.12,.01,.18-.06,.22-.16,.1-.28,.4-1.11,.46-1.27"/>
      <path class="cls-3" d="M62.34,25.77c-.2-.06-.4-.11-.6-.14-.27-.05-.55-.07-.82-.06-1.1,0-1.96,.31-2.57,.92-.6,.61-1.01,1.53-1.22,2.75l-.07,.41h-1.38s-.17,0-.2,.18l-.23,1.26c-.02,.12,.04,.2,.2,.2h1.34s-1.36,7.59-1.36,7.59c-.11,.61-.23,1.11-.36,1.49-.13,.38-.26,.66-.42,.86-.15,.2-.3,.34-.55,.43-.21,.07-.45,.1-.71,.1-.15,0-.34-.02-.49-.05-.14-.03-.22-.06-.33-.11,0,0-.16-.06-.22,.1-.05,.13-.41,1.11-.45,1.23-.04,.12,.02,.21,.09,.24,.18,.06,.31,.1,.55,.16,.34,.08,.62,.08,.89,.08,.56,0,1.07-.08,1.49-.23,.42-.15,.79-.42,1.12-.78,.35-.39,.58-.8,.79-1.36,.21-.55,.39-1.24,.53-2.04l1.37-7.73h2s.17,0,.2-.18l.23-1.26c.02-.12-.04-.2-.2-.2h-1.94s.1-.73,.32-1.37c.09-.27,.27-.5,.43-.65,.14-.14,.32-.25,.51-.32,.21-.07,.43-.1,.65-.09,.18,0,.36,.02,.5,.05,.19,.04,.26,.06,.31,.08,.2,.06,.22,0,.26-.09l.46-1.27c.05-.14-.07-.19-.11-.21m-27.09,13.11c0,.1-.07,.18-.17,.18h-1.61c-.1,0-.17-.08-.17-.18v-12.94c0-.1,.07-.18,.17-.18h1.61c.1,0,.17,.08,.17,.18v12.94"/>
    </g>
  </g>
</svg>